<svg width="213" height="108" viewBox="0 0 213 108" fill="none" xmlns="http://www.w3.org/2000/svg">
<path d="M74.7739 29.8343C74.7739 30.4965 74.5457 31.048 74.0895 31.4897C73.6408 31.9236 72.9525 32.1405 72.0247 32.1405H70.4962V35.4627H69.4581V27.5053H72.0247C72.9221 27.5053 73.6027 27.7222 74.0666 28.1561C74.5381 28.5899 74.7739 29.1493 74.7739 29.8343ZM72.0247 31.2842C72.6027 31.2842 73.0286 31.1587 73.3024 30.9075C73.5761 30.6563 73.713 30.298 73.713 29.8343C73.713 28.8525 73.1503 28.3616 72.0247 28.3616H70.4962V31.2842H72.0247ZM77.2162 30.2225C77.3987 29.8642 77.6573 29.5867 77.9919 29.3891C78.3341 29.1906 78.7486 29.0922 79.2352 29.0922V30.1654H78.9615C77.7979 30.1654 77.2162 30.7968 77.2162 32.0606V35.4627H76.1781V29.2064H77.2162V30.2225ZM83.2739 35.5655C82.6884 35.5655 82.156 35.432 81.6769 35.1659C81.2054 34.8989 80.8328 34.5222 80.559 34.0357C80.2929 33.5404 80.1598 32.9695 80.1598 32.3232C80.1598 31.6838 80.2966 31.12 80.5704 30.6335C80.8518 30.1382 81.232 29.7614 81.7111 29.5032C82.1902 29.2363 82.7264 29.1037 83.3196 29.1037C83.9127 29.1037 84.4489 29.2363 84.928 29.5032C85.4071 29.7614 85.7835 30.1347 86.0573 30.6221C86.3387 31.1086 86.4794 31.6759 86.4794 32.3232C86.4794 32.9695 86.3349 33.5404 86.0459 34.0357C85.7646 34.5222 85.3805 34.8989 84.8937 35.1659C84.4071 35.432 83.8671 35.5655 83.2739 35.5655ZM83.2739 34.6522C83.6466 34.6522 83.9964 34.5643 84.3234 34.3896C84.6504 34.2139 84.9128 33.9514 85.1105 33.6018C85.3158 33.2514 85.4185 32.8255 85.4185 32.3232C85.4185 31.8208 85.3197 31.394 85.1219 31.0445C84.9242 30.6941 84.6656 30.435 84.3462 30.2682C84.0268 30.0925 83.6808 30.0056 83.3081 30.0056C82.9279 30.0056 82.5781 30.0925 82.2587 30.2682C81.9469 30.435 81.696 30.6941 81.5058 31.0445C81.3157 31.394 81.2206 31.8208 81.2206 32.3232C81.2206 32.8325 81.3119 33.2628 81.4944 33.6132C81.6845 33.9628 81.9355 34.2253 82.2473 34.401C82.5591 34.5678 82.9013 34.6522 83.2739 34.6522ZM87.5705 32.3117C87.5705 31.6724 87.6997 31.113 87.9583 30.6335C88.2172 30.1461 88.5708 29.7693 89.0192 29.5032C89.4755 29.2363 89.9853 29.1037 90.5478 29.1037C91.0348 29.1037 91.4867 29.2178 91.9052 29.4462C92.3238 29.6666 92.6432 29.9599 92.8634 30.3252V27.0144H93.9129V35.4627H92.8634V34.2868C92.6581 34.6592 92.3536 34.9674 91.9509 35.2116C91.5481 35.4469 91.076 35.5655 90.5364 35.5655C89.9809 35.5655 89.4755 35.4285 89.0192 35.1545C88.5708 34.8805 88.2172 34.4958 87.9583 34.0014C87.6997 33.5061 87.5705 32.9432 87.5705 32.3117ZM92.8634 32.3232C92.8634 31.8507 92.7687 31.4397 92.5783 31.0902C92.3878 30.7398 92.1299 30.4737 91.8026 30.291C91.4832 30.1004 91.1295 30.0056 90.7417 30.0056C90.3539 30.0056 90.0002 30.0969 89.6808 30.2796C89.3614 30.4622 89.107 30.7283 88.9165 31.0787C88.7261 31.4283 88.6314 31.8393 88.6314 32.3117C88.6314 32.7912 88.7261 33.2093 88.9165 33.5676C89.107 33.9171 89.3614 34.1876 89.6808 34.3782C90.0002 34.5608 90.3539 34.6522 90.7417 34.6522C91.1295 34.6522 91.4832 34.5608 91.8026 34.3782C92.1299 34.1876 92.3878 33.9171 92.5783 33.5676C92.7687 33.2093 92.8634 32.7947 92.8634 32.3232ZM101.325 29.2064V35.4627H100.287V34.538C100.089 34.8577 99.8113 35.1088 99.4542 35.2915C99.1041 35.4663 98.7162 35.5541 98.2906 35.5541C97.8036 35.5541 97.3667 35.4548 96.9788 35.2572C96.591 35.0517 96.283 34.747 96.0548 34.3439C95.8346 33.9399 95.724 33.449 95.724 32.8712V29.2064H96.7507V32.7342C96.7507 33.3507 96.9069 33.8258 97.2184 34.1612C97.5299 34.4879 97.9563 34.6522 98.496 34.6522C99.0514 34.6522 99.4884 34.4809 99.8078 34.1384C100.127 33.7959 100.287 33.2971 100.287 32.6428V29.2064H101.325ZM102.804 32.3232C102.804 31.6759 102.933 31.113 103.192 30.6335C103.45 30.1461 103.808 29.7693 104.265 29.5032C104.728 29.2363 105.257 29.1037 105.85 29.1037C106.618 29.1037 107.249 29.2898 107.744 29.6631C108.246 30.0354 108.576 30.5536 108.736 31.2157H107.618C107.511 30.8346 107.302 30.5343 106.991 30.3138C106.686 30.0925 106.306 29.9827 105.85 29.9827C105.257 29.9827 104.778 30.1882 104.413 30.5992C104.048 31.0023 103.865 31.5767 103.865 32.3232C103.865 33.0767 104.048 33.6589 104.413 34.0699C104.778 34.4809 105.257 34.6864 105.85 34.6864C106.306 34.6864 106.686 34.5793 106.991 34.3667C107.294 34.1533 107.504 33.8486 107.618 33.4534H108.736C108.569 34.0927 108.234 34.6065 107.732 34.9947C107.23 35.3749 106.603 35.5655 105.85 35.5655C105.257 35.5655 104.728 35.432 104.265 35.1659C103.808 34.8989 103.45 34.5222 103.192 34.0357C102.933 33.5483 102.804 32.9774 102.804 32.3232ZM111.501 30.0627V33.7502C111.501 34.0541 111.566 34.271 111.695 34.401C111.824 34.5222 112.049 34.5837 112.368 34.5837H113.132V35.4627H112.197C111.619 35.4627 111.185 35.3293 110.896 35.0632C110.608 34.7962 110.463 34.3588 110.463 33.7502V30.0627H109.653V29.2064H110.463V27.6309H111.501V29.2064H113.132V30.0627H111.501ZM123.785 27.5053V35.4627H122.747V31.8551H118.697V35.4627H117.659V27.5053H118.697V30.9988H122.747V27.5053H123.785ZM131.215 29.2064V35.4627H130.177V34.538C129.98 34.8577 129.703 35.1088 129.345 35.2915C128.995 35.4663 128.607 35.5541 128.181 35.5541C127.695 35.5541 127.257 35.4548 126.869 35.2572C126.481 35.0517 126.173 34.747 125.945 34.3439C125.725 33.9399 125.614 33.449 125.614 32.8712V29.2064H126.641V32.7342C126.641 33.3507 126.797 33.8258 127.109 34.1612C127.421 34.4879 127.847 34.6522 128.386 34.6522C128.942 34.6522 129.379 34.4809 129.698 34.1384C130.018 33.7959 130.177 33.2971 130.177 32.6428V29.2064H131.215ZM136.128 29.0922C136.888 29.0922 137.504 29.3241 137.976 29.7887C138.448 30.2453 138.684 30.9075 138.684 31.7752V35.4627H137.657V31.9236C137.657 31.2992 137.501 30.8232 137.189 30.4965C136.877 30.161 136.451 29.9942 135.912 29.9942C135.364 29.9942 134.926 30.1654 134.6 30.5079C134.28 30.8504 134.121 31.3483 134.121 32.0035V35.4627H133.083V29.2064H134.121V30.0969C134.326 29.7772 134.603 29.5296 134.953 29.3548C135.311 29.1792 135.702 29.0922 136.128 29.0922ZM141.759 30.0627V33.7502C141.759 34.0541 141.824 34.271 141.953 34.401C142.082 34.5222 142.307 34.5837 142.626 34.5837H143.39V35.4627H142.455C141.877 35.4627 141.443 35.3293 141.155 35.0632C140.866 34.7962 140.721 34.3588 140.721 33.7502V30.0627H139.911V29.2064H140.721V27.6309H141.759V29.2064H143.39V30.0627H141.759Z" fill="#989898"/>
<path d="M35.8225 52.1503C36.2811 52.232 36.6701 52.4735 36.9895 52.8757C37.3089 53.277 37.4686 53.7319 37.4686 54.2404C37.4686 54.6743 37.3539 55.0677 37.1246 55.4207C36.9035 55.765 36.58 56.039 36.1542 56.2445C35.7283 56.4412 35.2328 56.5396 34.6677 56.5396H31.2526V47.9946H34.508C35.0895 47.9946 35.5891 48.093 36.0067 48.2897C36.4244 48.4864 36.7397 48.7525 36.9527 49.0889C37.1656 49.4164 37.2721 49.7853 37.2721 50.1954C37.2721 50.6872 37.141 51.0965 36.8789 51.4249C36.6168 51.7525 36.2647 51.994 35.8225 52.1503ZM32.653 51.5847H34.3852C34.8438 51.5847 35.2001 51.482 35.4539 51.2774C35.716 51.064 35.847 50.761 35.847 50.3675C35.847 49.982 35.716 49.6825 35.4539 49.47C35.2001 49.2487 34.8438 49.1381 34.3852 49.1381H32.653V51.5847ZM34.5449 55.3962C35.0198 55.3962 35.3925 55.2811 35.6628 55.0519C35.933 54.8218 36.0682 54.5021 36.0682 54.0929C36.0682 53.6749 35.9249 53.3429 35.6382 53.097C35.3515 52.8511 34.9707 52.7282 34.4957 52.7282H32.653V55.3962H34.5449ZM45.1943 52.9864C45.1943 53.2402 45.1779 53.4694 45.1451 53.6749H39.9733C40.0142 54.2158 40.2149 54.6497 40.5752 54.9781C40.9355 55.3057 41.3778 55.4699 41.902 55.4699C42.6554 55.4699 43.1877 55.1538 43.499 54.5232H45.01C44.8052 55.1459 44.4326 55.6579 43.8921 56.0601C43.3597 56.4535 42.6964 56.6502 41.902 56.6502C41.2549 56.6502 40.6735 56.5062 40.1576 56.2199C39.6498 55.9248 39.2485 55.5147 38.9537 54.9904C38.667 54.4573 38.5237 53.8426 38.5237 53.1462C38.5237 52.4489 38.6629 51.8385 38.9414 51.3142C39.228 50.7812 39.6252 50.3711 40.133 50.0848C40.6489 49.7976 41.2386 49.6544 41.902 49.6544C42.5408 49.6544 43.1099 49.7932 43.6095 50.0725C44.1091 50.3509 44.4981 50.7443 44.7766 51.2528C45.055 51.7525 45.1943 52.3303 45.1943 52.9864ZM43.7324 52.5437C43.7241 52.0274 43.5399 51.6128 43.1796 51.302C42.8192 50.9902 42.3728 50.8348 41.8406 50.8348C41.3573 50.8348 40.9438 50.9902 40.5998 51.302C40.2558 51.6049 40.051 52.0186 39.9856 52.5437H43.7324ZM49.0294 56.6502C48.497 56.6502 48.0179 56.5554 47.5921 56.3674C47.1744 56.1707 46.8427 55.9081 46.597 55.5806C46.3513 55.2442 46.2203 54.871 46.2039 54.4617H47.6535C47.6781 54.748 47.8132 54.9904 48.0589 55.1871C48.3127 55.3751 48.6281 55.4699 49.0048 55.4699C49.3979 55.4699 49.7009 55.3962 49.9139 55.2486C50.135 55.0923 50.2456 54.8956 50.2456 54.6584C50.2456 54.4038 50.1227 54.2158 49.877 54.0929C49.6395 53.9699 49.2587 53.8347 48.7345 53.6872C48.2267 53.5475 47.8132 53.4123 47.4938 53.2814C47.1744 53.1497 46.896 52.9495 46.6584 52.679C46.4291 52.4085 46.3145 52.0519 46.3145 51.6093C46.3145 51.2484 46.4209 50.9208 46.6339 50.6257C46.8468 50.3219 47.1498 50.0848 47.5429 49.9126C47.9442 49.7405 48.4029 49.6544 48.9188 49.6544C49.6886 49.6544 50.307 49.8512 50.7738 50.2446C51.2488 50.6292 51.5027 51.1579 51.5355 51.8306H50.135C50.1104 51.5268 49.9876 51.2853 49.7665 51.1052C49.5453 50.9243 49.2464 50.8348 48.8697 50.8348C48.5011 50.8348 48.2186 50.9041 48.022 51.0438C47.8255 51.1825 47.7272 51.3669 47.7272 51.597C47.7272 51.7771 47.7927 51.929 47.9238 52.0519C48.0548 52.1749 48.2145 52.2733 48.4029 52.347C48.5913 52.412 48.8697 52.4981 49.2382 52.6052C49.7296 52.7361 50.1309 52.8713 50.4421 53.0109C50.7615 53.1418 51.0359 53.3385 51.2652 53.6011C51.4945 53.8628 51.6133 54.2114 51.6214 54.6462C51.6214 55.0308 51.515 55.3751 51.302 55.6789C51.0891 55.9819 50.7861 56.2199 50.393 56.392C50.008 56.5642 49.5535 56.6502 49.0294 56.6502ZM54.7685 50.9085V54.6584C54.7685 54.9122 54.8258 55.0967 54.9405 55.2117C55.0633 55.318 55.2681 55.3716 55.5547 55.3716H56.4147V56.5396H55.309C54.6784 56.5396 54.1953 56.392 53.8595 56.0969C53.5236 55.8019 53.3558 55.3224 53.3558 54.6584V50.9085H52.5573V49.7651H53.3558V48.0807H54.7685V49.7651H56.4147V50.9085H54.7685ZM66.4124 47.9946V49.1381H64.1397V56.5396H62.7393V49.1381H60.4543V47.9946H66.4124ZM69.2312 50.7487C69.4359 50.4044 69.7062 50.1374 70.042 49.9495C70.3859 49.7528 70.7913 49.6544 71.2582 49.6544V51.1052H70.9019C70.3531 51.1052 69.9354 51.244 69.6489 51.5233C69.3704 51.8017 69.2312 52.2855 69.2312 52.9741V56.5396H67.8307V49.7651H69.2312V50.7487ZM72.0786 53.1216C72.0786 52.441 72.2179 51.8385 72.4963 51.3142C72.783 50.7891 73.1678 50.3833 73.651 50.097C74.1424 49.802 74.6829 49.6544 75.2726 49.6544C75.805 49.6544 76.2677 49.7607 76.6608 49.9741C77.0621 50.1787 77.3815 50.4369 77.619 50.7487V49.7651H79.0317V56.5396H77.619V55.5314C77.3815 55.8511 77.058 56.1172 76.6485 56.3306C76.239 56.5431 75.7722 56.6502 75.248 56.6502C74.6665 56.6502 74.1343 56.5027 73.651 56.2076C73.1678 55.9037 72.783 55.4857 72.4963 54.9535C72.2179 54.4125 72.0786 53.8013 72.0786 53.1216ZM77.619 53.1462C77.619 52.679 77.5207 52.2733 77.3242 51.929C77.1358 51.5847 76.886 51.3221 76.5748 51.1421C76.2636 50.9612 75.9278 50.8716 75.5675 50.8716C75.2071 50.8716 74.8713 50.9612 74.5601 51.1421C74.2489 51.3142 73.995 51.5724 73.7985 51.9167C73.6101 52.2522 73.5159 52.6544 73.5159 53.1216C73.5159 53.5888 73.6101 53.998 73.7985 54.3511C73.995 54.7032 74.2489 54.9737 74.5601 55.1625C74.8795 55.3426 75.2153 55.433 75.5675 55.433C75.9278 55.433 76.2636 55.3426 76.5748 55.1625C76.886 54.9816 77.1358 54.7199 77.3242 54.3757C77.5207 54.0226 77.619 53.6134 77.619 53.1462ZM80.4044 53.1216C80.4044 52.441 80.5435 51.8385 80.822 51.3142C81.1086 50.7891 81.4936 50.3833 81.9768 50.097C82.4682 49.802 83.0128 49.6544 83.6107 49.6544C84.0529 49.6544 84.4869 49.7528 84.9128 49.9495C85.3468 50.1374 85.6908 50.3921 85.9448 50.7118V47.4414H87.3575V56.5396H85.9448V55.5191C85.7154 55.8467 85.396 56.1172 84.9866 56.3306C84.5852 56.5431 84.1225 56.6502 83.5984 56.6502C83.0087 56.6502 82.4682 56.5027 81.9768 56.2076C81.4936 55.9037 81.1086 55.4857 80.822 54.9535C80.5435 54.4125 80.4044 53.8013 80.4044 53.1216ZM85.9448 53.1462C85.9448 52.679 85.8465 52.2733 85.6499 51.929C85.4615 51.5847 85.2117 51.3221 84.9006 51.1421C84.5893 50.9612 84.2535 50.8716 83.8932 50.8716C83.5328 50.8716 83.197 50.9612 82.8859 51.1421C82.5746 51.3142 82.3208 51.5724 82.1242 51.9167C81.9358 52.2522 81.8417 52.6544 81.8417 53.1216C81.8417 53.5888 81.9358 53.998 82.1242 54.3511C82.3208 54.7032 82.5746 54.9737 82.8859 55.1625C83.2053 55.3426 83.541 55.433 83.8932 55.433C84.2535 55.433 84.5893 55.3426 84.9006 55.1625C85.2117 54.9816 85.4615 54.7199 85.6499 54.3757C85.8465 54.0226 85.9448 53.6134 85.9448 53.1462ZM89.9098 48.8676C89.6553 48.8676 89.443 48.7815 89.271 48.6094C89.099 48.4372 89.013 48.2238 89.013 47.97C89.013 47.7154 89.099 47.5028 89.271 47.3307C89.443 47.1586 89.6553 47.0725 89.9098 47.0725C90.1555 47.0725 90.3644 47.1586 90.5363 47.3307C90.7083 47.5028 90.7943 47.7154 90.7943 47.97C90.7943 48.2238 90.7083 48.4372 90.5363 48.6094C90.3644 48.7815 90.1555 48.8676 89.9098 48.8676ZM90.5978 49.7651V56.5396H89.1973V49.7651H90.5978ZM95.8512 49.6544C96.3838 49.6544 96.8586 49.7651 97.2762 49.9864C97.7018 50.2077 98.0335 50.5353 98.2713 50.97C98.5091 51.4038 98.6276 51.929 98.6276 52.5437V56.5396H97.2394V52.7527C97.2394 52.1459 97.0876 51.6831 96.7849 51.3634C96.4821 51.035 96.068 50.8716 95.5441 50.8716C95.0202 50.8716 94.6026 51.035 94.2911 51.3634C93.9883 51.6831 93.8365 52.1459 93.8365 52.7527V56.5396H92.4361V49.7651H93.8365V50.5397C94.0656 50.2604 94.3569 50.0435 94.7087 49.888C95.0694 49.7317 95.4502 49.6544 95.8512 49.6544ZM103.141 49.6544C103.665 49.6544 104.128 49.7607 104.529 49.9741C104.938 50.1787 105.258 50.4369 105.488 50.7487V49.7651H106.9V56.6502C106.9 57.2729 106.769 57.8261 106.507 58.31C106.245 58.8018 105.864 59.1865 105.365 59.4657C104.873 59.7441 104.284 59.8838 103.596 59.8838C102.678 59.8838 101.916 59.666 101.311 59.2321C100.705 58.8053 100.361 58.224 100.279 57.4863H101.667C101.773 57.8384 101.999 58.1212 102.343 58.3346C102.695 58.5559 103.112 58.6666 103.596 58.6666C104.161 58.6666 104.615 58.4945 104.959 58.1502C105.311 57.8059 105.488 57.3054 105.488 56.6502V55.5191C105.25 55.8388 104.926 56.1092 104.517 56.3306C104.115 56.5431 103.657 56.6502 103.141 56.6502C102.552 56.6502 102.011 56.5027 101.52 56.2076C101.036 55.9037 100.651 55.4857 100.365 54.9535C100.086 54.4125 99.9473 53.8013 99.9473 53.1216C99.9473 52.441 100.086 51.8385 100.365 51.3142C100.651 50.7891 101.036 50.3833 101.52 50.097C102.011 49.802 102.552 49.6544 103.141 49.6544ZM105.488 53.1462C105.488 52.679 105.389 52.2733 105.193 51.929C105.004 51.5847 104.754 51.3221 104.443 51.1421C104.132 50.9612 103.796 50.8716 103.436 50.8716C103.075 50.8716 102.739 50.9612 102.429 51.1421C102.117 51.3142 101.864 51.5724 101.667 51.9167C101.478 52.2522 101.385 52.6544 101.385 53.1216C101.385 53.5888 101.478 53.998 101.667 54.3511C101.864 54.7032 102.117 54.9737 102.429 55.1625C102.748 55.3426 103.083 55.433 103.436 55.433C103.796 55.433 104.132 55.3426 104.443 55.1625C104.754 54.9816 105.004 54.7199 105.193 54.3757C105.389 54.0226 105.488 53.6134 105.488 53.1462ZM117.078 54.7937H113.503L112.889 56.5396H111.427L114.486 47.9823H116.108L119.167 56.5396H117.693L117.078 54.7937ZM116.685 53.6503L115.297 49.679L113.897 53.6503H116.685ZM121.897 50.761C122.134 50.4492 122.458 50.1866 122.867 49.9741C123.277 49.7607 123.739 49.6544 124.255 49.6544C124.845 49.6544 125.382 49.802 125.864 50.097C126.356 50.3833 126.741 50.7891 127.019 51.3142C127.298 51.8385 127.437 52.441 127.437 53.1216C127.437 53.8013 127.298 54.4125 127.019 54.9535C126.741 55.4857 126.356 55.9037 125.864 56.2076C125.382 56.5027 124.845 56.6502 124.255 56.6502C123.739 56.6502 123.281 56.5475 122.879 56.3428C122.478 56.1294 122.151 55.8669 121.897 55.556V59.7608H120.496V49.7651H121.897V50.761ZM126.012 53.1216C126.012 52.6544 125.914 52.2522 125.717 51.9167C125.529 51.5724 125.275 51.3142 124.955 51.1421C124.645 50.9612 124.309 50.8716 123.948 50.8716C123.596 50.8716 123.26 50.9612 122.941 51.1421C122.63 51.3221 122.376 51.5847 122.179 51.929C121.991 52.2733 121.897 52.679 121.897 53.1462C121.897 53.6134 121.991 54.0226 122.179 54.3757C122.376 54.7199 122.63 54.9816 122.941 55.1625C123.26 55.3426 123.596 55.433 123.948 55.433C124.309 55.433 124.645 55.3426 124.955 55.1625C125.275 54.9737 125.529 54.7032 125.717 54.3511C125.914 53.998 126.012 53.5888 126.012 53.1216ZM130.223 50.761C130.46 50.4492 130.784 50.1866 131.193 49.9741C131.602 49.7607 132.066 49.6544 132.582 49.6544C133.171 49.6544 133.707 49.802 134.191 50.097C134.682 50.3833 135.067 50.7891 135.346 51.3142C135.624 51.8385 135.763 52.441 135.763 53.1216C135.763 53.8013 135.624 54.4125 135.346 54.9535C135.067 55.4857 134.682 55.9037 134.191 56.2076C133.707 56.5027 133.171 56.6502 132.582 56.6502C132.066 56.6502 131.607 56.5475 131.206 56.3428C130.804 56.1294 130.476 55.8669 130.223 55.556V59.7608H128.822V49.7651H130.223V50.761ZM134.338 53.1216C134.338 52.6544 134.24 52.2522 134.043 51.9167C133.855 51.5724 133.601 51.3142 133.282 51.1421C132.97 50.9612 132.634 50.8716 132.274 50.8716C131.922 50.8716 131.586 50.9612 131.267 51.1421C130.956 51.3221 130.702 51.5847 130.505 51.929C130.317 52.2733 130.223 52.679 130.223 53.1462C130.223 53.6134 130.317 54.0226 130.505 54.3757C130.702 54.7199 130.956 54.9816 131.267 55.1625C131.586 55.3426 131.922 55.433 132.274 55.433C132.634 55.433 132.97 55.3426 133.282 55.1625C133.601 54.9737 133.855 54.7032 134.043 54.3511C134.24 53.998 134.338 53.5888 134.338 53.1216ZM138.548 47.4414V56.5396H137.148V47.4414H138.548ZM141.099 48.8676C140.846 48.8676 140.632 48.7815 140.46 48.6094C140.288 48.4372 140.202 48.2238 140.202 47.97C140.202 47.7154 140.288 47.5028 140.46 47.3307C140.632 47.1586 140.846 47.0725 141.099 47.0725C141.345 47.0725 141.554 47.1586 141.726 47.3307C141.898 47.5028 141.984 47.7154 141.984 47.97C141.984 48.2238 141.898 48.4372 141.726 48.6094C141.554 48.7815 141.345 48.8676 141.099 48.8676ZM141.787 49.7651V56.5396H140.387V49.7651H141.787ZM143.16 53.1462C143.16 52.4489 143.299 51.8385 143.577 51.3142C143.864 50.7812 144.257 50.3711 144.757 50.0848C145.256 49.7976 145.83 49.6544 146.476 49.6544C147.295 49.6544 147.971 49.8512 148.503 50.2446C149.044 50.6292 149.408 51.1825 149.597 51.9044H148.086C147.963 51.568 147.766 51.3055 147.496 51.1175C147.226 50.9287 146.886 50.8348 146.476 50.8348C145.903 50.8348 145.444 51.0394 145.101 51.4495C144.764 51.8508 144.597 52.4164 144.597 53.1462C144.597 53.8751 144.764 54.445 145.101 54.8552C145.444 55.2644 145.903 55.4699 146.476 55.4699C147.287 55.4699 147.823 55.1134 148.086 54.4003H149.597C149.4 55.0888 149.032 55.6376 148.491 56.0478C147.951 56.4491 147.279 56.6502 146.476 56.6502C145.83 56.6502 145.256 56.5062 144.757 56.2199C144.257 55.9248 143.864 55.5147 143.577 54.9904C143.299 54.4573 143.16 53.8426 143.16 53.1462ZM150.525 53.1216C150.525 52.441 150.665 51.8385 150.943 51.3142C151.23 50.7891 151.615 50.3833 152.098 50.097C152.589 49.802 153.129 49.6544 153.719 49.6544C154.252 49.6544 154.714 49.7607 155.107 49.9741C155.509 50.1787 155.829 50.4369 156.065 50.7487V49.7651H157.478V56.5396H156.065V55.5314C155.829 55.8511 155.505 56.1172 155.095 56.3306C154.686 56.5431 154.219 56.6502 153.695 56.6502C153.114 56.6502 152.581 56.5027 152.098 56.2076C151.615 55.9037 151.23 55.4857 150.943 54.9535C150.665 54.4125 150.525 53.8013 150.525 53.1216ZM156.065 53.1462C156.065 52.679 155.967 52.2733 155.771 51.929C155.583 51.5847 155.333 51.3221 155.021 51.1421C154.711 50.9612 154.375 50.8716 154.014 50.8716C153.654 50.8716 153.318 50.9612 153.007 51.1421C152.696 51.3142 152.441 51.5724 152.245 51.9167C152.057 52.2522 151.962 52.6544 151.962 53.1216C151.962 53.5888 152.057 53.998 152.245 54.3511C152.441 54.7032 152.696 54.9737 153.007 55.1625C153.326 55.3426 153.662 55.433 154.014 55.433C154.375 55.433 154.711 55.3426 155.021 55.1625C155.333 54.9816 155.583 54.7199 155.771 54.3757C155.967 54.0226 156.065 53.6134 156.065 53.1462ZM160.952 50.9085V54.6584C160.952 54.9122 161.009 55.0967 161.124 55.2117C161.247 55.318 161.451 55.3716 161.738 55.3716H162.598V56.5396H161.493C160.862 56.5396 160.378 56.392 160.043 56.0969C159.707 55.8019 159.539 55.3224 159.539 54.6584V50.9085H158.741V49.7651H159.539V48.0807H160.952V49.7651H162.598V50.9085H160.952ZM164.602 48.8676C164.347 48.8676 164.135 48.7815 163.963 48.6094C163.791 48.4372 163.705 48.2238 163.705 47.97C163.705 47.7154 163.791 47.5028 163.963 47.3307C164.135 47.1586 164.347 47.0725 164.602 47.0725C164.847 47.0725 165.056 47.1586 165.228 47.3307C165.4 47.5028 165.486 47.7154 165.486 47.97C165.486 48.2238 165.4 48.4372 165.228 48.6094C165.056 48.7815 164.847 48.8676 164.602 48.8676ZM165.29 49.7651V56.5396H163.889V49.7651H165.29ZM170.064 56.6502C169.425 56.6502 168.848 56.5062 168.332 56.2199C167.816 55.9248 167.41 55.5147 167.116 54.9904C166.821 54.4573 166.673 53.8426 166.673 53.1462C166.673 52.4577 166.825 51.8464 167.128 51.3142C167.431 50.7812 167.845 50.3711 168.369 50.0848C168.892 49.7976 169.479 49.6544 170.125 49.6544C170.772 49.6544 171.358 49.7976 171.882 50.0848C172.406 50.3711 172.82 50.7812 173.123 51.3142C173.425 51.8464 173.577 52.4577 173.577 53.1462C173.577 53.8347 173.422 54.445 173.11 54.9781C172.799 55.5103 172.373 55.9248 171.833 56.2199C171.3 56.5062 170.711 56.6502 170.064 56.6502ZM170.064 55.433C170.425 55.433 170.76 55.347 171.071 55.1748C171.391 55.0027 171.649 54.7445 171.845 54.4003C172.042 54.056 172.14 53.638 172.14 53.1462C172.14 52.6544 172.046 52.2399 171.857 51.9044C171.669 51.5601 171.42 51.302 171.108 51.1298C170.797 50.9577 170.461 50.8716 170.101 50.8716C169.74 50.8716 169.405 50.9577 169.093 51.1298C168.791 51.302 168.548 51.5601 168.369 51.9044C168.189 52.2399 168.098 52.6544 168.098 53.1462C168.098 53.8751 168.283 54.4407 168.651 54.8429C169.028 55.2363 169.499 55.433 170.064 55.433ZM178.377 49.6544C178.909 49.6544 179.384 49.7651 179.802 49.9864C180.228 50.2077 180.559 50.5353 180.797 50.97C181.034 51.4038 181.153 51.929 181.153 52.5437V56.5396H179.765V52.7527C179.765 52.1459 179.613 51.6831 179.311 51.3634C179.007 51.035 178.594 50.8716 178.07 50.8716C177.545 50.8716 177.128 51.035 176.817 51.3634C176.513 51.6831 176.362 52.1459 176.362 52.7527V56.5396H174.962V49.7651H176.362V50.5397C176.591 50.2604 176.882 50.0435 177.235 49.888C177.594 49.7317 177.975 49.6544 178.377 49.6544ZM90.6162 75.4385C91.5147 74.6605 92.2211 74.0238 92.7362 73.5276C93.26 73.0217 93.6953 72.4966 94.0419 71.9538C94.3885 71.4102 94.5613 70.8666 94.5613 70.3239C94.5613 69.7618 94.4253 69.321 94.1542 69.0031C93.8918 68.6843 93.4759 68.5253 92.9046 68.5253C92.3527 68.5253 91.9219 68.7027 91.613 69.0593C91.3138 69.4053 91.1541 69.8742 91.1357 70.4644H89.5913C89.6194 69.3965 89.9379 68.5815 90.546 68.0195C91.1637 67.4478 91.9456 67.1623 92.8906 67.1623C93.9111 67.1623 94.7061 67.4434 95.2773 68.0054C95.8574 68.5675 96.1478 69.3166 96.1478 70.2536C96.1478 70.9281 95.9749 71.5788 95.6283 72.2068C95.2914 72.825 94.8842 73.3818 94.4069 73.8789C93.9392 74.3654 93.3399 74.9327 92.6098 75.5791L91.978 76.1411H96.4286V77.476H89.6053V76.3097L90.6162 75.4385ZM97.9747 72.3613C97.9747 70.7401 98.2467 69.4755 98.789 68.5675C99.3418 67.6489 100.287 67.1904 101.625 67.1904C102.964 67.1904 103.905 67.6489 104.447 68.5675C105 69.4755 105.275 70.7401 105.275 72.3613C105.275 74 105 75.284 104.447 76.2114C103.905 77.1291 102.964 77.5884 101.625 77.5884C100.287 77.5884 99.3418 77.1291 98.789 76.2114C98.2467 75.284 97.9747 74 97.9747 72.3613ZM103.703 72.3613C103.703 71.6025 103.652 70.9606 103.548 70.4363C103.455 69.9111 103.259 69.4852 102.959 69.1576C102.66 68.8204 102.215 68.6518 101.625 68.6518C101.035 68.6518 100.591 68.8204 100.291 69.1576C99.992 69.4852 99.7911 69.9111 99.6875 70.4363C99.5945 70.9606 99.5471 71.6025 99.5471 72.3613C99.5471 73.1482 99.5945 73.8086 99.6875 74.3426C99.7814 74.8765 99.978 75.3068 100.277 75.6353C100.586 75.9628 101.035 76.1271 101.625 76.1271C102.215 76.1271 102.66 75.9628 102.959 75.6353C103.268 75.3068 103.469 74.8765 103.562 74.3426C103.656 73.8086 103.703 73.1482 103.703 72.3613ZM107.994 75.4385C108.892 74.6605 109.6 74.0238 110.114 73.5276C110.638 73.0217 111.074 72.4966 111.419 71.9538C111.766 71.4102 111.939 70.8666 111.939 70.3239C111.939 69.7618 111.804 69.321 111.532 69.0031C111.27 68.6843 110.853 68.5253 110.282 68.5253C109.73 68.5253 109.299 68.7027 108.991 69.0593C108.691 69.4053 108.533 69.8742 108.513 70.4644H106.969C106.997 69.3965 107.315 68.5815 107.924 68.0195C108.541 67.4478 109.323 67.1623 110.268 67.1623C111.289 67.1623 112.085 67.4434 112.655 68.0054C113.236 68.5675 113.525 69.3166 113.525 70.2536C113.525 70.9281 113.353 71.5788 113.006 72.2068C112.669 72.825 112.262 73.3818 111.784 73.8789C111.317 74.3654 110.717 74.9327 109.987 75.5791L109.356 76.1411H113.806V77.476H106.983V76.3097L107.994 75.4385ZM115.016 75.4807V74.2723L119.734 67.4996H121.671V74.0896H122.977V75.4807H121.671V77.6165H120.099V75.4807H115.016ZM120.169 69.1295L116.855 74.0896H120.169V69.1295Z" fill="#989898"/>
<path d="M212.235 56.4886C212.153 56.421 212.035 56.399 211.942 56.4306C211.829 56.4649 211.727 56.4956 211.628 56.5237L211.581 56.5378C211.34 56.608 211.132 56.6686 210.927 56.7512C207.675 58.0439 205.116 60.2596 203.101 63.523C202.603 64.3292 202.218 65.1679 201.911 66.0031C202.415 63.1919 202.531 62.0959 202.62 58.9502C202.624 58.8185 202.624 58.6841 202.624 58.5506C202.624 58.187 202.624 57.8428 202.704 57.5293C202.799 57.1578 202.991 56.7863 203.176 56.428C203.228 56.3261 203.281 56.2251 203.324 56.1356C203.339 56.118 203.387 56.089 203.405 56.0855C204.336 55.9432 205.158 55.5489 205.92 54.878C206.688 54.1991 207.32 53.3683 207.798 52.4076C209.514 48.9641 210.373 45.158 210.351 41.0954C210.349 40.7037 210.302 40.3226 210.252 39.9072C210.229 39.7219 210.206 39.5313 210.187 39.3346C210.175 39.2266 210.108 39.1309 210.013 39.0843C209.918 39.0378 209.803 39.0413 209.707 39.0993C209.649 39.1353 209.6 39.1651 209.554 39.1915C209.467 39.2433 209.4 39.2837 209.338 39.3294C207.874 40.3797 206.584 41.6864 205.501 43.2136C203.734 45.7095 202.706 48.5321 202.429 51.6365C202.402 51.2905 202.373 50.9445 202.345 50.5985L202.336 50.4729C202.227 49.1161 202.116 47.7127 202.023 46.333C202.001 45.9835 201.934 45.6436 201.869 45.3152C201.743 44.6829 201.625 44.0857 201.815 43.4595C201.858 43.3181 201.894 43.1759 201.93 43.0336C202.02 42.6823 202.452 42.1396 203.115 41.5477L203.14 41.5249C203.385 41.3176 204.642 40.1663 205.355 37.89C206.078 35.5777 206.024 33.1608 205.984 31.3965L205.983 31.3491C205.93 28.9235 205.668 27.096 205.134 25.4212C205.065 25.2078 204.983 24.9962 204.896 24.774C204.851 24.6589 204.805 24.5395 204.758 24.4148C204.719 24.3085 204.625 24.2321 204.516 24.2137L204.463 24.2093C204.368 24.2093 204.279 24.2514 204.22 24.3252L203.7 24.9575C201.213 27.9944 199.99 31.5563 200.067 35.5443C200.081 36.246 200.133 36.967 200.226 37.7099C199.594 35.5267 198.852 33.4006 198.009 31.3552C197.991 31.3105 197.98 31.2551 197.978 31.2077L197.973 30.9284C197.964 30.5245 197.955 30.1073 197.972 29.6963C197.975 29.6287 198.019 29.5066 198.111 29.3863C198.241 29.2133 198.385 29.0456 198.535 28.8699C198.79 28.5731 199.054 28.2666 199.263 27.9162C199.935 26.7895 200.25 25.4581 200.255 23.7263C200.265 21.6871 199.951 19.5416 199.266 16.9738C198.892 15.573 198.327 13.7525 197.276 12.1024C197.204 11.9917 197.125 11.8872 197.04 11.7765C197.002 11.7282 196.961 11.6755 196.921 11.6193C196.861 11.5394 196.779 11.4929 196.646 11.4929C196.54 11.5008 196.445 11.5605 196.393 11.6545C195.073 14.0379 194.416 16.5847 194.384 19.4398C194.358 21.8206 194.729 23.8694 195.195 25.488C194.009 23.3206 192.692 21.2269 191.265 19.2413L191.232 19.1956C191.2 19.1526 191.186 19.1315 191.188 19.1464C191.099 18.5036 191.036 17.9898 190.993 17.542C190.994 17.5349 191.002 17.498 191.07 17.3865C191.164 17.2249 191.267 17.0677 191.377 16.9009C191.597 16.5654 191.824 16.2185 191.971 15.8295C192.411 14.6571 192.51 13.3266 192.272 11.7643C191.751 8.30676 190.227 5.19351 187.617 2.24626C187.348 1.94328 187.052 1.67542 186.738 1.39264L186.651 1.31449C186.528 1.20296 186.402 1.08878 186.274 0.968467C186.194 0.891185 186.078 0.862211 185.965 0.895583C185.858 0.929833 185.777 1.01766 185.751 1.12744L185.694 1.37771C185.656 1.54369 185.625 1.67455 185.603 1.80628C185.252 3.90519 185.278 6.1534 185.682 8.67912C186.083 11.1846 186.882 13.3459 188.109 15.2226C186.27 13.0534 184.48 11.2321 182.61 9.61704C182.602 9.6065 182.59 9.57313 182.589 9.56435C182.735 8.30412 182.424 7.11679 181.639 5.9356C180.607 4.38205 179.174 3.19735 177.378 2.41663C176.304 1.9503 175.19 1.53755 174.1 1.1327C173.578 0.938619 173.056 0.745412 172.518 0.538155C171.978 0.322995 171.747 0.285227 171.621 0.40115C171.46 0.551323 171.499 0.680426 171.57 0.913151L171.592 0.989546C172.251 3.2114 173.125 4.96783 174.266 6.36066C176.36 8.91975 178.808 10.2195 181.748 10.3345C181.851 10.3407 181.933 10.3688 181.966 10.3951C182.38 10.7051 182.685 10.9528 182.954 11.1987C183.805 11.9785 184.644 12.8084 185.465 13.6822C184.245 12.9235 182.752 12.581 181.073 12.6662C180.153 12.7127 179.241 12.8471 178.358 12.9779L178.324 12.9832C178.063 13.021 177.803 13.0587 177.544 13.0956C176.978 13.1729 176.405 13.273 175.901 13.3617C175.696 13.3977 175.208 13.5092 175.095 13.7464C175.057 13.8271 175.059 13.9167 175.104 13.9975C175.143 14.0678 175.186 14.1336 175.232 14.1942C176.69 16.0868 178.353 17.3329 180.315 18.0048C182.708 18.8268 184.906 18.7591 186.882 17.7914C187.183 17.6254 187.548 17.5411 187.964 17.5411C188.278 17.5411 188.514 17.5903 188.592 17.6087C188.709 17.628 188.867 17.693 188.9 17.7352C190.128 19.3519 191.294 21.0785 192.383 22.892C191.463 21.9962 190.263 21.3929 188.63 20.9995C187.197 20.6578 185.733 20.5849 184.317 20.5138L183.843 20.4892C183.399 20.4664 182.955 20.4383 182.498 20.4093L181.731 20.3619C181.632 20.3619 181.537 20.4102 181.48 20.4901C181.416 20.5762 181.4 20.6877 181.438 20.7878C181.468 20.8712 181.525 21.0188 181.554 21.0688C183.047 23.5682 184.8 25.2965 186.913 26.3548C188.98 27.3875 190.846 27.6606 192.728 27.2101C192.946 27.1574 193.199 27.1293 193.46 27.1293C194.26 27.1293 194.819 27.3735 194.936 27.6C195.972 29.7385 196.896 31.9612 197.694 34.2279C196.858 33.0739 195.688 32.1368 194.208 31.436C192.737 30.7414 191.206 30.1064 189.698 29.4812C189.052 29.2133 188.401 28.9446 187.754 28.6688C187.657 28.6267 187.544 28.6354 187.454 28.6952C187.366 28.754 187.313 28.8515 187.313 28.9569C187.313 29.1597 189.462 35.128 192.583 37.4807C193.856 38.4397 195.424 39.4268 197.402 39.4734C197.993 39.4857 198.605 39.5691 199.067 40.0951C199.138 40.1786 199.231 40.2436 199.334 40.2787C199.492 40.3305 199.535 40.4271 199.613 40.7564C200.254 43.4473 200.719 46.2215 201.006 49.0379C200.92 48.7516 200.819 48.4636 200.704 48.1711C200.005 46.398 198.829 44.8471 197.004 43.2892C196.064 42.483 195.078 41.7023 194.125 40.947L194.08 40.911C193.646 40.5667 193.213 40.2242 192.781 39.8765C192.692 39.8053 192.605 39.7316 192.505 39.6446L192.235 39.4137C192.14 39.3337 192 39.3179 191.89 39.3724C191.777 39.4303 191.71 39.5489 191.718 39.6754C191.731 39.8659 191.742 40.046 191.752 40.219L191.757 40.2998C191.779 40.6554 191.799 40.9918 191.835 41.3229C192.172 44.5503 193.131 47.2455 194.767 49.5613C195.778 50.9928 197.231 52.7422 199.494 53.5694C200.046 53.7723 200.446 54.0788 200.874 54.6286C201.278 55.1441 201.353 55.6148 201.343 56.2067C201.305 58.6885 201.128 61.1492 200.817 63.5599C200.744 62.8889 200.59 62.1987 200.353 61.4812C199.862 59.9953 199.098 58.5506 198.016 57.0656C197.081 55.779 196.11 54.488 195.17 53.2384L195.107 53.1549C194.735 52.6605 194.362 52.1652 194 51.6804C193.931 51.5812 193.833 51.5452 193.777 51.5259C193.696 51.4863 193.6 51.4828 193.515 51.5188C193.431 51.5548 193.367 51.6251 193.339 51.7112L193.328 51.7445C193.313 51.7902 193.3 51.8306 193.293 51.871C192.646 55.7395 193.043 59.2049 194.51 62.4674C195.225 64.0631 196.186 65.8687 197.878 67.1684C198.651 67.7621 199.262 68.5938 199.597 69.5115C199.668 69.7091 199.666 69.7951 199.657 69.8276C198.941 72.7986 198.005 75.6642 196.866 78.3752C197.16 76.9464 197.139 75.4455 196.805 73.8902C196.33 71.685 195.514 69.5492 194.786 67.7199L194.568 67.172C194.227 66.3148 193.883 65.4507 193.529 64.5549C193.483 64.4398 193.375 64.3617 193.23 64.3547C193.116 64.3547 193.011 64.4205 192.956 64.5259L192.842 64.7411C192.791 64.8359 192.745 64.9238 192.705 65.0142C191.24 68.3206 190.746 71.7105 191.236 75.089C191.586 77.5049 192.178 79.235 193.158 80.6989C193.665 81.4551 194.148 82.2981 194.235 83.3344C194.256 83.5795 194.246 83.7481 194.137 83.9404C192.901 86.1069 191.515 88.1523 189.998 90.051C190.003 90.0413 190.009 90.0308 190.014 90.0202C191.107 88.0232 191.139 85.8637 191.028 84.0142C190.932 82.429 190.75 80.8465 190.576 79.3158L190.565 79.2271C190.495 78.6141 190.425 78.002 190.361 77.3872C190.324 77.0395 190.283 76.6917 190.241 76.3378L190.184 75.86C190.172 75.7547 190.108 75.6624 190.015 75.6168C189.842 75.5263 189.563 75.666 189.262 76.0225C187.19 78.4745 185.906 81.2452 185.442 84.2583C184.96 87.3821 185.221 90.0562 186.24 92.4318C186.267 92.495 186.267 92.6241 186.267 92.6671L186.211 94.0336C186.203 94.132 186.152 94.2435 186.109 94.2848C184.04 96.2783 181.763 98.011 179.32 99.4539C180.476 98.4071 181.308 97.0415 181.847 95.3114C182.444 93.3943 182.75 91.3981 183.048 89.4625L183.073 89.2904C183.179 88.6107 183.289 87.9318 183.401 87.2389L183.528 86.4547C183.546 86.3405 183.501 86.2264 183.412 86.1579C183.324 86.0876 183.198 86.0709 183.096 86.1148L182.986 86.1605C182.868 86.2088 182.765 86.2518 182.668 86.301C178.049 88.6107 175.008 93.9967 175.438 99.107C175.504 99.9079 175.431 100.66 175.213 101.404C175.193 101.472 175.127 101.546 175.101 101.558C172.906 102.485 170.82 103.16 168.72 103.624C168.613 103.649 168.527 103.725 168.492 103.83C168.457 103.935 168.478 104.049 168.55 104.135C168.778 104.405 168.978 104.696 169.141 105.001C169.207 105.125 169.367 105.189 169.487 105.158C171.198 104.767 172.863 104.261 174.439 103.653C174.566 103.603 174.664 103.578 174.755 103.593C175.105 103.639 175.476 103.711 175.887 103.814C175.972 103.834 176.042 103.874 176.044 103.87C176.942 105.663 178.486 106.804 180.766 107.36C181.261 107.479 181.773 107.567 182.285 107.621C182.822 107.677 183.421 107.706 184.064 107.706C184.956 107.706 185.591 107.651 185.599 107.651C187.575 107.43 189.262 106.985 190.757 106.29C191.37 106.005 192.068 105.622 192.605 104.938C192.708 104.807 192.691 104.619 192.566 104.508C191.048 103.168 189.503 102.194 187.84 101.531C185.377 100.551 183.134 100.286 180.935 100.709C180.606 100.773 180.285 100.853 179.973 100.946C182.03 99.7147 184 98.2683 185.86 96.6208C185.895 96.5883 185.954 96.5602 186 96.5514C186.304 96.5014 186.709 96.439 187.122 96.4091C187.161 96.4091 187.209 96.4276 187.214 96.4294C188.336 97.6852 189.779 98.2947 191.629 98.2947C191.724 98.2947 191.817 98.2929 191.912 98.2894C193.923 98.2253 195.945 97.672 197.922 96.6454C199.359 95.8945 200.857 95.0216 202.072 93.7183C202.341 93.4294 202.581 93.1018 202.794 92.812L202.815 92.7839C202.909 92.6566 203.004 92.5284 203.102 92.401C203.154 92.3334 203.177 92.2447 203.163 92.156C203.148 92.07 203.098 91.9944 203.014 91.9391C202.992 91.9268 202.478 91.651 202.008 91.4692C198.864 90.2529 195.69 90.1282 192.661 91.1057C191.67 91.4245 190.736 91.9031 189.828 92.5644C191.509 90.6095 193.064 88.4675 194.476 86.1614C194.492 86.1368 194.531 86.0709 194.545 86.0595C194.668 85.9805 194.795 85.9058 194.921 85.832C195.147 85.6994 195.381 85.5625 195.6 85.3991C195.785 85.2604 195.838 85.2568 196.025 85.3772C196.29 85.5502 196.599 85.6389 196.867 85.71C198.439 86.1122 200.024 85.912 201.777 85.0882C203.377 84.3365 204.608 83.1491 205.701 81.9785C207.289 80.2704 208.327 78.7291 208.968 77.1282C209.103 76.7918 209.199 76.4449 209.299 76.0813C209.34 75.9285 209.382 75.7766 209.427 75.6264C209.475 75.4657 209.39 75.2954 209.231 75.2392L209.099 75.2295C208.452 75.2295 202.672 75.3243 199.292 78.6071C198.556 79.321 197.897 80.0798 197.296 80.9115C198.632 78.0766 199.767 75.0898 200.68 71.9889L200.694 71.9432C200.705 71.9055 200.721 71.8484 200.733 71.8326L201.616 70.6172C201.65 70.5689 201.653 70.5689 201.705 70.5689C201.729 70.5689 201.753 70.5706 201.782 70.5724L201.972 70.5838C202.629 70.6242 203.017 70.6189 203.335 70.5689C204.594 70.3695 205.73 69.7354 206.808 68.6289C209.33 66.0399 211.067 62.8108 212.115 58.757C212.228 58.3223 212.259 57.8841 212.292 57.4186C212.307 57.2078 212.324 56.99 212.348 56.7661C212.358 56.6581 212.316 56.5553 212.235 56.4886Z" fill="#989898"/>
<path d="M43.6284 103.621C41.5311 103.157 39.4452 102.482 37.2503 101.555C37.2241 101.543 37.1589 101.469 37.1384 101.404C36.9197 100.657 36.8465 99.9053 36.9139 99.1044C37.3436 93.9932 34.3026 88.6081 29.6837 86.2993C29.5856 86.2492 29.4832 86.2062 29.3651 86.1579L29.2556 86.1122C29.1516 86.0674 29.0248 86.0859 28.9409 86.1535C28.8501 86.2238 28.8051 86.338 28.8236 86.4521L28.95 87.2363C29.0621 87.9292 29.172 88.6081 29.2773 89.2878L29.3039 89.4652C29.6005 91.3955 29.9071 93.3917 30.5044 95.3097C31.0434 97.0398 31.8751 98.4045 33.0318 99.4513C30.588 98.0084 28.3108 96.2757 26.2427 94.2822C26.1993 94.2409 26.1478 94.1294 26.1403 94.0381L26.0849 92.6707C26.0846 92.6215 26.0839 92.4924 26.1114 92.4283C27.1301 90.0536 27.3911 87.3804 26.9098 84.2557C26.4456 81.2426 25.1603 78.4719 23.0889 76.0199C22.8464 75.7327 22.6325 75.5878 22.453 75.5878C22.4092 75.5878 22.3697 75.5966 22.3386 75.6124C22.2433 75.6598 22.1788 75.752 22.1661 75.8583L22.1108 76.3352C22.0679 76.6891 22.0268 77.0369 21.9898 77.3855C21.926 77.9994 21.8559 78.6124 21.7857 79.2254L21.7756 79.3132C21.6006 80.8439 21.4191 82.4273 21.3231 84.0125C21.2117 85.8611 21.2447 88.0206 22.3366 90.0176C22.3425 90.0282 22.3477 90.0387 22.3535 90.0484C20.8357 88.1488 19.4502 86.1052 18.2141 83.9387C18.1048 83.7464 18.0954 83.5769 18.1158 83.3318C18.2036 82.2947 18.6853 81.4525 19.1925 80.6963C20.1722 79.2333 20.7654 77.5032 21.1157 75.0873C21.6054 71.7079 21.1109 68.3189 19.6465 65.0125C19.6064 64.9211 19.5594 64.8333 19.5091 64.7385L19.3947 64.5224C19.34 64.4171 19.223 64.3477 19.0994 64.3538C18.9763 64.36 18.8678 64.4381 18.823 64.5514C18.4678 65.4481 18.1242 66.3122 17.783 67.1694L17.5648 67.7174C16.837 69.5467 16.0205 71.6833 15.546 73.8876C15.2115 75.4429 15.1911 76.9438 15.4844 78.3735C14.3461 75.6616 13.4105 72.7969 12.6939 69.8259C12.6858 69.7926 12.6831 69.7074 12.7541 69.5098C13.0893 68.5912 13.6996 67.7595 14.4728 67.1659C16.1657 65.8661 17.126 64.0605 17.8419 62.4648C19.3078 59.2023 19.7056 55.7369 19.0573 51.8684C19.0506 51.828 19.0382 51.7876 19.0236 51.7437L19.012 51.7085C18.9838 51.6225 18.9196 51.5522 18.8347 51.5153C18.7517 51.4811 18.6474 51.4872 18.5829 51.5189C18.518 51.5426 18.4198 51.5786 18.356 51.6725C17.9891 52.1626 17.6167 52.6579 17.244 53.1523L17.1814 53.2357C16.2415 54.4854 15.2695 55.7764 14.3354 57.0621C13.2532 58.548 12.489 59.9927 11.9987 61.4786C11.7621 62.1961 11.6074 62.8863 11.5345 63.5573C11.2231 61.1466 11.0465 58.6859 11.0079 56.2041C10.9988 55.6122 11.074 55.1415 11.4782 54.6259C11.906 54.0762 12.3056 53.7697 12.8566 53.5668C15.1204 52.7396 16.5727 50.9902 17.5849 49.5587C19.2201 47.2429 20.1791 44.5485 20.5168 41.3211C20.5528 40.9883 20.5732 40.6528 20.5942 40.2971L20.5994 40.2164C20.6095 40.0433 20.6202 39.8633 20.6338 39.6727C20.6422 39.5463 20.5745 39.4277 20.4614 39.3698C20.3519 39.3144 20.2115 39.3311 20.1162 39.4119L19.8475 39.642C19.7464 39.7281 19.6599 39.8027 19.5701 39.8747C19.1387 40.2207 18.7057 40.5641 18.2717 40.9084L18.2263 40.9444C17.2738 41.6996 16.2885 42.4804 15.3476 43.2866C13.5219 44.8445 12.3465 46.3963 11.648 48.1685C11.5326 48.4609 11.4315 48.7499 11.3446 49.0362C11.6318 46.2189 12.0982 43.4446 12.7386 40.7538C12.8164 40.4245 12.8598 40.3279 13.0196 40.2752C13.12 40.2409 13.2138 40.1759 13.2821 40.0943C13.7466 39.5665 14.3582 39.4822 14.9506 39.4708C16.9277 39.4242 18.4956 38.4371 19.7684 37.4772C22.8893 35.1254 25.038 29.1571 25.038 28.9542C25.038 28.8489 24.9856 28.7505 24.8964 28.6917C24.8086 28.6328 24.6899 28.6249 24.6005 28.6653C23.9503 28.9411 23.3002 29.2098 22.6271 29.4882C21.1459 30.1029 19.6145 30.7388 18.1437 31.4325C16.6635 32.1342 15.4938 33.0713 14.6576 34.2244C15.4546 31.9586 16.3786 29.7367 17.4132 27.6009C17.5321 27.3708 18.0909 27.1258 18.8921 27.1258C19.1526 27.1258 19.4051 27.1539 19.6232 27.2066C21.5057 27.658 23.3721 27.384 25.438 26.3513C27.5515 25.2939 29.3049 23.5647 30.7983 21.0645C30.8268 21.0162 30.8829 20.8686 30.9131 20.7861C30.951 20.6842 30.9357 20.5727 30.8729 20.4883C30.8146 20.4076 30.7212 20.3601 30.6023 20.3601H30.5997L29.8536 20.4067C29.3963 20.4357 28.9523 20.4638 28.5082 20.4866L28.0341 20.5103C26.6184 20.5823 25.154 20.6552 23.7215 20.9968C22.0877 21.3903 20.8882 21.9936 19.9684 22.8885C21.0571 21.075 22.2229 19.3493 23.4509 17.7334C23.4839 17.6904 23.6425 17.6245 23.7724 17.6034C23.8372 17.5876 24.0732 17.5385 24.3869 17.5385C24.803 17.5385 25.1674 17.6228 25.4762 17.7931C27.4387 18.753 29.6426 18.825 32.0355 18.0022C33.9982 17.3312 35.6606 16.0842 37.1177 14.1925C37.165 14.131 37.2079 14.0652 37.2467 13.9949C37.2911 13.9141 37.294 13.8254 37.2551 13.7437C37.1424 13.5075 36.6543 13.396 36.4488 13.3591C35.9445 13.2713 35.373 13.1703 34.8065 13.0939C34.547 13.057 34.287 13.0192 34.0265 12.9806L33.993 12.9753C33.1102 12.8453 32.1975 12.7101 31.278 12.6635C29.5978 12.5775 28.106 12.9209 26.8851 13.6805C27.7061 12.8058 28.5449 11.9759 29.3966 11.1969C29.6659 10.951 29.9706 10.7034 30.3857 10.3925C30.4178 10.367 30.4995 10.3389 30.5997 10.3328C33.5422 10.2177 35.9908 8.91711 38.0845 6.3589C39.2251 4.96607 40.0995 3.20878 40.7584 0.9878L40.7811 0.911405C40.8514 0.677802 40.8903 0.549578 40.7286 0.399405C40.6038 0.282603 40.3841 0.317733 39.813 0.543431C39.2944 0.743662 38.7727 0.936864 38.2369 1.13534C37.1606 1.53492 36.0472 1.94769 34.9728 2.41401C33.1772 3.19562 31.7434 4.37944 30.7118 5.93298C29.9262 7.11505 29.6157 8.30238 29.7618 9.55734C29.7609 9.57139 29.7486 9.60476 29.7467 9.60827C27.8724 11.2277 26.0806 13.0517 24.2411 15.2218C25.4678 13.3442 26.2674 11.1829 26.6686 8.67738C27.0731 6.15166 27.0987 3.90345 26.7474 1.80454C26.725 1.67369 26.6949 1.54195 26.6563 1.37772L26.599 1.12392C26.573 1.01502 26.4913 0.927209 26.3841 0.893837C26.2768 0.862222 26.1566 0.890318 26.0764 0.966722C25.9482 1.08704 25.8224 1.20121 25.6996 1.31275L25.613 1.3909C25.2986 1.67456 25.0018 1.94153 24.7331 2.24451C22.1224 5.19177 20.5997 8.305 20.0783 11.7625C19.8407 13.3248 19.9393 14.6553 20.3797 15.8286C20.5255 16.2168 20.753 16.5636 20.9796 16.9088C21.0833 17.066 21.187 17.2241 21.282 17.3856C21.352 17.5024 21.3578 17.5323 21.3575 17.527C21.3145 17.989 21.2525 18.5045 21.1689 19.1227C21.1653 19.1307 21.1536 19.1482 21.1164 19.1983L21.0862 19.2395C19.6586 21.226 18.3414 23.3197 17.1562 25.4871C17.6222 23.8686 17.9933 21.8197 17.9671 19.4389C17.9353 16.583 17.2783 14.0371 15.958 11.6519C15.9058 11.5596 15.8111 11.499 15.6786 11.4903C15.5823 11.4903 15.4896 11.5377 15.429 11.6194C15.3895 11.6747 15.3493 11.7265 15.311 11.7757C15.2258 11.8855 15.1461 11.99 15.0747 12.1015C14.0233 13.7516 13.4595 15.5713 13.0851 16.972C12.4009 19.5416 12.0865 21.6871 12.0956 23.7245C12.1008 25.4564 12.4161 26.7877 13.0883 27.9145C13.2974 28.2649 13.5605 28.5713 13.825 28.8805C13.9653 29.0438 14.1096 29.2124 14.2401 29.3854C14.3316 29.5049 14.3756 29.6278 14.3783 29.6955C14.3955 30.1065 14.3863 30.5236 14.3776 30.9276L14.3714 31.206C14.3704 31.2543 14.3595 31.3096 14.3429 31.3517C13.4989 33.398 12.7571 35.525 12.1245 37.7091C12.2175 36.9652 12.2699 36.2451 12.2833 35.5425C12.3597 31.5546 11.1376 27.9935 8.64971 24.9567L8.13114 24.3243C8.07118 24.2497 7.98238 24.2076 7.88774 24.2076L7.83588 24.2119C7.72504 24.2304 7.63169 24.3077 7.59313 24.4122C7.54581 24.5386 7.49946 24.6581 7.45441 24.7731C7.36755 24.9953 7.28556 25.2061 7.21619 25.4203C6.68239 27.0942 6.42052 28.9226 6.36736 31.3474L6.36639 31.3948C6.32652 33.1591 6.27175 35.5759 6.9958 37.8882C7.70851 40.1654 8.96536 41.3159 9.20913 41.5222L9.23501 41.546C9.89847 42.1387 10.3305 42.6806 10.42 43.0328C10.4559 43.1741 10.4925 43.3173 10.5353 43.4578C10.7246 44.084 10.6063 44.6811 10.4787 45.3257C10.4151 45.6507 10.349 45.987 10.326 46.3313C10.2345 47.7118 10.1224 49.1152 10.0139 50.472L10.0041 50.5967C9.97631 50.9436 9.9484 51.2896 9.92085 51.6357C9.64409 48.5303 8.61664 45.7086 6.84898 43.2119C5.76647 41.6847 4.47589 40.3788 3.01223 39.3276C2.94904 39.2819 2.88259 39.2415 2.79379 39.1889C2.75068 39.1643 2.70077 39.1344 2.64016 39.0958C2.54876 39.0413 2.43144 39.0369 2.33713 39.0826C2.24054 39.13 2.1741 39.2249 2.16308 39.3338C2.14331 39.5296 2.1203 39.7202 2.096 39.9169C2.04705 40.3209 2.0007 40.7029 1.99876 41.0946C1.97704 45.1563 2.83559 48.9624 4.55141 52.4058C5.02946 53.3666 5.66114 54.1974 6.42959 54.8771C7.19156 55.5472 8.01382 55.9415 8.94176 56.0838C8.96212 56.0873 9.01073 56.1171 9.01819 56.1233C9.06847 56.2234 9.12059 56.3253 9.1728 56.4263C9.35821 56.7846 9.54976 57.1561 9.64506 57.5275C9.72447 57.8419 9.72447 58.1853 9.72447 58.5489C9.72447 58.6824 9.72447 58.8167 9.72868 58.9485C9.81774 62.0951 9.9348 63.1902 10.4378 66.0022C10.1308 65.1662 9.74553 64.3275 9.248 63.5213C7.23337 60.2579 4.67392 58.043 1.42348 56.7503C1.21669 56.6669 1.00927 56.6072 0.768784 56.5369L0.720817 56.5229C0.623262 56.4939 0.519872 56.4632 0.409353 56.4298C0.309528 56.3973 0.195768 56.4192 0.114418 56.4869C0.0333915 56.5536 -0.00906618 56.6564 0.00162927 56.7635C0.025613 56.9866 0.0421424 57.2044 0.0573752 57.416C0.0907584 57.8806 0.122196 58.3188 0.23466 58.7526C1.28346 62.8073 3.01936 66.0365 5.54122 68.6254C6.61951 69.732 7.75583 70.366 9.01494 70.5654C9.33259 70.6145 9.72087 70.6207 10.3782 70.5803L10.5675 70.5689C10.5962 70.5671 10.6216 70.5654 10.6446 70.5654C10.6965 70.5654 10.7007 70.5654 10.7366 70.6189L11.6172 71.8291C11.6285 71.8449 11.6451 71.902 11.6564 71.9415L11.6694 71.9854C12.5834 75.0864 13.7174 78.0731 15.0546 80.908C14.4528 80.0763 13.7932 79.3176 13.0582 78.6036C9.67779 75.3209 3.89833 75.226 3.25045 75.226L3.16975 75.2269L3.11886 75.2357C2.96006 75.2928 2.87417 75.4623 2.92311 75.6221C2.96816 75.7731 3.01029 75.9259 3.05858 76.1042C3.15095 76.4406 3.24689 76.7883 3.38139 77.1247C4.02182 78.7265 5.05993 80.2669 6.64901 81.975C7.74091 83.1457 8.97186 84.3339 10.5726 85.0847C12.3257 85.9085 13.9086 86.1096 15.4828 85.7056C15.7505 85.6354 16.0585 85.5467 16.3232 85.3745C16.5118 85.2533 16.5634 85.2578 16.7488 85.3956C16.9685 85.559 17.2022 85.696 17.4291 85.8295C17.5545 85.9032 17.6809 85.977 17.7988 86.0516C17.8176 86.0674 17.8578 86.1333 17.8727 86.1579C19.2852 88.4632 20.8412 90.606 22.5213 92.5609C21.6126 91.8996 20.6795 91.4201 19.6884 91.1013C16.6596 90.1247 13.485 90.2495 10.3409 91.4658C9.87162 91.6476 9.35724 91.9233 9.32285 91.9426C9.25089 91.9901 9.20132 92.0674 9.18579 92.1552C9.17218 92.2412 9.19456 92.329 9.24703 92.3967C9.34522 92.5249 9.44017 92.6531 9.53414 92.7805L9.55494 92.8085C9.7672 93.0975 10.0077 93.4251 10.2774 93.7149C11.4918 95.0181 12.9895 95.8919 14.4272 96.6419C16.4043 97.6685 18.426 98.2209 20.4367 98.2859C20.5314 98.2894 20.626 98.2912 20.7203 98.2912C22.57 98.2912 24.0138 97.6808 25.1268 96.4338C25.1404 96.4233 25.1888 96.4048 25.2154 96.4048C25.6406 96.4355 26.0447 96.497 26.3468 96.548C26.3944 96.5559 26.453 96.5848 26.4897 96.6173C28.3491 98.2648 30.3183 99.7113 32.3754 100.942C32.0636 100.849 31.7425 100.769 31.4139 100.704C29.2154 100.281 26.972 100.546 24.5085 101.526C22.8464 102.19 21.3008 103.163 19.783 104.505C19.658 104.614 19.6404 104.803 19.7435 104.934C20.2805 105.618 20.9793 106.002 21.5922 106.285C23.087 106.981 24.7743 107.425 26.7523 107.647C26.7581 107.648 27.3936 107.702 28.285 107.702C28.9282 107.702 29.5269 107.674 30.0633 107.617C30.5761 107.563 31.0874 107.475 31.5837 107.356C33.8627 106.8 35.4071 105.658 36.2919 103.886C36.3078 103.87 36.3758 103.831 36.4621 103.81C36.8734 103.708 37.2435 103.636 37.5954 103.589C37.6784 103.575 37.7818 103.598 37.9121 103.65C39.486 104.257 41.1516 104.763 42.8592 105.153C42.8832 105.159 42.9082 105.161 42.9331 105.161C43.0479 105.161 43.1536 105.098 43.2093 104.995C43.3723 104.692 43.571 104.4 43.7995 104.13C43.8711 104.044 43.8925 103.931 43.8572 103.826C43.8234 103.724 43.7379 103.646 43.6284 103.621Z" fill="#989898"/>
</svg>
