<svg width="213" height="108" viewBox="0 0 213 108" fill="none" xmlns="http://www.w3.org/2000/svg">
<path d="M51.3843 33.3587H47.9165L47.2777 35.1283H46.1826L49.0572 27.2165H50.255L53.1182 35.1283H52.0231L51.3843 33.3587ZM51.0877 32.5139L49.6504 28.4952L48.2131 32.5139H51.0877ZM57.5308 28.7578C58.2913 28.7578 58.9073 28.9899 59.3787 29.4542C59.8503 29.9109 60.086 30.573 60.086 31.4407V35.1283H59.0593V31.5891C59.0593 30.965 58.9035 30.4893 58.5916 30.162C58.2799 29.8272 57.854 29.6597 57.314 29.6597C56.7665 29.6597 56.3292 29.8309 56.0022 30.1734C55.6828 30.5159 55.5231 31.0145 55.5231 31.669V35.1283H54.485V28.8719H55.5231V29.7624C55.7284 29.4428 56.0061 29.1954 56.3558 29.0204C56.7133 28.8453 57.1049 28.7578 57.5308 28.7578ZM61.5079 31.9773C61.5079 31.3379 61.6372 30.7785 61.8958 30.299C62.1543 29.8119 62.5079 29.4351 62.9567 29.1688C63.4129 28.9024 63.9224 28.7692 64.4852 28.7692C64.9719 28.7692 65.4244 28.8834 65.8427 29.1117C66.2609 29.3324 66.5803 29.6254 66.8009 29.9908V26.6799H67.8503V35.1283H66.8009V33.9524C66.5956 34.3253 66.2913 34.6336 65.8883 34.8771C65.4852 35.1131 65.0137 35.231 64.4738 35.231C63.9186 35.231 63.4129 35.094 62.9567 34.82C62.5079 34.546 62.1543 34.1616 61.8958 33.6669C61.6372 33.1722 61.5079 32.609 61.5079 31.9773ZM66.8009 31.9887C66.8009 31.5168 66.7058 31.1058 66.5157 30.7557C66.3256 30.4055 66.067 30.1392 65.74 29.9565C65.4206 29.7662 65.067 29.6711 64.6791 29.6711C64.2913 29.6711 63.9377 29.7624 63.6183 29.9451C63.2989 30.1278 63.0441 30.3941 62.854 30.7443C62.6638 31.0944 62.5688 31.5054 62.5688 31.9773C62.5688 32.4568 62.6638 32.8754 62.854 33.2331C63.0441 33.5832 63.2989 33.8534 63.6183 34.0437C63.9377 34.2264 64.2913 34.3177 64.6791 34.3177C65.067 34.3177 65.4206 34.2264 65.74 34.0437C66.067 33.8534 66.3256 33.5832 66.5157 33.2331C66.7058 32.8754 66.8009 32.4605 66.8009 31.9887ZM70.7566 29.888C70.9392 29.5303 71.1977 29.2525 71.5323 29.0546C71.8745 28.8567 72.2891 28.7578 72.7757 28.7578V29.8309H72.5019C71.3384 29.8309 70.7566 30.4626 70.7566 31.7261V35.1283H69.7186V28.8719H70.7566V29.888ZM79.7917 31.7604C79.7917 31.9582 79.7803 32.1676 79.7575 32.3883H74.7611C74.7992 33.0048 75.0083 33.488 75.3885 33.8382C75.7763 34.1807 76.244 34.3519 76.7916 34.3519C77.2403 34.3519 77.6129 34.2492 77.9095 34.0437C78.2137 33.8305 78.4267 33.549 78.5483 33.1989H79.6662C79.4989 33.8002 79.1643 34.2911 78.6624 34.6716C78.1604 35.0446 77.5369 35.231 76.7916 35.231C76.1984 35.231 75.6661 35.0978 75.1946 34.8314C74.7307 34.5651 74.3657 34.1883 74.0995 33.7012C73.8333 33.2065 73.7002 32.6357 73.7002 31.9887C73.7002 31.3417 73.8296 30.7747 74.0881 30.2876C74.3467 29.8005 74.7079 29.4276 75.1718 29.1688C75.6433 28.9024 76.1832 28.7692 76.7916 28.7692C77.3848 28.7692 77.9095 28.8985 78.3658 29.1574C78.8221 29.4162 79.1719 29.7739 79.4152 30.2305C79.6662 30.6795 79.7917 31.1895 79.7917 31.7604ZM78.7194 31.5434C78.7194 31.1476 78.632 30.809 78.457 30.5274C78.2822 30.2382 78.0426 30.0212 77.7384 29.8766C77.4418 29.7244 77.111 29.6483 76.7459 29.6483C76.2212 29.6483 75.7726 29.8157 75.3999 30.1506C75.0349 30.4855 74.8258 30.9498 74.7725 31.5434H78.7194ZM86.9796 31.7604C86.9796 31.9582 86.9682 32.1676 86.9454 32.3883H81.949C81.987 33.0048 82.1961 33.488 82.5764 33.8382C82.9643 34.1807 83.432 34.3519 83.9795 34.3519C84.4282 34.3519 84.8008 34.2492 85.0974 34.0437C85.4016 33.8305 85.6145 33.549 85.7362 33.1989H86.8541C86.6868 33.8002 86.3522 34.2911 85.8503 34.6716C85.3484 35.0446 84.7248 35.231 83.9795 35.231C83.3863 35.231 82.854 35.0978 82.3825 34.8314C81.9186 34.5651 81.5536 34.1883 81.2874 33.7012C81.0212 33.2065 80.8882 32.6357 80.8882 31.9887C80.8882 31.3417 81.0174 30.7747 81.276 30.2876C81.5345 29.8005 81.8958 29.4276 82.3597 29.1688C82.8312 28.9024 83.3711 28.7692 83.9795 28.7692C84.5727 28.7692 85.0974 28.8985 85.5537 29.1574C86.01 29.4162 86.3598 29.7739 86.6032 30.2305C86.8541 30.6795 86.9796 31.1895 86.9796 31.7604ZM85.9073 31.5434C85.9073 31.1476 85.8199 30.809 85.645 30.5274C85.47 30.2382 85.2305 30.0212 84.9263 29.8766C84.6297 29.7244 84.2989 29.6483 83.9339 29.6483C83.4092 29.6483 82.9604 29.8157 82.5878 30.1506C82.2228 30.4855 82.0136 30.9498 81.9604 31.5434H85.9073ZM90.6768 35.231C90.1977 35.231 89.7677 35.1511 89.3878 34.9913C89.0078 34.8238 88.7068 34.5955 88.4866 34.3063C88.2664 34.0094 88.1444 33.6707 88.1216 33.2902H89.1938C89.2246 33.6022 89.3685 33.8572 89.6273 34.0551C89.8932 34.253 90.2398 34.3519 90.6654 34.3519C91.0611 34.3519 91.3726 34.2644 91.6008 34.0894C91.8289 33.9143 91.943 33.6935 91.943 33.4272C91.943 33.1532 91.821 32.9515 91.5779 32.8221C91.3349 32.6851 90.9585 32.5519 90.4486 32.4225C89.9845 32.3007 89.6045 32.179 89.3079 32.0572C89.0192 31.9278 88.7683 31.7413 88.555 31.4978C88.3497 31.2466 88.247 30.9193 88.247 30.5159C88.247 30.1963 88.3418 29.9032 88.5322 29.6369C88.7226 29.3705 88.992 29.1611 89.3421 29.0089C89.6923 28.8491 90.0915 28.7692 90.5399 28.7692C91.2322 28.7692 91.7912 28.9442 92.2168 29.2944C92.6423 29.6445 92.8705 30.124 92.9012 30.7329H91.8631C91.8403 30.4055 91.7069 30.143 91.4639 29.9451C91.2278 29.7472 90.9084 29.6483 90.5057 29.6483C90.1327 29.6483 89.8362 29.7282 89.6159 29.888C89.3957 30.0479 89.2851 30.2571 89.2851 30.5159C89.2851 30.7214 89.35 30.8927 89.479 31.0297C89.6159 31.159 89.7835 31.2657 89.9809 31.3494C90.1863 31.4255 90.4679 31.513 90.8251 31.6119C91.2735 31.7337 91.6385 31.8555 91.9202 31.9773C92.2018 32.0914 92.4414 32.2665 92.6388 32.5024C92.8442 32.7384 92.9503 33.0467 92.9582 33.4272C92.9582 33.7697 92.8635 34.0779 92.673 34.3519C92.4826 34.6259 92.2132 34.8429 91.8631 35.0027C91.5209 35.1549 91.1252 35.231 90.6768 35.231ZM96.7507 35.231C96.2716 35.231 95.8416 35.1511 95.4617 34.9913C95.0817 34.8238 94.7807 34.5955 94.5605 34.3063C94.3403 34.0094 94.2183 33.6707 94.1955 33.2902H95.2677C95.2985 33.6022 95.4424 33.8572 95.7012 34.0551C95.9671 34.253 96.3137 34.3519 96.7393 34.3519C97.135 34.3519 97.4465 34.2644 97.6747 34.0894C97.9028 33.9143 98.0169 33.6935 98.0169 33.4272C98.0169 33.1532 97.8949 32.9515 97.6519 32.8221C97.4088 32.6851 97.0324 32.5519 96.5225 32.4225C96.0584 32.3007 95.6784 32.179 95.3818 32.0572C95.0931 31.9278 94.8422 31.7413 94.6289 31.4978C94.4236 31.2466 94.3209 30.9193 94.3209 30.5159C94.3209 30.1963 94.4157 29.9032 94.6061 29.6369C94.7965 29.3705 95.0659 29.1611 95.416 29.0089C95.7662 28.8491 96.1654 28.7692 96.6138 28.7692C97.3061 28.7692 97.8651 28.9442 98.2907 29.2944C98.7162 29.6445 98.9444 30.124 98.9751 30.7329H97.937C97.9142 30.4055 97.7808 30.143 97.5378 29.9451C97.3017 29.7472 96.9823 29.6483 96.5796 29.6483C96.2066 29.6483 95.9101 29.7282 95.6898 29.888C95.4696 30.0479 95.359 30.2571 95.359 30.5159C95.359 30.7214 95.4239 30.8927 95.5529 31.0297C95.6898 31.159 95.8574 31.2657 96.0548 31.3494C96.2602 31.4255 96.5418 31.513 96.899 31.6119C97.3474 31.7337 97.7124 31.8555 97.9941 31.9773C98.2757 32.0914 98.5153 32.2665 98.7127 32.5024C98.9181 32.7384 99.0242 33.0467 99.0321 33.4272C99.0321 33.7697 98.9374 34.0779 98.7469 34.3519C98.5565 34.6259 98.2871 34.8429 97.937 35.0027C97.5948 35.1549 97.1991 35.231 96.7507 35.231ZM106.315 31.7604C106.315 31.9582 106.304 32.1676 106.281 32.3883H101.285C101.322 33.0048 101.532 33.488 101.912 33.8382C102.3 34.1807 102.768 34.3519 103.315 34.3519C103.763 34.3519 104.136 34.2492 104.433 34.0437C104.737 33.8305 104.95 33.549 105.072 33.1989H106.19C106.022 33.8002 105.688 34.2911 105.186 34.6716C104.684 35.0446 104.06 35.231 103.315 35.231C102.722 35.231 102.189 35.0978 101.718 34.8314C101.254 34.5651 100.889 34.1883 100.623 33.7012C100.357 33.2065 100.224 32.6357 100.224 31.9887C100.224 31.3417 100.353 30.7747 100.612 30.2876C100.87 29.8005 101.231 29.4276 101.695 29.1688C102.166 28.9024 102.707 28.7692 103.315 28.7692C103.908 28.7692 104.433 28.8985 104.889 29.1574C105.346 29.4162 105.696 29.7739 105.939 30.2305C106.19 30.6795 106.315 31.1895 106.315 31.7604ZM105.243 31.5434C105.243 31.1476 105.155 30.809 104.981 30.5274C104.806 30.2382 104.566 30.0212 104.262 29.8766C103.965 29.7244 103.634 29.6483 103.269 29.6483C102.745 29.6483 102.296 29.8157 101.923 30.1506C101.558 30.4855 101.35 30.9498 101.296 31.5434H105.243ZM110.846 28.7578C111.605 28.7578 112.221 28.9899 112.694 29.4542C113.165 29.9109 113.401 30.573 113.401 31.4407V35.1283H112.374V31.5891C112.374 30.965 112.218 30.4893 111.906 30.162C111.594 29.8272 111.169 29.6597 110.629 29.6597C110.081 29.6597 109.643 29.8309 109.317 30.1734C108.998 30.5159 108.838 31.0145 108.838 31.669V35.1283H107.8V28.8719H108.838V29.7624C109.043 29.4428 109.321 29.1954 109.671 29.0204C110.028 28.8453 110.419 28.7578 110.846 28.7578ZM124.491 27.1709V35.1283H123.453V31.5206H119.404V35.1283H118.366V27.1709H119.404V30.6644H123.453V27.1709H124.491ZM129.104 35.231C128.518 35.231 127.986 35.0978 127.507 34.8314C127.035 34.5651 126.663 34.1883 126.389 33.7012C126.122 33.2065 125.99 32.6357 125.99 31.9887C125.99 31.3494 126.127 30.7862 126.401 30.299C126.681 29.8043 127.062 29.4276 127.541 29.1688C128.02 28.9024 128.557 28.7692 129.15 28.7692C129.743 28.7692 130.279 28.9024 130.758 29.1688C131.237 29.4276 131.614 29.8005 131.888 30.2876C132.168 30.7747 132.31 31.3417 132.31 31.9887C132.31 32.6357 132.165 33.2065 131.876 33.7012C131.594 34.1883 131.21 34.5651 130.724 34.8314C130.237 35.0978 129.697 35.231 129.104 35.231ZM129.104 34.3177C129.476 34.3177 129.826 34.2301 130.154 34.0551C130.48 33.8801 130.742 33.6175 130.941 33.2674C131.146 32.9172 131.249 32.491 131.249 31.9887C131.249 31.4864 131.15 31.0602 130.952 30.71C130.754 30.3599 130.496 30.1012 130.176 29.9337C129.857 29.7587 129.51 29.6711 129.138 29.6711C128.758 29.6711 128.408 29.7587 128.089 29.9337C127.777 30.1012 127.526 30.3599 127.336 30.71C127.146 31.0602 127.051 31.4864 127.051 31.9887C127.051 32.4987 127.142 32.9286 127.325 33.2788C127.514 33.6289 127.765 33.8915 128.077 34.0665C128.389 34.234 128.731 34.3177 129.104 34.3177ZM134.826 29.888C135.009 29.5303 135.268 29.2525 135.602 29.0546C135.944 28.8567 136.359 28.7578 136.845 28.7578V29.8309H136.571C135.408 29.8309 134.826 30.4626 134.826 31.7261V35.1283H133.788V28.8719H134.826V29.888ZM140.884 35.231C140.299 35.231 139.766 35.0978 139.287 34.8314C138.816 34.5651 138.443 34.1883 138.169 33.7012C137.904 33.2065 137.77 32.6357 137.77 31.9887C137.77 31.3494 137.907 30.7862 138.181 30.299C138.462 29.8043 138.842 29.4276 139.321 29.1688C139.801 28.9024 140.337 28.7692 140.93 28.7692C141.523 28.7692 142.059 28.9024 142.538 29.1688C143.017 29.4276 143.394 29.8005 143.668 30.2876C143.949 30.7747 144.09 31.3417 144.09 31.9887C144.09 32.6357 143.945 33.2065 143.656 33.7012C143.375 34.1883 142.991 34.5651 142.504 34.8314C142.017 35.0978 141.477 35.231 140.884 35.231ZM140.884 34.3177C141.257 34.3177 141.606 34.2301 141.934 34.0551C142.261 33.8801 142.523 33.6175 142.721 33.2674C142.926 32.9172 143.029 32.491 143.029 31.9887C143.029 31.4864 142.93 31.0602 142.732 30.71C142.535 30.3599 142.276 30.1012 141.957 29.9337C141.637 29.7587 141.291 29.6711 140.919 29.6711C140.539 29.6711 140.188 29.7587 139.869 29.9337C139.558 30.1012 139.307 30.3599 139.116 30.71C138.926 31.0602 138.831 31.4864 138.831 31.9887C138.831 32.4987 138.922 32.9286 139.105 33.2788C139.295 33.6289 139.546 33.8915 139.858 34.0665C140.169 34.234 140.511 34.3177 140.884 34.3177ZM153.896 28.8719L151.945 35.1283H150.873L149.367 30.162L147.861 35.1283H146.789L144.827 28.8719H145.888L147.325 34.1236L148.876 28.8719H149.937L151.454 34.135L152.869 28.8719H153.896ZM155.576 27.8559C155.378 27.8559 155.211 27.7874 155.074 27.6504C154.937 27.5134 154.869 27.3459 154.869 27.148C154.869 26.9502 154.937 26.7827 155.074 26.6457C155.211 26.5087 155.378 26.4402 155.576 26.4402C155.766 26.4402 155.926 26.5087 156.055 26.6457C156.192 26.7827 156.26 26.9502 156.26 27.148C156.26 27.3459 156.192 27.5134 156.055 27.6504C155.926 27.7874 155.766 27.8559 155.576 27.8559ZM156.078 28.8719V35.1283H155.04V28.8719H156.078ZM159.228 29.7282V33.4158C159.228 33.7202 159.292 33.9372 159.422 34.0665C159.551 34.1883 159.776 34.2492 160.095 34.2492H160.859V35.1283H159.924C159.346 35.1283 158.912 34.995 158.623 34.7287C158.334 34.4623 158.19 34.0246 158.19 33.4158V29.7282H157.38V28.8719H158.19V27.2964H159.228V28.8719H160.859V29.7282H159.228ZM163.006 34.272H166.075V35.1283H161.82V34.272L164.854 29.7168H161.843V28.8719H166.052V29.7168L163.006 34.272Z" fill="#989898"/>
<path d="M41.095 51.8159C41.5537 51.8978 41.9427 52.1397 42.2621 52.5413C42.5815 52.9429 42.7412 53.3978 42.7412 53.906C42.7412 54.3404 42.6265 54.7339 42.3972 55.0863C42.1761 55.4306 41.8526 55.7052 41.4267 55.9101C41.0009 56.1068 40.5054 56.2051 39.9403 56.2051H36.5251V47.6602H39.7806C40.3621 47.6602 40.8616 47.7586 41.2793 47.9553C41.697 48.152 42.0123 48.4184 42.2252 48.7544C42.4382 49.0823 42.5446 49.4511 42.5446 49.861C42.5446 50.3528 42.4136 50.7626 42.1515 51.0905C41.8894 51.4183 41.5373 51.6602 41.095 51.8159ZM37.9256 51.2503H39.6577C40.1164 51.2503 40.4727 51.1478 40.7265 50.9429C40.9886 50.7298 41.1196 50.4265 41.1196 50.0331C41.1196 49.6478 40.9886 49.3487 40.7265 49.1356C40.4727 48.9143 40.1164 48.8036 39.6577 48.8036H37.9256V51.2503ZM39.8174 55.0617C40.2924 55.0617 40.6651 54.9469 40.9353 54.7175C41.2056 54.488 41.3407 54.1683 41.3407 53.7585C41.3407 53.3404 41.1975 53.0085 40.9108 52.7626C40.6241 52.5167 40.2433 52.3937 39.7683 52.3937H37.9256V55.0617H39.8174ZM50.4669 52.6519C50.4669 52.906 50.4505 53.1355 50.4177 53.3404H45.2459C45.2868 53.8814 45.4874 54.3159 45.8478 54.6437C46.2081 54.9715 46.6504 55.1355 47.1746 55.1355C47.928 55.1355 48.4603 54.8199 48.7716 54.1888H50.2826C50.0778 54.8117 49.7052 55.324 49.1647 55.7256C48.6323 56.1191 47.9689 56.3158 47.1746 56.3158C46.5275 56.3158 45.9461 56.1724 45.4301 55.8855C44.9223 55.5904 44.5211 55.1805 44.2262 54.656C43.9396 54.1232 43.7963 53.5084 43.7963 52.8118C43.7963 52.1151 43.9354 51.5044 44.214 50.9798C44.5005 50.447 44.8978 50.0372 45.4056 49.7503C45.9215 49.4634 46.5112 49.32 47.1746 49.32C47.8134 49.32 48.3825 49.4594 48.8821 49.738C49.3817 50.0167 49.7707 50.4101 50.0492 50.9183C50.3276 51.4183 50.4669 51.9962 50.4669 52.6519ZM49.005 52.2093C48.9967 51.6929 48.8125 51.279 48.4522 50.9675C48.0918 50.656 47.6454 50.5003 47.1131 50.5003C46.6299 50.5003 46.2164 50.656 45.8724 50.9675C45.5284 51.2708 45.3236 51.6848 45.2582 52.2093H49.005ZM54.302 56.3158C53.7696 56.3158 53.2905 56.2216 52.8647 56.033C52.447 55.8363 52.1153 55.574 51.8696 55.2461C51.6239 54.91 51.4928 54.5372 51.4765 54.1273H52.9261C52.9507 54.4142 53.0858 54.656 53.3315 54.8527C53.5853 55.0413 53.9006 55.1355 54.2774 55.1355C54.6705 55.1355 54.9735 55.0617 55.1865 54.9142C55.4076 54.7585 55.5181 54.5618 55.5181 54.324C55.5181 54.07 55.3953 53.8814 55.1496 53.7585C54.9121 53.6355 54.5312 53.5003 54.0071 53.3527C53.4993 53.2134 53.0858 53.0781 52.7664 52.947C52.447 52.8159 52.1685 52.615 51.931 52.3445C51.7017 52.0741 51.5871 51.7175 51.5871 51.2749C51.5871 50.9142 51.6935 50.5864 51.9065 50.2913C52.1193 49.9881 52.4224 49.7503 52.8155 49.5782C53.2168 49.4061 53.6754 49.32 54.1914 49.32C54.9612 49.32 55.5796 49.5167 56.0464 49.9102C56.5214 50.2954 56.7752 50.8241 56.808 51.4962H55.4076C55.383 51.193 55.2602 50.9511 55.039 50.7708C54.8179 50.5905 54.519 50.5003 54.1423 50.5003C53.7737 50.5003 53.4912 50.57 53.2946 50.7093C53.0981 50.8487 52.9998 51.0331 52.9998 51.2626C52.9998 51.4429 53.0652 51.5946 53.1963 51.7175C53.3274 51.8405 53.4871 51.9388 53.6754 52.0126C53.8638 52.0782 54.1423 52.1643 54.5108 52.2708C55.0022 52.4019 55.4035 52.5371 55.7147 52.6765C56.0341 52.8076 56.3084 53.0043 56.5378 53.2667C56.7671 53.529 56.8858 53.8773 56.894 54.3117C56.894 54.697 56.7875 55.0413 56.5746 55.3445C56.3617 55.6477 56.0587 55.8855 55.6656 56.0576C55.2806 56.2297 54.8261 56.3158 54.302 56.3158ZM60.0411 50.5741V54.324C60.0411 54.5781 60.0984 54.7625 60.2131 54.8773C60.3359 54.9838 60.5407 55.0371 60.8273 55.0371H61.6873V56.2051H60.5816C59.951 56.2051 59.4679 56.0576 59.132 55.7625C58.7962 55.4674 58.6284 54.9879 58.6284 54.324V50.5741H57.8299V49.4307H58.6284V47.7463H60.0411V49.4307H61.6873V50.5741H60.0411ZM73.1837 56.2051H71.7832L67.5696 49.8241V56.2051H66.1691V47.6479H67.5696L71.7832 54.0167V47.6479H73.1837V56.2051ZM74.5559 52.7872C74.5559 52.1068 74.6952 51.5044 74.9736 50.9798C75.2603 50.4553 75.6452 50.0495 76.1283 49.7626C76.6197 49.4676 77.1603 49.32 77.7499 49.32C78.2823 49.32 78.745 49.4265 79.1381 49.6397C79.5395 49.8446 79.8588 50.1028 80.0963 50.4143V49.4307H81.509V56.2051H80.0963V55.197C79.8588 55.5166 79.5353 55.783 79.1258 55.9961C78.7164 56.2093 78.2496 56.3158 77.7254 56.3158C77.1439 56.3158 76.6116 56.1683 76.1283 55.8732C75.6452 55.5699 75.2603 55.1519 74.9736 54.6191C74.6952 54.0781 74.5559 53.4675 74.5559 52.7872ZM80.0963 52.8118C80.0963 52.3446 79.998 51.9388 79.8015 51.5946C79.6132 51.2503 79.3633 50.988 79.0521 50.8077C78.7409 50.6274 78.4051 50.5372 78.0448 50.5372C77.6845 50.5372 77.3486 50.6274 77.0374 50.8077C76.7263 50.9798 76.4723 51.238 76.2758 51.5823C76.0875 51.9184 75.9932 52.32 75.9932 52.7872C75.9932 53.2544 76.0875 53.6642 76.2758 54.0167C76.4723 54.3691 76.7263 54.6396 77.0374 54.8281C77.3568 55.0084 77.6926 55.0986 78.0448 55.0986C78.4051 55.0986 78.7409 55.0084 79.0521 54.8281C79.3633 54.6478 79.6132 54.3855 79.8015 54.0412C79.998 53.6888 80.0963 53.279 80.0963 52.8118ZM84.9824 50.5741V54.324C84.9824 54.5781 85.0397 54.7625 85.1543 54.8773C85.2772 54.9838 85.482 55.0371 85.7686 55.0371H86.6285V56.2051H85.5229C84.8923 56.2051 84.4091 56.0576 84.0733 55.7625C83.7376 55.4674 83.5696 54.9879 83.5696 54.324V50.5741H82.7711V49.4307H83.5696V47.7463H84.9824V49.4307H86.6285V50.5741H84.9824ZM94.0498 49.4307V56.2051H92.6493V55.406C92.4282 55.6846 92.1369 55.9059 91.7771 56.0699C91.4244 56.2256 91.0479 56.3035 90.6469 56.3035C90.1143 56.3035 89.6352 56.1928 89.2096 55.9715C88.7919 55.7502 88.4602 55.4224 88.2145 54.9879C87.9767 54.5535 87.8583 54.0289 87.8583 53.4142V49.4307H89.2465V53.2052C89.2465 53.8118 89.3974 54.279 89.701 54.6068C90.0037 54.9265 90.417 55.0863 90.9417 55.0863C91.4656 55.0863 91.8789 54.9265 92.1825 54.6068C92.4931 54.279 92.6493 53.8118 92.6493 53.2052V49.4307H94.0498ZM97.2973 50.4143C97.5026 50.07 97.7729 49.8036 98.1081 49.6151C98.4521 49.4184 98.8575 49.32 99.3243 49.32V50.7708H98.968C98.4196 50.7708 98.0019 50.9102 97.715 51.1888C97.4368 51.4675 97.2973 51.9511 97.2973 52.6396V56.2051H95.8969V49.4307H97.2973V50.4143ZM100.145 52.7872C100.145 52.1068 100.284 51.5044 100.562 50.9798C100.849 50.4553 101.235 50.0495 101.717 49.7626C102.209 49.4676 102.749 49.32 103.339 49.32C103.871 49.32 104.334 49.4265 104.727 49.6397C105.129 49.8446 105.448 50.1028 105.685 50.4143V49.4307H107.098V56.2051H105.685V55.197C105.448 55.5166 105.124 55.783 104.715 55.9961C104.306 56.2093 103.839 56.3158 103.314 56.3158C102.733 56.3158 102.201 56.1683 101.717 55.8732C101.235 55.5699 100.849 55.1519 100.562 54.6191C100.284 54.0781 100.145 53.4675 100.145 52.7872ZM105.685 52.8118C105.685 52.3446 105.587 51.9388 105.39 51.5946C105.203 51.2503 104.952 50.988 104.641 50.8077C104.33 50.6274 103.994 50.5372 103.634 50.5372C103.274 50.5372 102.938 50.6274 102.626 50.8077C102.316 50.9798 102.061 51.238 101.865 51.5823C101.677 51.9184 101.582 52.32 101.582 52.7872C101.582 53.2544 101.677 53.6642 101.865 54.0167C102.061 54.3691 102.316 54.6396 102.626 54.8281C102.946 55.0084 103.282 55.0986 103.634 55.0986C103.994 55.0986 104.33 55.0084 104.641 54.8281C104.952 54.6478 105.203 54.3855 105.39 54.0412C105.587 53.6888 105.685 53.279 105.685 52.8118ZM110.338 47.1069V56.2051H108.938V47.1069H110.338ZM116.769 55.074H119.655V56.2051H115.368V47.6602H116.769V55.074ZM120.359 52.7872C120.359 52.1068 120.499 51.5044 120.777 50.9798C121.064 50.4553 121.449 50.0495 121.932 49.7626C122.423 49.4676 122.964 49.32 123.553 49.32C124.086 49.32 124.548 49.4265 124.941 49.6397C125.343 49.8446 125.663 50.1028 125.9 50.4143V49.4307H127.312V56.2051H125.9V55.197C125.663 55.5166 125.339 55.783 124.929 55.9961C124.52 56.2093 124.053 56.3158 123.529 56.3158C122.948 56.3158 122.415 56.1683 121.932 55.8732C121.449 55.5699 121.064 55.1519 120.777 54.6191C120.499 54.0781 120.359 53.4675 120.359 52.7872ZM125.9 52.8118C125.9 52.3446 125.801 51.9388 125.605 51.5946C125.417 51.2503 125.167 50.988 124.855 50.8077C124.545 50.6274 124.209 50.5372 123.848 50.5372C123.488 50.5372 123.152 50.6274 122.841 50.8077C122.53 50.9798 122.276 51.238 122.079 51.5823C121.891 51.9184 121.796 52.32 121.796 52.7872C121.796 53.2544 121.891 53.6642 122.079 54.0167C122.276 54.3691 122.53 54.6396 122.841 54.8281C123.16 55.0084 123.496 55.0986 123.848 55.0986C124.209 55.0986 124.545 55.0084 124.855 54.8281C125.167 54.6478 125.417 54.3855 125.605 54.0412C125.801 53.6888 125.9 53.279 125.9 52.8118ZM132.568 49.32C133.099 49.32 133.575 49.4307 133.993 49.652C134.418 49.8733 134.75 50.2011 134.988 50.6356C135.225 51.07 135.344 51.5946 135.344 52.2093V56.2051H133.956V52.4183C133.956 51.8117 133.804 51.3487 133.501 51.029C133.198 50.7012 132.784 50.5372 132.26 50.5372C131.736 50.5372 131.318 50.7012 131.007 51.029C130.704 51.3487 130.553 51.8117 130.553 52.4183V56.2051H129.152V49.4307H130.553V50.2052C130.782 49.9266 131.072 49.7093 131.425 49.5536C131.785 49.3979 132.166 49.32 132.568 49.32ZM139.858 49.32C140.381 49.32 140.844 49.4265 141.246 49.6397C141.655 49.8446 141.974 50.1028 142.204 50.4143V49.4307H143.617V56.3158C143.617 56.9387 143.485 57.492 143.224 57.9756C142.961 58.4674 142.58 58.8527 142.081 59.1313C141.59 59.41 141 59.5493 140.312 59.5493C139.394 59.5493 138.633 59.3322 138.027 58.8977C137.421 58.4715 137.077 57.8895 136.995 57.1518H138.383C138.49 57.5043 138.715 57.787 139.059 58.0002C139.411 58.2215 139.829 58.3321 140.312 58.3321C140.877 58.3321 141.332 58.16 141.676 57.8158C142.028 57.4715 142.204 56.9715 142.204 56.3158V55.1847C141.966 55.5043 141.642 55.7748 141.233 55.9961C140.832 56.2093 140.374 56.3158 139.858 56.3158C139.268 56.3158 138.727 56.1683 138.236 55.8732C137.753 55.5699 137.367 55.1519 137.081 54.6191C136.802 54.0781 136.664 53.4675 136.664 52.7872C136.664 52.1068 136.802 51.5044 137.081 50.9798C137.367 50.4553 137.753 50.0495 138.236 49.7626C138.727 49.4676 139.268 49.32 139.858 49.32ZM142.204 52.8118C142.204 52.3446 142.106 51.9388 141.909 51.5946C141.72 51.2503 141.47 50.988 141.16 50.8077C140.848 50.6274 140.512 50.5372 140.152 50.5372C139.792 50.5372 139.456 50.6274 139.145 50.8077C138.834 50.9798 138.58 51.238 138.383 51.5823C138.195 51.9184 138.101 52.32 138.101 52.7872C138.101 53.2544 138.195 53.6642 138.383 54.0167C138.58 54.3691 138.834 54.6396 139.145 54.8281C139.465 55.0084 139.8 55.0986 140.152 55.0986C140.512 55.0986 140.848 55.0084 141.16 54.8281C141.47 54.6478 141.72 54.3855 141.909 54.0412C142.106 53.6888 142.204 53.279 142.204 52.8118ZM151.586 49.4307V56.2051H150.186V55.406C149.964 55.6846 149.673 55.9059 149.313 56.0699C148.961 56.2256 148.584 56.3035 148.183 56.3035C147.65 56.3035 147.171 56.1928 146.746 55.9715C146.328 55.7502 145.996 55.4224 145.751 54.9879C145.513 54.5535 145.394 54.0289 145.394 53.4142V49.4307H146.783V53.2052C146.783 53.8118 146.934 54.279 147.237 54.6068C147.54 54.9265 147.953 55.0863 148.478 55.0863C149.002 55.0863 149.415 54.9265 149.719 54.6068C150.029 54.279 150.186 53.8118 150.186 53.2052V49.4307H151.586ZM152.967 52.7872C152.967 52.1068 153.106 51.5044 153.385 50.9798C153.671 50.4553 154.056 50.0495 154.54 49.7626C155.031 49.4676 155.571 49.32 156.161 49.32C156.693 49.32 157.156 49.4265 157.549 49.6397C157.95 49.8446 158.27 50.1028 158.508 50.4143V49.4307H159.92V56.2051H158.508V55.197C158.27 55.5166 157.946 55.783 157.537 55.9961C157.127 56.2093 156.66 56.3158 156.137 56.3158C155.555 56.3158 155.022 56.1683 154.54 55.8732C154.056 55.5699 153.671 55.1519 153.385 54.6191C153.106 54.0781 152.967 53.4675 152.967 52.7872ZM158.508 52.8118C158.508 52.3446 158.409 51.9388 158.213 51.5946C158.024 51.2503 157.774 50.988 157.463 50.8077C157.152 50.6274 156.816 50.5372 156.456 50.5372C156.095 50.5372 155.759 50.6274 155.449 50.8077C155.137 50.9798 154.884 51.238 154.687 51.5823C154.498 51.9184 154.404 52.32 154.404 52.7872C154.404 53.2544 154.498 53.6642 154.687 54.0167C154.884 54.3691 155.137 54.6396 155.449 54.8281C155.768 55.0084 156.103 55.0986 156.456 55.0986C156.816 55.0986 157.152 55.0084 157.463 54.8281C157.774 54.6478 158.024 54.3855 158.213 54.0412C158.409 53.6888 158.508 53.279 158.508 52.8118ZM164.487 49.32C165.01 49.32 165.474 49.4265 165.875 49.6397C166.285 49.8446 166.604 50.1028 166.833 50.4143V49.4307H168.246V56.3158C168.246 56.9387 168.115 57.492 167.853 57.9756C167.59 58.4674 167.209 58.8527 166.71 59.1313C166.219 59.41 165.629 59.5493 164.941 59.5493C164.024 59.5493 163.263 59.3322 162.656 58.8977C162.05 58.4715 161.706 57.8895 161.624 57.1518H163.012C163.119 57.5043 163.344 57.787 163.688 58.0002C164.04 58.2215 164.458 58.3321 164.941 58.3321C165.506 58.3321 165.961 58.16 166.305 57.8158C166.657 57.4715 166.833 56.9715 166.833 56.3158V55.1847C166.595 55.5043 166.272 55.7748 165.863 55.9961C165.462 56.2093 165.003 56.3158 164.487 56.3158C163.897 56.3158 163.356 56.1683 162.865 55.8732C162.382 55.5699 161.997 55.1519 161.71 54.6191C161.432 54.0781 161.293 53.4675 161.293 52.7872C161.293 52.1068 161.432 51.5044 161.71 50.9798C161.997 50.4553 162.382 50.0495 162.865 49.7626C163.356 49.4676 163.897 49.32 164.487 49.32ZM166.833 52.8118C166.833 52.3446 166.735 51.9388 166.538 51.5946C166.35 51.2503 166.1 50.988 165.789 50.8077C165.477 50.6274 165.142 50.5372 164.781 50.5372C164.421 50.5372 164.086 50.6274 163.774 50.8077C163.463 50.9798 163.209 51.238 163.012 51.5823C162.824 51.9184 162.73 52.32 162.73 52.7872C162.73 53.2544 162.824 53.6642 163.012 54.0167C163.209 54.3691 163.463 54.6396 163.774 54.8281C164.094 55.0084 164.43 55.0986 164.781 55.0986C165.142 55.0986 165.477 55.0084 165.789 54.8281C166.1 54.6478 166.35 54.3855 166.538 54.0412C166.735 53.6888 166.833 53.279 166.833 52.8118ZM176.289 52.6519C176.289 52.906 176.273 53.1355 176.24 53.3404H171.068C171.109 53.8814 171.31 54.3159 171.67 54.6437C172.03 54.9715 172.473 55.1355 172.996 55.1355C173.75 55.1355 174.283 54.8199 174.593 54.1888H176.104C175.9 54.8117 175.527 55.324 174.987 55.7256C174.455 56.1191 173.791 56.3158 172.996 56.3158C172.35 56.3158 171.768 56.1724 171.252 55.8855C170.745 55.5904 170.343 55.1805 170.048 54.656C169.762 54.1232 169.618 53.5084 169.618 52.8118C169.618 52.1151 169.758 51.5044 170.036 50.9798C170.323 50.447 170.72 50.0372 171.227 49.7503C171.743 49.4634 172.333 49.32 172.996 49.32C173.635 49.32 174.205 49.4594 174.704 49.738C175.204 50.0167 175.593 50.4101 175.871 50.9183C176.15 51.4183 176.289 51.9962 176.289 52.6519ZM174.827 52.2093C174.819 51.6929 174.635 51.279 174.274 50.9675C173.914 50.656 173.468 50.5003 172.935 50.5003C172.452 50.5003 172.038 50.656 171.694 50.9675C171.35 51.2708 171.146 51.6848 171.08 52.2093H174.827ZM51.5904 66.1025V67.2459H49.3177V74.6474H47.9173V67.2459H45.6323V66.1025H51.5904ZM54.4092 68.8566C54.6139 68.5123 54.8842 68.2459 55.22 68.0574C55.564 67.8607 55.9693 67.7623 56.4362 67.7623V69.2131H56.0799C55.5311 69.2131 55.1135 69.3525 54.8269 69.6311C54.5484 69.9098 54.4092 70.3934 54.4092 71.0819V74.6474H53.0087V67.873H54.4092V68.8566ZM57.2566 71.2295C57.2566 70.5491 57.3959 69.9467 57.6743 69.4221C57.961 68.8976 58.3458 68.4918 58.8291 68.2049C59.3204 67.9099 59.861 67.7623 60.4506 67.7623C60.983 67.7623 61.4457 67.8688 61.8388 68.082C62.2401 68.2869 62.5595 68.5451 62.797 68.8566V67.873H64.2097V74.6474H62.797V73.6393C62.5595 73.9589 62.236 74.2253 61.8265 74.4384C61.417 74.6516 60.9502 74.7581 60.4261 74.7581C59.8446 74.7581 59.3123 74.6106 58.8291 74.3155C58.3458 74.0122 57.961 73.5942 57.6743 73.0614C57.3959 72.5204 57.2566 71.9098 57.2566 71.2295ZM62.797 71.2541C62.797 70.7869 62.6987 70.3811 62.5022 70.0369C62.3138 69.6926 62.064 69.4303 61.7528 69.25C61.4416 69.0697 61.1058 68.9795 60.7455 68.9795C60.3851 68.9795 60.0494 69.0697 59.7381 69.25C59.4269 69.4221 59.173 69.6803 58.9765 70.0246C58.7881 70.3607 58.6939 70.7623 58.6939 71.2295C58.6939 71.6967 58.7881 72.1065 58.9765 72.459C59.173 72.8114 59.4269 73.0819 59.7381 73.2704C60.0575 73.4507 60.3933 73.5409 60.7455 73.5409C61.1058 73.5409 61.4416 73.4507 61.7528 73.2704C62.064 73.0901 62.3138 72.8278 62.5022 72.4835C62.6987 72.1311 62.797 71.7213 62.797 71.2541ZM65.5824 71.2295C65.5824 70.5491 65.7215 69.9467 66.0001 69.4221C66.2866 68.8976 66.6716 68.4918 67.1548 68.2049C67.6462 67.9099 68.1908 67.7623 68.7887 67.7623C69.2309 67.7623 69.6649 67.8607 70.0909 68.0574C70.5249 68.2459 70.8688 68.5 71.1228 68.8197V65.5492H72.5355V74.6474H71.1228V73.627C70.8934 73.9548 70.574 74.2253 70.1646 74.4384C69.7632 74.6516 69.3005 74.7581 68.7764 74.7581C68.1867 74.7581 67.6462 74.6106 67.1548 74.3155C66.6716 74.0122 66.2866 73.5942 66.0001 73.0614C65.7215 72.5204 65.5824 71.9098 65.5824 71.2295ZM71.1228 71.2541C71.1228 70.7869 71.0245 70.3811 70.8279 70.0369C70.6395 69.6926 70.3897 69.4303 70.0786 69.25C69.7673 69.0697 69.4315 68.9795 69.0712 68.9795C68.7108 68.9795 68.375 69.0697 68.0639 69.25C67.7526 69.4221 67.4988 69.6803 67.3022 70.0246C67.1138 70.3607 67.0197 70.7623 67.0197 71.2295C67.0197 71.6967 67.1138 72.1065 67.3022 72.459C67.4988 72.8114 67.7526 73.0819 68.0639 73.2704C68.3833 73.4507 68.719 73.5409 69.0712 73.5409C69.4315 73.5409 69.7673 73.4507 70.0786 73.2704C70.3897 73.0901 70.6395 72.8278 70.8279 72.4835C71.0245 72.1311 71.1228 71.7213 71.1228 71.2541ZM75.0875 66.9754C74.8335 66.9754 74.6207 66.8894 74.4487 66.7173C74.2767 66.5451 74.1907 66.332 74.1907 66.0779C74.1907 65.8239 74.2767 65.6107 74.4487 65.4386C74.6207 65.2665 74.8335 65.1804 75.0875 65.1804C75.3332 65.1804 75.542 65.2665 75.714 65.4386C75.886 65.6107 75.972 65.8239 75.972 66.0779C75.972 66.332 75.886 66.5451 75.714 66.7173C75.542 66.8894 75.3332 66.9754 75.0875 66.9754ZM75.7754 67.873V74.6474H74.375V67.873H75.7754ZM81.0292 67.7623C81.5615 67.7623 82.0366 67.873 82.4543 68.0943C82.8801 68.3156 83.2118 68.6434 83.4493 69.0779C83.6868 69.5123 83.8056 70.0369 83.8056 70.6516V74.6474H82.4174V70.8606C82.4174 70.254 82.2659 69.791 81.9629 69.4713C81.6598 69.1435 81.2462 68.9795 80.7221 68.9795C80.1979 68.9795 79.7802 69.1435 79.4691 69.4713C79.166 69.791 79.0145 70.254 79.0145 70.8606V74.6474H77.6141V67.873H79.0145V68.6475C79.2438 68.3689 79.5345 68.1516 79.8868 67.9959C80.247 67.8402 80.6279 67.7623 81.0292 67.7623ZM88.319 67.7623C88.8428 67.7623 89.3061 67.8688 89.7071 68.082C90.1169 68.2869 90.4363 68.5451 90.6653 68.8566V67.873H92.0781V74.7581C92.0781 75.381 91.9473 75.9343 91.685 76.4179C91.4226 76.9097 91.0418 77.295 90.5425 77.5736C90.0511 77.8523 89.4614 77.9916 88.7735 77.9916C87.8565 77.9916 87.0947 77.7745 86.4887 77.34C85.8826 76.9138 85.5387 76.3318 85.4568 75.5942H86.845C86.9514 75.9466 87.1767 76.2294 87.5206 76.4425C87.8723 76.6638 88.29 76.7745 88.7735 76.7745C89.3386 76.7745 89.7931 76.6023 90.1371 76.2581C90.489 75.9138 90.6653 75.4139 90.6653 74.7581V73.627C90.4275 73.9466 90.1046 74.2171 89.6949 74.4384C89.2938 74.6516 88.8349 74.7581 88.319 74.7581C87.7295 74.7581 87.1889 74.6106 86.6976 74.3155C86.2143 74.0122 85.8294 73.5942 85.5428 73.0614C85.2643 72.5204 85.1251 71.9098 85.1251 71.2295C85.1251 70.5491 85.2643 69.9467 85.5428 69.4221C85.8294 68.8976 86.2143 68.4918 86.6976 68.2049C87.1889 67.9099 87.7295 67.7623 88.319 67.7623ZM90.6653 71.2541C90.6653 70.7869 90.5671 70.3811 90.3705 70.0369C90.1818 69.6926 89.9326 69.4303 89.6211 69.25C89.3096 69.0697 88.9744 68.9795 88.6138 68.9795C88.2532 68.9795 87.918 69.0697 87.6066 69.25C87.2954 69.4221 87.0415 69.6803 86.845 70.0246C86.6566 70.3607 86.5624 70.7623 86.5624 71.2295C86.5624 71.6967 86.6566 72.1065 86.845 72.459C87.0415 72.8114 87.2954 73.0819 87.6066 73.2704C87.9259 73.4507 88.2619 73.5409 88.6138 73.5409C88.9744 73.5409 89.3096 73.4507 89.6211 73.2704C89.9326 73.0901 90.1818 72.8278 90.3705 72.4835C90.5671 72.1311 90.6653 71.7213 90.6653 71.2541ZM102.256 72.9016H98.6811L98.0669 74.6474H96.605L99.6639 66.0902H101.285L104.344 74.6474H102.87L102.256 72.9016ZM101.863 71.7581L100.475 67.7869L99.0742 71.7581H101.863ZM107.075 68.8689C107.313 68.5574 107.636 68.2951 108.046 68.082C108.455 67.8688 108.918 67.7623 109.434 67.7623C110.023 67.7623 110.56 67.9099 111.043 68.2049C111.534 68.4918 111.92 68.8976 112.198 69.4221C112.476 69.9467 112.615 70.5491 112.615 71.2295C112.615 71.9098 112.476 72.5204 112.198 73.0614C111.92 73.5942 111.534 74.0122 111.043 74.3155C110.56 74.6106 110.023 74.7581 109.434 74.7581C108.918 74.7581 108.459 74.6556 108.058 74.4507C107.657 74.2376 107.329 73.9753 107.075 73.6639V77.8687H105.675V67.873H107.075V68.8689ZM111.19 71.2295C111.19 70.7623 111.092 70.3607 110.896 70.0246C110.707 69.6803 110.453 69.4221 110.134 69.25C109.822 69.0697 109.487 68.9795 109.127 68.9795C108.775 68.9795 108.439 69.0697 108.119 69.25C107.808 69.4303 107.554 69.6926 107.358 70.0369C107.169 70.3811 107.075 70.7869 107.075 71.2541C107.075 71.7213 107.169 72.1311 107.358 72.4835C107.554 72.8278 107.808 73.0901 108.119 73.2704C108.439 73.4507 108.775 73.5409 109.127 73.5409C109.487 73.5409 109.822 73.4507 110.134 73.2704C110.453 73.0819 110.707 72.8114 110.896 72.459C111.092 72.1065 111.19 71.6967 111.19 71.2295ZM115.401 68.8689C115.638 68.5574 115.961 68.2951 116.371 68.082C116.781 67.8688 117.243 67.7623 117.759 67.7623C118.349 67.7623 118.885 67.9099 119.369 68.2049C119.86 68.4918 120.245 68.8976 120.523 69.4221C120.801 69.9467 120.941 70.5491 120.941 71.2295C120.941 71.9098 120.801 72.5204 120.523 73.0614C120.245 73.5942 119.86 74.0122 119.369 74.3155C118.885 74.6106 118.349 74.7581 117.759 74.7581C117.243 74.7581 116.784 74.6556 116.383 74.4507C115.982 74.2376 115.654 73.9753 115.401 73.6639V77.8687H114V67.873H115.401V68.8689ZM119.516 71.2295C119.516 70.7623 119.418 70.3607 119.221 70.0246C119.032 69.6803 118.779 69.4221 118.459 69.25C118.148 69.0697 117.813 68.9795 117.452 68.9795C117.1 68.9795 116.764 69.0697 116.445 69.25C116.133 69.4303 115.88 69.6926 115.683 70.0369C115.494 70.3811 115.401 70.7869 115.401 71.2541C115.401 71.7213 115.494 72.1311 115.683 72.4835C115.88 72.8278 116.133 73.0901 116.445 73.2704C116.764 73.4507 117.1 73.5409 117.452 73.5409C117.813 73.5409 118.148 73.4507 118.459 73.2704C118.779 73.0819 119.032 72.8114 119.221 72.459C119.418 72.1065 119.516 71.6967 119.516 71.2295ZM123.726 65.5492V74.6474H122.326V65.5492H123.726ZM126.278 66.9754C126.024 66.9754 125.811 66.8894 125.639 66.7173C125.467 66.5451 125.381 66.332 125.381 66.0779C125.381 65.8239 125.467 65.6107 125.639 65.4386C125.811 65.2665 126.024 65.1804 126.278 65.1804C126.523 65.1804 126.732 65.2665 126.904 65.4386C127.076 65.6107 127.162 65.8239 127.162 66.0779C127.162 66.332 127.076 66.5451 126.904 66.7173C126.732 66.8894 126.523 66.9754 126.278 66.9754ZM126.966 67.873V74.6474H125.565V67.873H126.966ZM128.337 71.2541C128.337 70.5574 128.477 69.9467 128.755 69.4221C129.042 68.8893 129.435 68.4795 129.934 68.1926C130.434 67.9057 131.007 67.7623 131.654 67.7623C132.474 67.7623 133.149 67.959 133.681 68.3525C134.222 68.7377 134.587 69.291 134.774 70.0123H133.263C133.141 69.6762 132.944 69.414 132.674 69.2254C132.403 69.0369 132.064 68.9426 131.654 68.9426C131.081 68.9426 130.622 69.1475 130.278 69.5574C129.943 69.959 129.775 70.5245 129.775 71.2541C129.775 71.9836 129.943 72.5532 130.278 72.963C130.622 73.3729 131.081 73.5778 131.654 73.5778C132.465 73.5778 133.002 73.2212 133.263 72.5081H134.774C134.578 73.1967 134.209 73.7458 133.669 74.1557C133.128 74.5573 132.457 74.7581 131.654 74.7581C131.007 74.7581 130.434 74.6147 129.934 74.3278C129.435 74.0327 129.042 73.6228 128.755 73.0983C128.477 72.5655 128.337 71.9507 128.337 71.2541ZM135.704 71.2295C135.704 70.5491 135.842 69.9467 136.121 69.4221C136.407 68.8976 136.793 68.4918 137.276 68.2049C137.767 67.9099 138.308 67.7623 138.898 67.7623C139.429 67.7623 139.893 67.8688 140.286 68.082C140.687 68.2869 141.006 68.5451 141.244 68.8566V67.873H142.657V74.6474H141.244V73.6393C141.006 73.9589 140.682 74.2253 140.274 74.4384C139.864 74.6516 139.397 74.7581 138.873 74.7581C138.291 74.7581 137.759 74.6106 137.276 74.3155C136.793 74.0122 136.407 73.5942 136.121 73.0614C135.842 72.5204 135.704 71.9098 135.704 71.2295ZM141.244 71.2541C141.244 70.7869 141.146 70.3811 140.949 70.0369C140.761 69.6926 140.51 69.4303 140.2 69.25C139.888 69.0697 139.552 68.9795 139.192 68.9795C138.832 68.9795 138.496 69.0697 138.185 69.25C137.874 69.4221 137.62 69.6803 137.423 70.0246C137.235 70.3607 137.141 70.7623 137.141 71.2295C137.141 71.6967 137.235 72.1065 137.423 72.459C137.62 72.8114 137.874 73.0819 138.185 73.2704C138.505 73.4507 138.84 73.5409 139.192 73.5409C139.552 73.5409 139.888 73.4507 140.2 73.2704C140.51 73.0901 140.761 72.8278 140.949 72.4835C141.146 72.1311 141.244 71.7213 141.244 71.2541ZM146.13 69.0164V72.7663C146.13 73.0204 146.187 73.2048 146.302 73.3196C146.425 73.4261 146.629 73.4794 146.916 73.4794H147.776V74.6474H146.67C146.039 74.6474 145.557 74.4999 145.221 74.2048C144.885 73.9098 144.717 73.4303 144.717 72.7663V69.0164H143.919V67.873H144.717V66.1886H146.13V67.873H147.776V69.0164H146.13ZM149.779 66.9754C149.526 66.9754 149.312 66.8894 149.14 66.7173C148.968 66.5451 148.882 66.332 148.882 66.0779C148.882 65.8239 148.968 65.6107 149.14 65.4386C149.312 65.2665 149.526 65.1804 149.779 65.1804C150.025 65.1804 150.234 65.2665 150.406 65.4386C150.578 65.6107 150.664 65.8239 150.664 66.0779C150.664 66.332 150.578 66.5451 150.406 66.7173C150.234 66.8894 150.025 66.9754 149.779 66.9754ZM150.467 67.873V74.6474H149.067V67.873H150.467ZM155.242 74.7581C154.603 74.7581 154.025 74.6147 153.509 74.3278C152.993 74.0327 152.588 73.6228 152.293 73.0983C151.998 72.5655 151.851 71.9507 151.851 71.2541C151.851 70.5655 152.003 69.9549 152.306 69.4221C152.609 68.8893 153.022 68.4795 153.546 68.1926C154.071 67.9057 154.656 67.7623 155.303 67.7623C155.951 67.7623 156.536 67.9057 157.06 68.1926C157.584 68.4795 157.998 68.8893 158.3 69.4221C158.604 69.9549 158.755 70.5655 158.755 71.2541C158.755 71.9426 158.6 72.5532 158.288 73.086C157.978 73.6188 157.551 74.0327 157.011 74.3278C156.479 74.6147 155.889 74.7581 155.242 74.7581ZM155.242 73.5409C155.602 73.5409 155.938 73.4548 156.249 73.2827C156.568 73.1106 156.826 72.8524 157.023 72.5081C157.219 72.1639 157.318 71.7459 157.318 71.2541C157.318 70.7623 157.224 70.3484 157.035 70.0123C156.847 69.668 156.597 69.4098 156.286 69.2377C155.975 69.0656 155.639 68.9795 155.278 68.9795C154.919 68.9795 154.583 69.0656 154.271 69.2377C153.968 69.4098 153.727 69.668 153.546 70.0123C153.366 70.3484 153.276 70.7623 153.276 71.2541C153.276 71.9836 153.46 72.5491 153.829 72.9508C154.206 73.3442 154.676 73.5409 155.242 73.5409ZM163.555 67.7623C164.087 67.7623 164.562 67.873 164.98 68.0943C165.406 68.3156 165.738 68.6434 165.975 69.0779C166.213 69.5123 166.331 70.0369 166.331 70.6516V74.6474H164.943V70.8606C164.943 70.254 164.792 69.791 164.488 69.4713C164.186 69.1435 163.772 68.9795 163.248 68.9795C162.724 68.9795 162.306 69.1435 161.995 69.4713C161.692 69.791 161.54 70.254 161.54 70.8606V74.6474H160.14V67.873H161.54V68.6475C161.77 68.3689 162.06 68.1516 162.412 67.9959C162.773 67.8402 163.154 67.7623 163.555 67.7623ZM90.6162 93.5464C91.5147 92.7692 92.2211 92.1316 92.7362 91.6354C93.26 91.1296 93.6953 90.6053 94.0419 90.0617C94.3885 89.5181 94.5613 88.9754 94.5613 88.4317C94.5613 87.8697 94.4253 87.4295 94.1542 87.1109C93.8918 86.7924 93.4759 86.6332 92.9047 86.6332C92.3527 86.6332 91.9219 86.8112 91.613 87.1671C91.3138 87.5138 91.1541 87.9821 91.1357 88.5723H89.5913C89.6194 87.5044 89.9379 86.6894 90.546 86.1273C91.1637 85.5559 91.9456 85.2702 92.8906 85.2702C93.9111 85.2702 94.7061 85.5512 95.2774 86.1133C95.8574 86.6753 96.1478 87.4247 96.1478 88.3615C96.1478 89.0359 95.975 89.6867 95.6284 90.3146C95.2914 90.9329 94.8843 91.4905 94.4069 91.9867C93.9392 92.4741 93.3399 93.0406 92.6098 93.6869L91.978 94.249H96.4286V95.5838H89.6053V94.4176L90.6162 93.5464ZM97.9747 90.4692C97.9747 88.8489 98.2467 87.584 98.789 86.6753C99.3418 85.7574 100.287 85.2983 101.625 85.2983C102.964 85.2983 103.905 85.7574 104.447 86.6753C105 87.584 105.275 88.8489 105.275 90.4692C105.275 92.1088 105 93.3919 104.447 94.3192C103.905 95.237 102.964 95.6963 101.625 95.6963C100.287 95.6963 99.3418 95.237 98.789 94.3192C98.2467 93.3919 97.9747 92.1088 97.9747 90.4692ZM103.703 90.4692C103.703 89.7104 103.652 89.0684 103.548 88.5442C103.455 88.0199 103.259 87.5933 102.959 87.2655C102.66 86.9283 102.215 86.7596 101.625 86.7596C101.035 86.7596 100.591 86.9283 100.291 87.2655C99.992 87.5933 99.7911 88.0199 99.6876 88.5442C99.5946 89.0684 99.5472 89.7104 99.5472 90.4692C99.5472 91.2561 99.5946 91.9165 99.6876 92.4504C99.7815 92.9844 99.978 93.4156 100.277 93.7431C100.586 94.0707 101.035 94.2349 101.625 94.2349C102.215 94.2349 102.66 94.0707 102.959 93.7431C103.268 93.4156 103.469 92.9844 103.563 92.4504C103.656 91.9165 103.703 91.2561 103.703 90.4692ZM107.994 93.5464C108.892 92.7692 109.6 92.1316 110.114 91.6354C110.638 91.1296 111.074 90.6053 111.419 90.0617C111.766 89.5181 111.939 88.9754 111.939 88.4317C111.939 87.8697 111.804 87.4295 111.532 87.1109C111.27 86.7924 110.853 86.6332 110.282 86.6332C109.73 86.6332 109.299 86.8112 108.991 87.1671C108.691 87.5138 108.533 87.9821 108.513 88.5723H106.969C106.997 87.5044 107.315 86.6894 107.924 86.1273C108.541 85.5559 109.323 85.2702 110.268 85.2702C111.289 85.2702 112.085 85.5512 112.655 86.1133C113.236 86.6753 113.525 87.4247 113.525 88.3615C113.525 89.0359 113.353 89.6867 113.006 90.3146C112.669 90.9329 112.262 91.4905 111.784 91.9867C111.317 92.4741 110.717 93.0406 109.987 93.6869L109.356 94.249H113.806V95.5838H106.983V94.4176L107.994 93.5464ZM115.016 93.5886V92.3802L119.734 85.6074H121.671V92.1975H122.977V93.5886H121.671V95.7244H120.099V93.5886H115.016ZM120.169 87.2374L116.855 92.1975H120.169V87.2374Z" fill="#989898"/>
<path d="M212.235 56.1541C212.153 56.0866 212.035 56.0652 211.942 56.0964C211.829 56.1311 211.727 56.1613 211.628 56.1898L211.581 56.2037C211.34 56.2741 211.132 56.3345 210.927 56.4172C207.675 57.7101 205.116 59.9253 203.101 63.1888C202.603 63.9952 202.218 64.8333 201.911 65.6693C202.415 62.8576 202.531 61.7622 202.62 58.6161C202.624 58.4841 202.624 58.3498 202.624 58.2165C202.624 57.8525 202.624 57.5087 202.704 57.195C202.799 56.8233 202.991 56.4525 203.176 56.0938C203.228 55.9922 203.281 55.8907 203.324 55.8015C203.339 55.784 203.387 55.7545 203.405 55.7516C204.336 55.6095 205.158 55.2144 205.92 54.5439C206.688 53.8651 207.32 53.034 207.798 52.0732C209.514 48.6296 210.373 44.8235 210.351 40.7617C210.349 40.3699 210.302 39.9884 210.252 39.5735C210.229 39.3877 210.206 39.1975 210.187 39.0006C210.175 38.8926 210.108 38.7966 210.013 38.7499C209.918 38.7039 209.803 38.7071 209.707 38.7652C209.649 38.8015 209.6 38.8311 209.554 38.8573C209.467 38.9092 209.4 38.9497 209.338 38.9952C207.874 40.0452 206.584 41.3524 205.501 42.8795C203.734 45.3755 202.706 48.1979 202.429 51.3028C202.402 50.9567 202.373 50.6106 202.345 50.2645L202.336 50.1389C202.227 48.7821 202.116 47.3789 202.023 45.999C202.001 45.6496 201.934 45.3097 201.869 44.9808C201.743 44.3486 201.625 43.7514 201.815 43.1257C201.858 42.9843 201.894 42.8419 201.93 42.6998C202.02 42.3478 202.452 41.8058 203.115 41.2132L203.14 41.1908C203.385 40.9832 204.642 39.8324 205.355 37.5559C206.078 35.2432 206.024 32.8266 205.984 31.062L205.983 31.0149C205.93 28.5893 205.668 26.7614 205.134 25.0874C205.065 24.8733 204.983 24.6621 204.896 24.4403C204.851 24.3248 204.805 24.2054 204.758 24.0806C204.719 23.9748 204.625 23.8979 204.516 23.8797L204.463 23.8749C204.368 23.8749 204.279 23.9174 204.22 23.9907L203.7 24.6235C201.213 27.6603 199.99 31.2219 200.067 35.2097C200.081 35.912 200.133 36.6324 200.226 37.3762C199.594 35.1922 198.852 33.0663 198.009 31.0211C197.991 30.9763 197.98 30.9209 197.978 30.8738L197.973 30.5942C197.964 30.1908 197.955 29.7733 197.972 29.3626C197.975 29.2945 198.019 29.1722 198.111 29.0518C198.241 28.8796 198.385 28.7112 198.535 28.5361C198.79 28.2389 199.054 27.9321 199.263 27.5818C199.935 26.455 200.25 25.1237 200.255 23.3919C200.265 21.3532 199.951 19.2078 199.266 16.6398C198.892 15.2388 198.327 13.4187 197.276 11.7686C197.204 11.6577 197.125 11.5533 197.04 11.4427C197.002 11.3936 196.961 11.3415 196.921 11.2854C196.861 11.2052 196.779 11.1585 196.646 11.1585C196.54 11.1663 196.445 11.2266 196.393 11.3204C195.073 13.7042 194.416 16.2508 194.384 19.106C194.358 21.4865 194.729 23.5349 195.195 25.1539C194.009 22.9867 192.692 20.8929 191.265 18.9068L191.232 18.8617C191.2 18.8185 191.186 18.7974 191.188 18.8124C191.099 18.1698 191.036 17.6557 190.993 17.2081C190.994 17.2012 191.002 17.1636 191.07 17.052C191.164 16.8911 191.267 16.7335 191.377 16.5668C191.597 16.2313 191.824 15.8843 191.971 15.4957C192.411 14.3227 192.51 12.9925 192.272 11.4304C191.751 7.97285 190.227 4.85952 187.617 1.91195C187.348 1.60931 187.052 1.3417 186.738 1.05885L186.651 0.980032C186.528 0.868771 186.402 0.754916 186.274 0.634574C186.194 0.557373 186.078 0.528505 185.965 0.561591C185.858 0.595326 185.777 0.683554 185.751 0.793192L185.694 1.04361C185.656 1.20968 185.625 1.34073 185.603 1.47242C185.252 3.57112 185.278 5.81901 185.682 8.34522C186.083 10.8507 186.882 13.0117 188.109 14.8888C186.27 12.7194 184.48 10.8977 182.61 9.28332C182.602 9.27226 182.59 9.23888 182.589 9.23045C182.735 7.97026 182.424 6.78304 181.639 5.60103C180.607 4.04762 179.174 2.86366 177.378 2.08257C176.304 1.61612 175.19 1.2032 174.1 0.798707C173.578 0.604732 173.056 0.411406 172.518 0.204132C171.978 -0.0109264 171.747 -0.0492025 171.621 0.0669229C171.46 0.217432 171.499 0.345883 171.57 0.579431L171.592 0.655658C172.251 2.87696 173.125 4.63376 174.266 6.02629C176.36 8.58526 178.808 9.88533 181.748 10.0002C181.851 10.0063 181.933 10.0349 181.966 10.0608C182.38 10.3709 182.685 10.6191 182.954 10.865C183.805 11.6441 184.644 12.4742 185.465 13.3484C184.245 12.5893 182.752 12.2467 181.073 12.3317C180.153 12.3781 179.241 12.5131 178.358 12.6435L178.324 12.6487C178.063 12.687 177.803 12.7249 177.544 12.7615C176.978 12.8385 176.405 12.939 175.901 13.0272C175.696 13.0639 175.208 13.1751 175.095 13.4122C175.057 13.4933 175.059 13.5822 175.104 13.663C175.143 13.7334 175.186 13.7996 175.232 13.8599C176.69 15.7526 178.353 16.9991 180.315 17.6703C182.708 18.4929 184.906 18.4251 186.882 17.4575C187.183 17.2911 187.548 17.2068 187.964 17.2068C188.278 17.2068 188.514 17.2564 188.592 17.2742C188.709 17.2937 188.867 17.3592 188.9 17.4014C190.128 19.0177 191.294 20.744 192.383 22.5576C191.463 21.6623 190.263 21.0586 188.63 20.6656C187.197 20.3239 185.733 20.2507 184.317 20.1793L183.843 20.1553C183.399 20.1326 182.955 20.1044 182.498 20.0755L181.731 20.0282C181.632 20.0282 181.537 20.0761 181.48 20.1559C181.416 20.2419 181.4 20.3534 181.438 20.4537C181.468 20.5374 181.525 20.685 181.554 20.7343C183.047 23.2339 184.8 24.9628 186.913 26.0202C188.98 27.0531 190.846 27.3262 192.728 26.8756C192.946 26.8231 193.199 26.7952 193.46 26.7952C194.26 26.7952 194.819 27.0398 194.936 27.2662C195.972 29.4048 196.896 31.6271 197.694 33.8938C196.858 32.7399 195.688 31.8029 194.208 31.1019C192.737 30.4071 191.206 29.7719 189.698 29.1469C189.052 28.879 188.401 28.6101 187.754 28.335C187.657 28.2929 187.544 28.3016 187.454 28.3609C187.366 28.4197 187.313 28.5176 187.313 28.6231C187.313 28.8254 189.462 34.7942 192.583 37.1462C193.856 38.1058 195.424 39.0928 197.402 39.1391C197.993 39.1512 198.605 39.2349 199.067 39.7606C199.138 39.8443 199.231 39.9096 199.334 39.9443C199.492 39.9962 199.535 40.0929 199.613 40.4224C200.254 43.1134 200.719 45.8871 201.006 48.7036C200.92 48.4178 200.819 48.1291 200.704 47.8369C200.005 46.0642 198.829 44.513 197.004 42.9551C196.064 42.1487 195.078 41.3679 194.125 40.6125L194.08 40.5768C193.646 40.2327 193.213 39.8897 192.781 39.5427C192.692 39.471 192.605 39.3971 192.505 39.3107L192.235 39.0799C192.14 39 192 38.9835 191.89 39.0386C191.777 39.096 191.71 39.2147 191.718 39.3416C191.731 39.532 191.742 39.712 191.752 39.8849L191.757 39.9657C191.779 40.3215 191.799 40.6572 191.835 40.9887C192.172 44.2166 193.131 46.9114 194.767 49.2272C195.778 50.6586 197.231 52.4083 199.494 53.2357C200.046 53.4382 200.446 53.7446 200.874 54.2948C201.278 54.8099 201.353 55.2805 201.343 55.8729C201.305 58.354 201.128 60.8153 200.817 63.2258C200.744 62.555 200.59 61.8644 200.353 61.1469C199.862 59.6612 199.098 58.2168 198.016 56.7312C197.081 55.4447 196.11 54.1537 195.17 52.9046L195.107 52.8212C194.735 52.3265 194.362 51.8312 194 51.3466C193.931 51.247 193.833 51.2114 193.777 51.1915C193.696 51.1523 193.6 51.1484 193.515 51.1848C193.431 51.2204 193.367 51.2908 193.339 51.3771L193.328 51.4108C193.313 51.4562 193.3 51.4964 193.293 51.5367C192.646 55.4052 193.043 58.8711 194.51 62.1336C195.225 63.7289 196.186 65.535 197.878 66.8344C198.651 67.4277 199.262 68.26 199.597 69.1777C199.668 69.3752 199.666 69.4608 199.657 69.4939C198.941 72.4646 198.005 75.3297 196.866 78.0414C197.16 76.6122 197.139 75.1111 196.805 73.5557C196.33 71.3513 195.514 69.2149 194.786 67.3856L194.568 66.8376C194.227 65.9803 193.883 65.1162 193.529 64.2206C193.483 64.1061 193.375 64.0279 193.23 64.0208C193.116 64.0208 193.011 64.086 192.956 64.1918L192.842 64.4071C192.791 64.5015 192.745 64.5894 192.705 64.6802C191.24 67.9869 190.746 71.3766 191.236 74.7553C191.586 77.1711 192.178 78.901 193.158 80.3646C193.665 81.121 194.148 81.9638 194.235 83.0001C194.256 83.2454 194.246 83.4144 194.137 83.6067C192.901 85.7732 191.515 87.8177 189.998 89.7174C190.003 89.7069 190.009 89.6964 190.014 89.6858C191.107 87.6889 191.139 85.5296 191.028 83.6804C190.932 82.0951 190.75 80.5122 190.576 78.9818L190.565 78.8933C190.495 78.2802 190.425 77.6675 190.361 77.0534C190.324 76.7053 190.283 76.3573 190.241 76.0041L190.184 75.526C190.172 75.4202 190.108 75.3287 190.015 75.2827C189.842 75.1925 189.563 75.3316 189.262 75.6885C187.19 78.1404 185.906 80.9112 185.442 83.9243C184.96 87.0483 185.221 89.7218 186.24 92.0974C186.267 92.1606 186.267 92.2897 186.267 92.3327L186.211 93.7001C186.203 93.7984 186.152 93.9091 186.109 93.9504C184.04 95.9439 181.763 97.6766 179.32 99.1195C180.476 98.0727 181.308 96.7079 181.847 94.9779C182.444 93.0599 182.75 91.0637 183.048 89.129L183.073 88.9569C183.179 88.2763 183.289 87.5981 183.401 86.9046L183.528 86.1206C183.546 86.0064 183.501 85.8922 183.412 85.8238C183.324 85.7537 183.198 85.7369 183.096 85.7803L182.986 85.8261C182.868 85.8744 182.765 85.9175 182.668 85.9671C178.049 88.2763 175.008 93.6623 175.438 98.7735C175.504 99.5735 175.431 100.325 175.213 101.07C175.193 101.138 175.127 101.211 175.101 101.224C172.906 102.15 170.82 102.826 168.72 103.289C168.613 103.315 168.527 103.392 168.492 103.496C168.457 103.601 168.478 103.714 168.55 103.8C168.778 104.071 168.978 104.361 169.141 104.666C169.207 104.791 169.367 104.855 169.487 104.823C171.198 104.433 172.863 103.928 174.439 103.319C174.566 103.268 174.664 103.244 174.755 103.258C175.105 103.306 175.476 103.378 175.887 103.48C175.972 103.501 176.042 103.539 176.044 103.536C176.942 105.328 178.486 106.47 180.766 107.026C181.261 107.145 181.773 107.233 182.285 107.287C182.822 107.344 183.421 107.373 184.064 107.373C184.956 107.373 185.591 107.318 185.599 107.317C187.575 107.095 189.262 106.65 190.757 105.956C191.37 105.672 192.068 105.288 192.605 104.604C192.708 104.473 192.691 104.284 192.566 104.174C191.048 102.833 189.503 101.859 187.84 101.196C185.377 100.217 183.134 99.9511 180.935 100.374C180.606 100.439 180.285 100.519 179.973 100.612C182.03 99.3812 184 97.9348 185.86 96.2864C185.895 96.2539 185.954 96.2258 186 96.2179C186.304 96.167 186.709 96.1046 187.122 96.0748C187.161 96.0748 187.209 96.0932 187.214 96.0949C188.336 97.3508 189.779 97.9611 191.629 97.9611C191.724 97.9611 191.817 97.9585 191.912 97.9559C193.923 97.8909 195.945 97.3376 197.922 96.311C199.359 95.561 200.857 94.6872 202.072 93.3848C202.341 93.095 202.581 92.7674 202.794 92.4785L202.815 92.4504C202.909 92.3222 203.004 92.194 203.102 92.0675C203.154 91.999 203.177 91.9103 203.163 91.8216C203.148 91.7364 203.098 91.66 203.014 91.6047C202.992 91.5933 202.478 91.3166 202.008 91.1348C198.864 89.9194 195.69 89.7947 192.661 90.7713C191.67 91.0901 190.736 91.5687 189.828 92.2309C191.509 90.276 193.064 88.1331 194.476 85.8273C194.492 85.803 194.531 85.7372 194.545 85.7252C194.668 85.6463 194.795 85.5718 194.921 85.4981C195.147 85.3655 195.381 85.2282 195.6 85.0648C195.785 84.9263 195.838 84.9227 196.025 85.0434C196.29 85.2156 196.599 85.3051 196.867 85.3755C198.439 85.7784 200.024 85.5776 201.777 84.754C203.377 84.0028 204.608 82.8153 205.701 81.6443C207.289 79.9362 208.327 78.395 208.968 76.7939C209.103 76.4578 209.199 76.1104 209.299 75.7472C209.34 75.5947 209.382 75.4423 209.427 75.2924C209.475 75.1315 209.39 74.9612 209.231 74.9051L209.099 74.8951C208.452 74.8951 202.672 74.9901 199.292 78.2727C198.556 78.987 197.897 79.746 197.296 80.5771C198.632 77.7427 199.767 74.7555 200.68 71.6549L200.694 71.6095C200.705 71.5715 200.721 71.5141 200.733 71.4985L201.616 70.2834C201.65 70.2348 201.653 70.2348 201.705 70.2348C201.729 70.2348 201.753 70.2364 201.782 70.238L201.972 70.2494C202.629 70.2903 203.017 70.2844 203.335 70.2344C204.594 70.0356 205.73 69.4011 206.808 68.2944C209.33 65.7059 211.067 62.4765 212.115 58.4224C212.228 57.9881 212.259 57.5496 212.292 57.0844C212.307 56.8736 212.324 56.6563 212.348 56.4318C212.358 56.3241 212.316 56.2213 212.235 56.1541Z" fill="#989898"/>
<path d="M43.6284 103.287C41.5311 102.823 39.4452 102.148 37.2503 101.221C37.2241 101.209 37.1589 101.136 37.1384 101.069C36.9197 100.323 36.8465 99.5709 36.9139 98.7709C37.3436 93.6597 34.3026 88.2737 29.6837 85.9649C29.5856 85.9149 29.4832 85.8718 29.3651 85.8234L29.2556 85.778C29.1516 85.7336 29.0248 85.7521 28.9409 85.8195C28.8501 85.8896 28.8051 86.0038 28.8236 86.1183L28.95 86.9019C29.0621 87.5954 29.172 88.2737 29.2773 88.9534L29.3039 89.1308C29.6005 91.0611 29.9071 93.0573 30.5044 94.9753C31.0434 96.7053 31.8751 98.0709 33.0318 99.1169C30.588 97.6749 28.3108 95.9413 26.2427 93.9486C26.1993 93.9065 26.1478 93.7958 26.1403 93.7045L26.0849 92.3363C26.0846 92.2879 26.0839 92.1589 26.1114 92.0947C27.1301 89.7192 27.3911 87.0459 26.9098 83.9219C26.4456 80.9089 25.1603 78.138 23.0889 75.6861C22.8464 75.399 22.6325 75.2538 22.453 75.2538C22.4092 75.2538 22.3697 75.2625 22.3386 75.2787C22.2433 75.326 22.1788 75.4179 22.1661 75.5239L22.1108 76.0011C22.0679 76.3553 22.0268 76.703 21.9898 77.0513C21.926 77.6651 21.8559 78.2779 21.7857 78.8909L21.7756 78.9795C21.6006 80.5102 21.4191 82.0931 21.3231 83.678C21.2117 85.5269 21.2447 87.6863 22.3366 89.6841C22.3425 89.6937 22.3477 89.7043 22.3535 89.7148C20.8357 87.8151 19.4502 85.7709 18.2141 83.6047C18.1048 83.412 18.0954 83.243 18.1158 82.9978C18.2036 81.9608 18.6853 81.1181 19.1925 80.3623C20.1722 78.8987 20.7654 77.1688 21.1157 74.7529C21.6054 71.3742 21.1109 67.9848 19.6465 64.6781C19.6064 64.587 19.5594 64.4992 19.5091 64.4048L19.3947 64.1887C19.34 64.0832 19.223 64.0139 19.0994 64.0194C18.9763 64.0258 18.8678 64.1041 18.823 64.2175C18.4678 65.1142 18.1242 65.978 17.783 66.8353L17.5648 67.3831C16.837 69.2129 16.0205 71.3493 15.546 73.5534C15.2115 75.1087 15.1911 76.6099 15.4844 78.0391C14.3461 75.3277 13.4105 72.4625 12.6939 69.4916C12.6858 69.4585 12.6831 69.3728 12.7541 69.1753C13.0893 68.2573 13.6996 67.425 14.4728 66.8317C16.1657 65.5323 17.126 63.7262 17.8419 62.1309C19.3078 58.8683 19.7056 55.4024 19.0573 51.5342C19.0506 51.4937 19.0382 51.4535 19.0236 51.4097L19.012 51.3747C18.9838 51.2881 18.9196 51.218 18.8347 51.1814C18.7517 51.1466 18.6474 51.1531 18.5829 51.1849C18.518 51.2086 18.4198 51.2446 18.356 51.3383C17.9891 51.8288 17.6167 52.3238 17.244 52.8184L17.1814 52.9018C16.2415 54.1509 15.2695 55.442 14.3354 56.7281C13.2532 58.214 12.489 59.6585 11.9987 61.1442C11.7621 61.8617 11.6074 62.5523 11.5345 63.223C11.2231 60.8126 11.0465 58.3516 11.0079 55.8702C10.9988 55.2778 11.074 54.8072 11.4782 54.2918C11.906 53.7423 12.3056 53.4354 12.8566 53.233C15.1204 52.4052 16.5727 50.6558 17.5849 49.2244C19.2201 46.9087 20.1791 44.2141 20.5168 40.9866C20.5528 40.6545 20.5732 40.3184 20.5942 39.9629L20.5994 39.8821C20.6095 39.7092 20.6202 39.5292 20.6338 39.3385C20.6422 39.2119 20.5745 39.0932 20.4614 39.0359C20.3519 38.9807 20.2115 38.9969 20.1162 39.0777L19.8475 39.3079C19.7464 39.3943 19.6599 39.4682 19.5701 39.5402C19.1387 39.8869 18.7057 40.2301 18.2717 40.5743L18.2263 40.6101C17.2738 41.3651 16.2885 42.1459 15.3476 42.9523C13.5219 44.5106 12.3465 46.0618 11.648 47.8344C11.5326 48.1267 11.4315 48.4157 11.3446 48.7018C11.6318 45.885 12.0982 43.1109 12.7386 40.4196C12.8164 40.0903 12.8598 39.9937 13.0196 39.9411C13.12 39.9071 13.2138 39.8415 13.2821 39.7605C13.7466 39.2321 14.3582 39.1484 14.9506 39.1364C16.9277 39.09 18.4956 38.103 19.7684 37.1434C22.8893 34.7911 25.038 28.8226 25.038 28.6202C25.038 28.5148 24.9856 28.4165 24.8964 28.3572C24.8086 28.2991 24.6899 28.2909 24.6005 28.3309C23.9503 28.6069 23.3002 28.8758 22.6271 29.1545C21.1459 29.7691 19.6145 30.4043 18.1437 31.0987C16.6635 31.7997 15.4938 32.7371 14.6576 33.8906C15.4546 31.6243 16.3786 29.4023 17.4132 27.267C17.5321 27.0366 18.0909 26.792 18.8921 26.792C19.1526 26.792 19.4051 26.8199 19.6232 26.8725C21.5057 27.324 23.3721 27.0502 25.438 26.0171C27.5515 24.9596 29.3049 23.2307 30.7983 20.7301C30.8268 20.6818 30.8829 20.5342 30.9131 20.4516C30.951 20.3503 30.9357 20.2388 30.8729 20.1541C30.8146 20.0737 30.7212 20.0256 30.6023 20.0256H30.5997L29.8536 20.0726C29.3963 20.1015 28.9523 20.1297 28.5082 20.1524L28.0341 20.1764C26.6184 20.2478 25.154 20.3211 23.7215 20.6627C22.0877 21.0558 20.8882 21.6595 19.9684 22.5548C21.0571 20.7412 22.2229 19.0155 23.4509 17.3992C23.4839 17.3563 23.6425 17.2908 23.7724 17.2691C23.8372 17.2538 24.0732 17.2042 24.3869 17.2042C24.803 17.2042 25.1674 17.2889 25.4762 17.4588C27.4387 18.4193 29.6426 18.4907 32.0355 17.6681C33.9982 16.997 35.6606 15.7503 37.1177 13.8583C37.165 13.7973 37.2079 13.7308 37.2467 13.6607C37.2911 13.58 37.294 13.4911 37.2551 13.41C37.1424 13.1733 36.6543 13.062 36.4488 13.025C35.9445 12.9368 35.373 12.8362 34.8065 12.7594C34.547 12.723 34.287 12.6851 34.0265 12.6464L33.993 12.6412C33.1102 12.5108 32.1975 12.3759 31.278 12.3296C29.5978 12.2436 28.106 12.5868 26.8851 13.3464C27.7061 12.4719 28.5449 11.6422 29.3966 10.8627C29.6659 10.6169 29.9706 10.3691 30.3857 10.0579C30.4178 10.0333 30.4995 10.0044 30.5997 9.99863C33.5422 9.88341 35.9908 8.58335 38.0845 6.0247C39.2251 4.63184 40.0995 2.87503 40.7584 0.653724L40.7811 0.577496C40.8514 0.343947 40.8903 0.215495 40.7286 0.0649858C40.6038 -0.0511397 40.3841 -0.0167552 39.813 0.209657C39.2944 0.409147 38.7727 0.602797 38.2369 0.801639C37.1606 1.20095 36.0472 1.61387 34.9728 2.08032C33.1772 2.8614 31.7434 4.04537 30.7118 5.59879C29.9262 6.78081 29.6157 7.96834 29.7618 9.223C29.7609 9.23696 29.7486 9.27033 29.7467 9.27429C27.8724 10.8939 26.0806 12.7172 24.2411 14.8872C25.4678 13.0101 26.2674 10.8487 26.6686 8.34332C27.0731 5.81742 27.0987 3.56919 26.7474 1.47049C26.725 1.33912 26.6949 1.20775 26.6563 1.0433L26.599 0.789961C26.573 0.681295 26.4913 0.59339 26.3841 0.559656C26.2768 0.527867 26.1566 0.556087 26.0764 0.632315C25.9482 0.753306 25.8224 0.867486 25.6996 0.978417L25.613 1.05659C25.2986 1.3401 25.0018 1.6077 24.7331 1.91034C22.1224 4.85792 20.5997 7.97126 20.0783 11.4284C19.8407 12.9909 19.9393 14.3212 20.3797 15.4941C20.5255 15.8827 20.753 16.2298 20.9796 16.5743C21.0833 16.7316 21.187 16.8896 21.282 17.0518C21.352 17.1682 21.3578 17.1984 21.3575 17.1929C21.3145 17.6551 21.2525 18.1702 21.1689 18.7885C21.1653 18.7962 21.1536 18.8144 21.1164 18.8637L21.0862 18.9056C19.6586 20.8917 18.3414 22.9855 17.1562 25.1527C17.6222 23.5341 17.9933 21.4853 17.9671 19.1047C17.9353 16.2493 17.2783 13.7026 15.958 11.3181C15.9058 11.2254 15.8111 11.1651 15.6786 11.1559C15.5823 11.1559 15.4896 11.2036 15.429 11.285C15.3895 11.3402 15.3493 11.3921 15.311 11.4414C15.2258 11.5516 15.1461 11.6562 15.0747 11.7677C14.0233 13.4178 13.4595 15.2372 13.0851 16.6382C12.4009 19.2076 12.0865 21.3529 12.0956 23.3903C12.1008 25.1222 12.4161 26.4534 13.0883 27.5799C13.2974 27.9306 13.5605 28.2375 13.825 28.5462C13.9653 28.71 14.1096 28.8784 14.2401 29.0509C14.3316 29.171 14.3756 29.2933 14.3783 29.3614C14.3955 29.772 14.3863 30.1895 14.3776 30.5931L14.3714 30.872C14.3704 30.92 14.3595 30.9752 14.3429 31.0173C13.4989 33.0638 12.7571 35.1907 12.1245 37.375C12.2175 36.6313 12.2699 35.9111 12.2833 35.2086C12.3597 31.2207 11.1376 27.6594 8.64971 24.6223L8.13114 23.9901C8.07118 23.9158 7.98238 23.8737 7.88774 23.8737L7.83588 23.8782C7.72504 23.8967 7.63169 23.9736 7.59313 24.0784C7.54581 24.2045 7.49946 24.3236 7.45441 24.4387C7.36755 24.6612 7.28556 24.8721 7.21619 25.0865C6.68239 26.76 6.42052 28.5881 6.36736 31.0131L6.36639 31.0604C6.32652 32.8248 6.27175 35.2417 6.9958 37.5544C7.70851 39.8312 8.96536 40.9817 9.20913 41.1884L9.23501 41.2117C9.89847 41.8043 10.3305 42.3464 10.42 42.6983C10.4559 42.8404 10.4925 42.9828 10.5353 43.1236C10.7246 43.75 10.6063 44.3468 10.4787 44.9913C10.4151 45.3167 10.349 45.6527 10.326 45.9975C10.2345 47.3774 10.1224 48.7806 10.0139 50.1375L10.0041 50.263C9.97631 50.6091 9.9484 50.9552 9.92085 51.3013C9.64409 48.1964 8.61664 45.3741 6.84898 42.878C5.76647 41.3509 4.47589 40.0443 3.01223 38.9936C2.94904 38.9482 2.88259 38.9077 2.79379 38.8549C2.75068 38.8298 2.70077 38.8 2.64016 38.762C2.54876 38.7072 2.43144 38.7024 2.33713 38.7484C2.24054 38.7955 2.1741 38.8911 2.16308 38.9995C2.14331 39.1957 2.1203 39.3858 2.096 39.5831C2.04705 39.9869 2.0007 40.3684 1.99876 40.7602C1.97704 44.822 2.83559 48.6282 4.55141 52.0718C5.02946 53.0325 5.66114 53.8636 6.42959 54.5428C7.19156 55.2127 8.01382 55.6077 8.94176 55.7498C8.96212 55.7534 9.01073 55.7829 9.01819 55.7887C9.06847 55.8896 9.12059 55.9908 9.1728 56.0924C9.35821 56.4508 9.54976 56.8215 9.64506 57.1933C9.72447 57.5076 9.72447 57.8511 9.72447 58.2151C9.72447 58.3484 9.72447 58.4827 9.72868 58.6143C9.81774 61.7607 9.9348 62.8565 10.4378 65.6678C10.1308 64.8319 9.74553 63.9938 9.248 63.1874C7.23337 59.9238 4.67392 57.7087 1.42348 56.4161C1.21669 56.3327 1.00927 56.2727 0.768784 56.2027L0.720817 56.1884C0.623262 56.1598 0.519872 56.1293 0.409353 56.0956C0.309528 56.0629 0.195768 56.0852 0.114418 56.1527C0.0333915 56.2198 -0.00906618 56.3226 0.00162927 56.4297C0.025613 56.6528 0.0421424 56.8698 0.0573752 57.0817C0.0907584 57.5462 0.122196 57.9847 0.23466 58.4187C1.28346 62.4731 3.01936 65.7022 5.54122 68.2911C6.61951 69.3978 7.75583 70.0323 9.01494 70.2311C9.33259 70.2807 9.72087 70.2869 10.3782 70.246L10.5675 70.2347C10.5962 70.2331 10.6216 70.2315 10.6446 70.2315C10.6965 70.2315 10.7007 70.2315 10.7366 70.2846L11.6172 71.4949C11.6285 71.5108 11.6451 71.5682 11.6564 71.6077L11.6694 71.6512C12.5834 74.7522 13.7174 77.7391 15.0546 80.5737C14.4528 79.7423 13.7932 78.9833 13.0582 78.2694C9.67779 74.9868 3.89833 74.8918 3.25045 74.8918L3.16975 74.8924L3.11886 74.9018C2.96006 74.9582 2.87417 75.1282 2.92311 75.2881C2.96816 75.439 3.01029 75.5914 3.05858 75.7704C3.15095 76.1068 3.24689 76.4543 3.38139 76.7903C4.02182 78.392 5.05993 79.9328 6.64901 81.6409C7.74091 82.8119 8.97186 83.9994 10.5726 84.7504C12.3257 85.5743 13.9086 85.7754 15.4828 85.3719C15.7505 85.3015 16.0585 85.2122 16.3232 85.0404C16.5118 84.9194 16.5634 84.9233 16.7488 85.0615C16.9685 85.2249 17.2022 85.3622 17.4291 85.4951C17.5545 85.5688 17.6809 85.6431 17.7988 85.7177C17.8176 85.7336 17.8578 85.7994 17.8727 85.8237C19.2852 88.1296 20.8412 90.2725 22.5213 92.2265C21.6126 91.5652 20.6795 91.0866 19.6884 90.7678C16.6596 89.7912 13.485 89.915 10.3409 91.1313C9.87162 91.314 9.35724 91.5898 9.32285 91.6091C9.25089 91.6565 9.20132 91.7329 9.18579 91.8207C9.17218 91.9068 9.19456 91.9955 9.24703 92.0631C9.34522 92.1905 9.44017 92.3187 9.53414 92.446L9.55494 92.4741C9.7672 92.7639 10.0077 93.0906 10.2774 93.3813C11.4918 94.6837 12.9895 95.5575 14.4272 96.3075C16.4043 97.3341 18.426 97.8874 20.4367 97.9524C20.5314 97.955 20.626 97.9576 20.7203 97.9576C22.57 97.9576 24.0138 97.3473 25.1268 96.0994C25.1404 96.0897 25.1888 96.0713 25.2154 96.0704C25.6406 96.1011 26.0447 96.1635 26.3468 96.2135C26.3944 96.2214 26.453 96.2504 26.4897 96.2838C28.3491 97.9313 30.3183 99.3768 32.3754 100.608C32.0636 100.515 31.7425 100.435 31.4139 100.37C29.2154 99.9477 26.972 100.213 24.5085 101.192C22.8464 101.855 21.3008 102.829 19.783 104.17C19.658 104.28 19.6404 104.469 19.7435 104.6C20.2805 105.285 20.9793 105.667 21.5922 105.951C23.087 106.647 24.7743 107.092 26.7523 107.313C26.7581 107.313 27.3936 107.368 28.285 107.368C28.9282 107.368 29.5269 107.34 30.0633 107.282C30.5761 107.229 31.0874 107.141 31.5837 107.022C33.8627 106.467 35.4071 105.324 36.2919 103.552C36.3078 103.537 36.3758 103.496 36.4621 103.475C36.8734 103.374 37.2435 103.302 37.5954 103.255C37.6784 103.241 37.7818 103.264 37.9121 103.316C39.486 103.923 41.1516 104.429 42.8592 104.819C42.8832 104.824 42.9082 104.828 42.9331 104.828C43.0479 104.828 43.1536 104.765 43.2093 104.661C43.3723 104.357 43.571 104.066 43.7995 103.795C43.8711 103.71 43.8925 103.597 43.8572 103.491C43.8234 103.389 43.7379 103.312 43.6284 103.287Z" fill="#989898"/>
</svg>
