<svg width="213" height="108" viewBox="0 0 213 108" fill="none" xmlns="http://www.w3.org/2000/svg">
<path d="M75.0373 29.4997C75.0373 30.1619 74.8092 30.7137 74.3529 31.1551C73.9036 31.589 73.2157 31.8059 72.2882 31.8059H70.7596V35.1281H69.7216V27.1707H72.2882C73.185 27.1707 73.8659 27.3876 74.3301 27.8215C74.8013 28.2553 75.0373 28.8147 75.0373 29.4997ZM72.2882 30.9496C72.8655 30.9496 73.292 30.8241 73.5658 30.5729C73.8395 30.3217 73.9764 29.964 73.9764 29.4997C73.9764 28.5179 73.4131 28.027 72.2882 28.027H70.7596V30.9496H72.2882ZM77.4793 29.8879C77.6618 29.5302 77.9207 29.2523 78.255 29.0545C78.5972 28.8566 79.0114 28.7576 79.4984 28.7576V29.8308H79.2246C78.0611 29.8308 77.4793 30.4625 77.4793 31.726V35.1281H76.4413V28.8718H77.4793V29.8879ZM83.5374 35.2309C82.9513 35.2309 82.4195 35.0977 81.9404 34.8313C81.4683 34.565 81.0963 34.1882 80.8225 33.7011C80.5558 33.2064 80.4233 32.6355 80.4233 31.9886C80.4233 31.3492 80.5602 30.786 80.8339 30.2989C81.1147 29.8042 81.4955 29.4275 81.9746 29.1686C82.4537 28.9023 82.9899 28.7691 83.5831 28.7691C84.1762 28.7691 84.7124 28.9023 85.1915 29.1686C85.6706 29.4275 86.047 29.8003 86.3208 30.2875C86.6016 30.7746 86.7429 31.3416 86.7429 31.9886C86.7429 32.6355 86.5981 33.2064 86.3094 33.7011C86.0277 34.1882 85.6434 34.565 85.1572 34.8313C84.6702 35.0977 84.1306 35.2309 83.5374 35.2309ZM83.5374 34.3176C83.9095 34.3176 84.2596 34.23 84.5869 34.055C84.9133 33.88 85.1757 33.6174 85.374 33.2672C85.5793 32.9171 85.682 32.4909 85.682 31.9886C85.682 31.4862 85.5828 31.06 85.3854 30.7099C85.1871 30.3598 84.9291 30.101 84.6097 29.9336C84.2903 29.7585 83.9437 29.671 83.5717 29.671C83.1908 29.671 82.8416 29.7585 82.5222 29.9336C82.2098 30.101 81.9588 30.3598 81.7693 30.7099C81.5789 31.06 81.4841 31.4862 81.4841 31.9886C81.4841 32.4985 81.5754 32.9285 81.7579 33.2786C81.9474 33.6288 82.1984 33.8914 82.5108 34.0664C82.8223 34.2339 83.1645 34.3176 83.5374 34.3176ZM87.8336 31.9771C87.8336 31.3378 87.9625 30.7784 88.2214 30.2989C88.4803 29.8118 88.8339 29.435 89.2823 29.1686C89.7386 28.9023 90.2484 28.7691 90.8109 28.7691C91.2979 28.7691 91.7498 28.8832 92.1683 29.1116C92.5869 29.3323 92.9062 29.6253 93.1265 29.9906V26.6798H94.176V35.1281H93.1265V33.9522C92.9212 34.3252 92.6167 34.6335 92.2139 34.877C91.8112 35.113 91.3391 35.2309 90.7994 35.2309C90.244 35.2309 89.7386 35.0939 89.2823 34.8199C88.8339 34.5459 88.4803 34.1615 88.2214 33.6668C87.9625 33.1721 87.8336 32.6088 87.8336 31.9771ZM93.1265 31.9886C93.1265 31.5167 93.0317 31.1057 92.8413 30.7556C92.6509 30.4054 92.3929 30.1391 92.0656 29.9564C91.7462 29.7661 91.3926 29.671 91.0048 29.671C90.6169 29.671 90.2633 29.7623 89.9439 29.945C89.6245 30.1276 89.37 30.394 89.1796 30.7441C88.9892 31.0943 88.8944 31.5053 88.8944 31.9771C88.8944 32.4566 88.9892 32.8753 89.1796 33.233C89.37 33.5831 89.6245 33.8533 89.9439 34.0436C90.2633 34.2262 90.6169 34.3176 91.0048 34.3176C91.3926 34.3176 91.7462 34.2262 92.0656 34.0436C92.3929 33.8533 92.6509 33.5831 92.8413 33.233C93.0317 32.8753 93.1265 32.4604 93.1265 31.9886ZM101.588 28.8718V35.1281H100.55V34.2034C100.353 34.5231 100.074 34.7742 99.7172 34.9569C99.3671 35.1319 98.9793 35.2195 98.5537 35.2195C98.0667 35.2195 97.6297 35.1205 97.2419 34.9226C96.854 34.7171 96.546 34.4127 96.3179 34.0093C96.0977 33.606 95.9871 33.115 95.9871 32.5366V28.8718H97.0137V32.3996C97.0137 33.0161 97.1699 33.4918 97.4814 33.8266C97.7929 34.154 98.2194 34.3176 98.759 34.3176C99.3145 34.3176 99.7515 34.1463 100.071 33.8038C100.39 33.4613 100.55 32.9628 100.55 32.3082V28.8718H101.588ZM103.067 31.9886C103.067 31.3416 103.196 30.7784 103.455 30.2989C103.713 29.8118 104.071 29.435 104.528 29.1686C104.991 28.9023 105.52 28.7691 106.113 28.7691C106.881 28.7691 107.512 28.9555 108.007 29.3285C108.509 29.7015 108.84 30.219 108.999 30.8811H107.881C107.774 30.5006 107.565 30.1999 107.254 29.9792C106.949 29.7585 106.569 29.6481 106.113 29.6481C105.52 29.6481 105.041 29.8536 104.676 30.2646C104.311 30.668 104.128 31.2427 104.128 31.9886C104.128 32.7421 104.311 33.3243 104.676 33.7353C105.041 34.1463 105.52 34.3518 106.113 34.3518C106.569 34.3518 106.949 34.2453 107.254 34.0321C107.557 33.819 107.767 33.5146 107.881 33.1188H108.999C108.832 33.7581 108.497 34.2719 107.995 34.6601C107.493 35.0406 106.866 35.2309 106.113 35.2309C105.52 35.2309 104.991 35.0977 104.528 34.8313C104.071 34.565 103.713 34.1882 103.455 33.7011C103.196 33.2139 103.067 32.6431 103.067 31.9886ZM111.764 29.7281V33.4156C111.764 33.7201 111.829 33.937 111.958 34.0664C112.087 34.1882 112.312 34.2491 112.631 34.2491H113.395V35.1281H112.46C111.882 35.1281 111.448 34.9949 111.16 34.7286C110.871 34.4622 110.726 34.0245 110.726 33.4156V29.7281H109.916V28.8718H110.726V27.2963H111.764V28.8718H113.395V29.7281H111.764ZM124.048 27.1707V35.1281H123.01V31.5205H118.96V35.1281H117.922V27.1707H118.96V30.6642H123.01V27.1707H124.048ZM131.478 28.8718V35.1281H130.44V34.2034C130.243 34.5231 129.966 34.7742 129.608 34.9569C129.258 35.1319 128.871 35.2195 128.444 35.2195C127.958 35.2195 127.52 35.1205 127.132 34.9226C126.744 34.7171 126.436 34.4127 126.208 34.0093C125.988 33.606 125.877 33.115 125.877 32.5366V28.8718H126.904V32.3996C126.904 33.0161 127.06 33.4918 127.372 33.8266C127.684 34.154 128.11 34.3176 128.649 34.3176C129.205 34.3176 129.642 34.1463 129.961 33.8038C130.281 33.4613 130.44 32.9628 130.44 32.3082V28.8718H131.478ZM136.391 28.7576C137.151 28.7576 137.767 28.9898 138.239 29.4541C138.711 29.9107 138.947 30.5729 138.947 31.4406V35.1281H137.92V31.589C137.92 30.9648 137.764 30.4892 137.452 30.1619C137.14 29.827 136.714 29.6596 136.175 29.6596C135.627 29.6596 135.189 29.8308 134.863 30.1733C134.543 30.5158 134.384 31.0144 134.384 31.6689V35.1281H133.346V28.8718H134.384V29.7623C134.589 29.4426 134.866 29.1953 135.216 29.0202C135.574 28.8452 135.965 28.7576 136.391 28.7576ZM142.022 29.7281V33.4156C142.022 33.7201 142.087 33.937 142.216 34.0664C142.345 34.1882 142.57 34.2491 142.889 34.2491H143.653V35.1281H142.718C142.14 35.1281 141.706 34.9949 141.418 34.7286C141.129 34.4622 140.984 34.0245 140.984 33.4156V29.7281H140.174V28.8718H140.984V27.2963H142.022V28.8718H143.653V29.7281H142.022Z" fill="#989898"/>
<path d="M36.0853 51.8158C36.5442 51.8978 36.9329 52.1396 37.2523 52.5412C37.5717 52.9428 37.7314 53.3977 37.7314 53.9059C37.7314 54.3404 37.6174 54.7338 37.3875 55.0863C37.1664 55.4305 36.8434 55.7051 36.417 55.91C35.9914 56.1067 35.4956 56.2051 34.9305 56.2051H31.5154V47.6602H34.7708C35.3526 47.6602 35.8519 47.7585 36.2696 47.9552C36.6872 48.1519 37.0031 48.4183 37.2155 48.7544C37.4287 49.0822 37.5349 49.4511 37.5349 49.8609C37.5349 50.3527 37.4041 50.7626 37.1418 51.0904C36.8803 51.4183 36.5275 51.6601 36.0853 51.8158ZM32.9158 51.2503H34.648C35.1069 51.2503 35.4631 51.1478 35.7167 50.9429C35.9791 50.7297 36.1098 50.4265 36.1098 50.0331C36.1098 49.6478 35.9791 49.3487 35.7167 49.1355C35.4631 48.9142 35.1069 48.8036 34.648 48.8036H32.9158V51.2503ZM34.8077 55.0617C35.2833 55.0617 35.6553 54.9469 35.9256 54.7174C36.1958 54.4879 36.331 54.1683 36.331 53.7584C36.331 53.3404 36.188 53.0084 35.901 52.7625C35.615 52.5166 35.2341 52.3937 34.7586 52.3937H32.9158V55.0617H34.8077ZM45.4576 52.6519C45.4576 52.9059 45.441 53.1355 45.4085 53.3404H40.2366C40.277 53.8814 40.4779 54.3158 40.8386 54.6436C41.1983 54.9715 41.6406 55.1354 42.1653 55.1354C42.9182 55.1354 43.4508 54.8199 43.7623 54.1887H45.2734C45.068 54.8116 44.696 55.324 44.1554 55.7256C43.6228 56.119 42.9594 56.3157 42.1653 56.3157C41.5177 56.3157 40.9369 56.1723 40.4209 55.8854C39.9129 55.5903 39.5118 55.1805 39.217 54.6559C38.9301 54.1231 38.7871 53.5084 38.7871 52.8117C38.7871 52.115 38.9257 51.5043 39.2047 50.9798C39.4908 50.447 39.8883 50.0372 40.3963 49.7503C40.9123 49.4634 41.5019 49.32 42.1653 49.32C42.8041 49.32 43.3727 49.4593 43.8729 49.738C44.3722 50.0166 44.7609 50.4101 45.0399 50.9183C45.3181 51.4183 45.4576 51.9961 45.4576 52.6519ZM43.9957 52.2093C43.987 51.6929 43.8027 51.279 43.4429 50.9675C43.0823 50.656 42.6357 50.5003 42.1039 50.5003C41.6204 50.5003 41.2071 50.656 40.8632 50.9675C40.5192 51.2707 40.3139 51.6847 40.2489 52.2093H43.9957ZM49.2922 56.3157C48.7604 56.3157 48.2813 56.2215 47.8549 56.033C47.4372 55.8362 47.1055 55.5739 46.8598 55.2461C46.6141 54.91 46.4834 54.5371 46.4667 54.1273H47.9163C47.9409 54.4142 48.076 54.6559 48.3217 54.8527C48.5762 55.0412 48.8912 55.1354 49.2676 55.1354C49.6607 55.1354 49.9643 55.0617 50.1767 54.9141C50.3978 54.7584 50.5084 54.5617 50.5084 54.324C50.5084 54.0699 50.3855 53.8814 50.1398 53.7584C49.9029 53.6355 49.5221 53.5002 48.9974 53.3527C48.4902 53.2133 48.076 53.0781 47.7566 52.9469C47.4372 52.8158 47.1591 52.615 46.9213 52.3445C46.6922 52.074 46.5773 51.7175 46.5773 51.2748C46.5773 50.9142 46.6843 50.5863 46.8967 50.2913C47.1099 49.988 47.4126 49.7503 47.8058 49.5782C48.2076 49.406 48.6657 49.32 49.1816 49.32C49.9521 49.32 50.5698 49.5167 51.0366 49.9101C51.5122 50.2954 51.7658 50.8241 51.7983 51.4962H50.3978C50.3733 51.1929 50.2504 50.9511 50.0293 50.7708C49.8082 50.5905 49.5098 50.5003 49.1325 50.5003C48.764 50.5003 48.4814 50.5699 48.2848 50.7093C48.0883 50.8487 47.99 51.0331 47.99 51.2626C47.99 51.4428 48.0558 51.5945 48.1866 51.7175C48.3182 51.8404 48.4779 51.9388 48.6657 52.0125C48.8543 52.0781 49.1325 52.1642 49.501 52.2707C49.9924 52.4018 50.3943 52.5371 50.7049 52.6765C51.0243 52.8076 51.299 53.0043 51.528 53.2666C51.7579 53.5289 51.8764 53.8772 51.8843 54.3117C51.8843 54.6969 51.7781 55.0412 51.5649 55.3444C51.3525 55.6477 51.0489 55.8854 50.6558 56.0576C50.2715 56.2297 49.8169 56.3157 49.2922 56.3157ZM55.0318 50.574V54.324C55.0318 54.578 55.0888 54.7625 55.2038 54.8772C55.3266 54.9838 55.5311 55.0371 55.818 55.0371H56.6779V56.2051H55.5723C54.9414 56.2051 54.4588 56.0575 54.1227 55.7625C53.7866 55.4674 53.619 54.9879 53.619 54.324V50.574H52.8205V49.4306H53.619V47.7462H55.0318V49.4306H56.6779V50.574H55.0318ZM66.6759 47.6602V48.8036H64.4032V56.2051H63.0028V48.8036H60.7178V47.6602H66.6759ZM69.4944 50.4142C69.6988 50.0699 69.9691 49.8036 70.3051 49.615C70.6491 49.4183 71.0545 49.32 71.5213 49.32V50.7708H71.1651C70.6167 50.7708 70.199 50.9101 69.912 51.1888C69.6339 51.4674 69.4944 51.9511 69.4944 52.6396V56.2051H68.0939V49.4306H69.4944V50.4142ZM72.3418 52.7871C72.3418 52.1068 72.4813 51.5043 72.7594 50.9798C73.0464 50.4552 73.4307 50.0495 73.9142 49.7626C74.4056 49.4675 74.9461 49.32 75.5358 49.32C76.0684 49.32 76.5308 49.4265 76.924 49.6396C77.325 49.8445 77.6444 50.1027 77.8822 50.4142V49.4306H79.2949V56.2051H77.8822V55.1969C77.6444 55.5166 77.3215 55.7829 76.9117 55.9961C76.5019 56.2092 76.0351 56.3157 75.5112 56.3157C74.9295 56.3157 74.3977 56.1682 73.9142 55.8731C73.4307 55.5699 73.0464 55.1519 72.7594 54.6191C72.4813 54.0781 72.3418 53.4675 72.3418 52.7871ZM77.8822 52.8117C77.8822 52.3445 77.7839 51.9388 77.5873 51.5945C77.3987 51.2503 77.1495 50.9879 76.838 50.8076C76.5265 50.6273 76.1913 50.5372 75.8306 50.5372C75.47 50.5372 75.1348 50.6273 74.8233 50.8076C74.5118 50.9798 74.2582 51.238 74.0616 51.5822C73.873 51.9183 73.7791 52.3199 73.7791 52.7871C73.7791 53.2543 73.873 53.6642 74.0616 54.0166C74.2582 54.369 74.5118 54.6395 74.8233 54.8281C75.1427 55.0084 75.4788 55.0986 75.8306 55.0986C76.1913 55.0986 76.5265 55.0084 76.838 54.8281C77.1495 54.6478 77.3987 54.3854 77.5873 54.0412C77.7839 53.6888 77.8822 53.2789 77.8822 52.8117ZM80.6673 52.7871C80.6673 52.1068 80.8068 51.5043 81.085 50.9798C81.3719 50.4552 81.7571 50.0495 82.2397 49.7626C82.7311 49.4675 83.276 49.32 83.8736 49.32C84.3158 49.32 84.7502 49.4183 85.1758 49.615C85.6101 49.8036 85.9541 50.0577 86.2077 50.3773V47.1069H87.6204V56.2051H86.2077V55.1846C85.9787 55.5125 85.6593 55.7829 85.2495 55.9961C84.8485 56.2092 84.386 56.3157 83.8613 56.3157C83.2716 56.3157 82.7311 56.1682 82.2397 55.8731C81.7571 55.5699 81.3719 55.1519 81.085 54.6191C80.8068 54.0781 80.6673 53.4675 80.6673 52.7871ZM86.2077 52.8117C86.2077 52.3445 86.1094 51.9388 85.9129 51.5945C85.7251 51.2503 85.475 50.9879 85.1635 50.8076C84.8529 50.6273 84.5168 50.5372 84.1561 50.5372C83.7964 50.5372 83.4603 50.6273 83.1488 50.8076C82.8382 50.9798 82.5837 51.238 82.3871 51.5822C82.1994 51.9183 82.1046 52.3199 82.1046 52.7871C82.1046 53.2543 82.1994 53.6642 82.3871 54.0166C82.5837 54.369 82.8382 54.6395 83.1488 54.8281C83.4682 55.0084 83.8043 55.0986 84.1561 55.0986C84.5168 55.0986 84.8529 55.0084 85.1635 54.8281C85.475 54.6478 85.7251 54.3854 85.9129 54.0412C86.1094 53.6888 86.2077 53.2789 86.2077 52.8117ZM90.173 48.5331C89.9185 48.5331 89.7062 48.447 89.5342 48.2749C89.3622 48.1028 89.2762 47.8896 89.2762 47.6356C89.2762 47.3815 89.3622 47.1684 89.5342 46.9962C89.7062 46.8241 89.9185 46.738 90.173 46.738C90.4187 46.738 90.6275 46.8241 90.7995 46.9962C90.9715 47.1684 91.0575 47.3815 91.0575 47.6356C91.0575 47.8896 90.9715 48.1028 90.7995 48.2749C90.6275 48.447 90.4187 48.5331 90.173 48.5331ZM90.8609 49.4306V56.2051H89.4605V49.4306H90.8609ZM96.1144 49.32C96.647 49.32 97.1217 49.4306 97.5394 49.6519C97.965 49.8732 98.2967 50.2011 98.5345 50.6355C98.7723 51.07 98.8907 51.5945 98.8907 52.2093V56.2051H97.5026V52.4183C97.5026 51.8117 97.3508 51.3486 97.048 51.0289C96.7453 50.7011 96.3311 50.5372 95.8073 50.5372C95.2834 50.5372 94.8657 50.7011 94.5542 51.0289C94.2515 51.3486 94.0997 51.8117 94.0997 52.4183V56.2051H92.6992V49.4306H94.0997V50.2052C94.3287 49.9265 94.6201 49.7093 94.9719 49.5536C95.3326 49.3979 95.7134 49.32 96.1144 49.32ZM103.404 49.32C103.928 49.32 104.391 49.4265 104.793 49.6396C105.202 49.8445 105.521 50.1027 105.751 50.4142V49.4306H107.164V56.3157C107.164 56.9387 107.032 57.4919 106.77 57.9755C106.508 58.4673 106.127 58.8526 105.628 59.1313C105.137 59.4099 104.547 59.5493 103.859 59.5493C102.941 59.5493 102.18 59.3321 101.574 58.8977C100.968 58.4715 100.624 57.8895 100.542 57.1518H101.93C102.037 57.5042 102.262 57.787 102.606 58.0001C102.958 58.2214 103.376 58.3321 103.859 58.3321C104.424 58.3321 104.879 58.16 105.223 57.8157C105.574 57.4715 105.751 56.9715 105.751 56.3157V55.1846C105.513 55.5043 105.189 55.7748 104.78 55.9961C104.378 56.2092 103.92 56.3157 103.404 56.3157C102.815 56.3157 102.274 56.1682 101.783 55.8731C101.299 55.5699 100.914 55.1519 100.628 54.6191C100.349 54.0781 100.21 53.4675 100.21 52.7871C100.21 52.1068 100.349 51.5043 100.628 50.9798C100.914 50.4552 101.299 50.0495 101.783 49.7626C102.274 49.4675 102.815 49.32 103.404 49.32ZM105.751 52.8117C105.751 52.3445 105.653 51.9388 105.456 51.5945C105.267 51.2503 105.017 50.9879 104.707 50.8076C104.395 50.6273 104.059 50.5372 103.699 50.5372C103.339 50.5372 103.003 50.6273 102.692 50.8076C102.38 50.9798 102.127 51.238 101.93 51.5822C101.742 51.9183 101.648 52.3199 101.648 52.7871C101.648 53.2543 101.742 53.6642 101.93 54.0166C102.127 54.369 102.38 54.6395 102.692 54.8281C103.011 55.0084 103.347 55.0986 103.699 55.0986C104.059 55.0986 104.395 55.0084 104.707 54.8281C105.017 54.6478 105.267 54.3854 105.456 54.0412C105.653 53.6888 105.751 53.2789 105.751 52.8117ZM117.341 54.4592H113.767L113.152 56.2051H111.69L114.749 47.6479H116.371L119.43 56.2051H117.956L117.341 54.4592ZM116.948 53.3158L115.56 49.3445L114.16 53.3158H116.948ZM122.16 50.4265C122.397 50.115 122.721 49.8528 123.13 49.6396C123.54 49.4265 124.002 49.32 124.518 49.32C125.108 49.32 125.645 49.4675 126.128 49.7626C126.619 50.0495 127.004 50.4552 127.282 50.9798C127.561 51.5043 127.7 52.1068 127.7 52.7871C127.7 53.4675 127.561 54.0781 127.282 54.6191C127.004 55.1519 126.619 55.5699 126.128 55.8731C125.645 56.1682 125.108 56.3157 124.518 56.3157C124.002 56.3157 123.544 56.2133 123.142 56.0084C122.741 55.7952 122.414 55.533 122.16 55.2215V59.4263H120.759V49.4306H122.16V50.4265ZM126.275 52.7871C126.275 52.3199 126.177 51.9183 125.98 51.5822C125.792 51.238 125.538 50.9798 125.219 50.8076C124.908 50.6273 124.572 50.5372 124.211 50.5372C123.859 50.5372 123.523 50.6273 123.204 50.8076C122.893 50.9879 122.639 51.2503 122.442 51.5945C122.254 51.9388 122.16 52.3445 122.16 52.8117C122.16 53.2789 122.254 53.6888 122.442 54.0412C122.639 54.3854 122.893 54.6478 123.204 54.8281C123.523 55.0084 123.859 55.0986 124.211 55.0986C124.572 55.0986 124.908 55.0084 125.219 54.8281C125.538 54.6395 125.792 54.369 125.98 54.0166C126.177 53.6642 126.275 53.2543 126.275 52.7871ZM130.486 50.4265C130.723 50.115 131.047 49.8528 131.457 49.6396C131.865 49.4265 132.329 49.32 132.845 49.32C133.434 49.32 133.971 49.4675 134.454 49.7626C134.945 50.0495 135.33 50.4552 135.609 50.9798C135.887 51.5043 136.026 52.1068 136.026 52.7871C136.026 53.4675 135.887 54.0781 135.609 54.6191C135.33 55.1519 134.945 55.5699 134.454 55.8731C133.971 56.1682 133.434 56.3157 132.845 56.3157C132.329 56.3157 131.87 56.2133 131.469 56.0084C131.067 55.7952 130.74 55.533 130.486 55.2215V59.4263H129.086V49.4306H130.486V50.4265ZM134.601 52.7871C134.601 52.3199 134.503 51.9183 134.307 51.5822C134.118 51.238 133.864 50.9798 133.545 50.8076C133.233 50.6273 132.897 50.5372 132.538 50.5372C132.185 50.5372 131.85 50.6273 131.53 50.8076C131.219 50.9879 130.965 51.2503 130.769 51.5945C130.58 51.9388 130.486 52.3445 130.486 52.8117C130.486 53.2789 130.58 53.6888 130.769 54.0412C130.965 54.3854 131.219 54.6478 131.53 54.8281C131.85 55.0084 132.185 55.0986 132.538 55.0986C132.897 55.0986 133.233 55.0084 133.545 54.8281C133.864 54.6395 134.118 54.369 134.307 54.0166C134.503 53.6642 134.601 53.2543 134.601 52.7871ZM138.812 47.1069V56.2051H137.411V47.1069H138.812ZM141.362 48.5331C141.109 48.5331 140.896 48.447 140.724 48.2749C140.552 48.1028 140.466 47.8896 140.466 47.6356C140.466 47.3815 140.552 47.1684 140.724 46.9962C140.896 46.8241 141.109 46.738 141.362 46.738C141.608 46.738 141.817 46.8241 141.989 46.9962C142.161 47.1684 142.247 47.3815 142.247 47.6356C142.247 47.8896 142.161 48.1028 141.989 48.2749C141.817 48.447 141.608 48.5331 141.362 48.5331ZM142.05 49.4306V56.2051H140.65V49.4306H142.05ZM143.423 52.8117C143.423 52.115 143.562 51.5043 143.84 50.9798C144.127 50.447 144.52 50.0372 145.02 49.7503C145.519 49.4634 146.093 49.32 146.74 49.32C147.558 49.32 148.234 49.5167 148.767 49.9101C149.307 50.2954 149.671 50.8487 149.86 51.5699H148.349C148.226 51.2338 148.029 50.9716 147.759 50.7831C147.489 50.5945 147.149 50.5003 146.74 50.5003C146.167 50.5003 145.708 50.7052 145.364 51.115C145.028 51.5166 144.86 52.0822 144.86 52.8117C144.86 53.5412 145.028 54.1108 145.364 54.5207C145.708 54.9306 146.167 55.1354 146.74 55.1354C147.55 55.1354 148.087 54.7789 148.349 54.0658H149.86C149.663 54.7543 149.295 55.3034 148.754 55.7133C148.214 56.1149 147.542 56.3157 146.74 56.3157C146.093 56.3157 145.519 56.1723 145.02 55.8854C144.52 55.5903 144.127 55.1805 143.84 54.6559C143.562 54.1231 143.423 53.5084 143.423 52.8117ZM150.788 52.7871C150.788 52.1068 150.928 51.5043 151.206 50.9798C151.493 50.4552 151.878 50.0495 152.361 49.7626C152.852 49.4675 153.393 49.32 153.982 49.32C154.515 49.32 154.977 49.4265 155.37 49.6396C155.772 49.8445 156.092 50.1027 156.329 50.4142V49.4306H157.741V56.2051H156.329V55.1969C156.092 55.5166 155.768 55.7829 155.358 55.9961C154.949 56.2092 154.482 56.3157 153.958 56.3157C153.377 56.3157 152.844 56.1682 152.361 55.8731C151.878 55.5699 151.493 55.1519 151.206 54.6191C150.928 54.0781 150.788 53.4675 150.788 52.7871ZM156.329 52.8117C156.329 52.3445 156.23 51.9388 156.034 51.5945C155.846 51.2503 155.596 50.9879 155.284 50.8076C154.974 50.6273 154.638 50.5372 154.277 50.5372C153.917 50.5372 153.581 50.6273 153.27 50.8076C152.959 50.9798 152.705 51.238 152.508 51.5822C152.32 51.9183 152.226 52.3199 152.226 52.7871C152.226 53.2543 152.32 53.6642 152.508 54.0166C152.705 54.369 152.959 54.6395 153.27 54.8281C153.589 55.0084 153.925 55.0986 154.277 55.0986C154.638 55.0986 154.974 55.0084 155.284 54.8281C155.596 54.6478 155.846 54.3854 156.034 54.0412C156.23 53.6888 156.329 53.2789 156.329 52.8117ZM161.215 50.574V54.324C161.215 54.578 161.272 54.7625 161.387 54.8772C161.51 54.9838 161.715 55.0371 162.002 55.0371H162.861V56.2051H161.756C161.125 56.2051 160.641 56.0575 160.306 55.7625C159.97 55.4674 159.803 54.9879 159.803 54.324V50.574H159.004V49.4306H159.803V47.7462H161.215V49.4306H162.861V50.574H161.215ZM164.865 48.5331C164.61 48.5331 164.398 48.447 164.226 48.2749C164.054 48.1028 163.968 47.8896 163.968 47.6356C163.968 47.3815 164.054 47.1684 164.226 46.9962C164.398 46.8241 164.61 46.738 164.865 46.738C165.11 46.738 165.319 46.8241 165.491 46.9962C165.663 47.1684 165.749 47.3815 165.749 47.6356C165.749 47.8896 165.663 48.1028 165.491 48.2749C165.319 48.447 165.11 48.5331 164.865 48.5331ZM165.553 49.4306V56.2051H164.152V49.4306H165.553ZM170.327 56.3157C169.688 56.3157 169.111 56.1723 168.595 55.8854C168.079 55.5903 167.674 55.1805 167.379 54.6559C167.084 54.1231 166.937 53.5084 166.937 52.8117C166.937 52.1232 167.088 51.5126 167.391 50.9798C167.694 50.447 168.108 50.0372 168.632 49.7503C169.156 49.4634 169.742 49.32 170.388 49.32C171.035 49.32 171.621 49.4634 172.145 49.7503C172.669 50.0372 173.083 50.447 173.386 50.9798C173.689 51.5126 173.84 52.1232 173.84 52.8117C173.84 53.5002 173.685 54.1108 173.374 54.6436C173.062 55.1764 172.637 55.5903 172.096 55.8854C171.563 56.1723 170.974 56.3157 170.327 56.3157ZM170.327 55.0986C170.688 55.0986 171.023 55.0125 171.334 54.8404C171.654 54.6682 171.912 54.41 172.108 54.0658C172.305 53.7215 172.403 53.3035 172.403 52.8117C172.403 52.3199 172.309 51.906 172.121 51.5699C171.932 51.2257 171.683 50.9675 171.371 50.7953C171.06 50.6232 170.725 50.5372 170.364 50.5372C170.003 50.5372 169.668 50.6232 169.357 50.7953C169.054 50.9675 168.812 51.2257 168.632 51.5699C168.452 51.906 168.362 52.3199 168.362 52.8117C168.362 53.5412 168.546 54.1068 168.914 54.5084C169.291 54.9018 169.762 55.0986 170.327 55.0986ZM178.64 49.32C179.172 49.32 179.648 49.4306 180.065 49.6519C180.491 49.8732 180.823 50.2011 181.06 50.6355C181.297 51.07 181.417 51.5945 181.417 52.2093V56.2051H180.028V52.4183C180.028 51.8117 179.877 51.3486 179.574 51.0289C179.27 50.7011 178.857 50.5372 178.333 50.5372C177.808 50.5372 177.391 50.7011 177.08 51.0289C176.777 51.3486 176.626 51.8117 176.626 52.4183V56.2051H175.225V49.4306H176.626V50.2052C176.855 49.9265 177.145 49.7093 177.498 49.5536C177.858 49.3979 178.238 49.32 178.64 49.32ZM91.2567 75.1041C92.1552 74.3266 92.8616 73.6895 93.3767 73.1931C93.9005 72.6872 94.3358 72.1627 94.6824 71.6194C95.0281 71.076 95.2018 70.5327 95.2018 69.9894C95.2018 69.4273 95.0658 68.9871 94.7947 68.6686C94.5323 68.3501 94.1155 68.1908 93.5452 68.1908C92.9923 68.1908 92.5624 68.3688 92.2535 68.7248C91.9534 69.0714 91.7946 69.5398 91.7761 70.1299H90.2318C90.2599 69.062 90.5775 68.247 91.1865 67.685C91.8042 67.1135 92.5852 66.8279 93.5311 66.8279C94.5507 66.8279 95.3466 67.1089 95.9178 67.6709C96.4978 68.233 96.7883 68.9824 96.7883 69.9191C96.7883 70.5936 96.6146 71.2446 96.2688 71.8723C95.9319 72.4905 95.5247 73.0479 95.0474 73.5444C94.5788 74.0315 93.9804 74.5982 93.2503 75.2446L92.6185 75.8066H97.0691V77.1415H90.2458V75.9752L91.2567 75.1041ZM98.6152 72.0268C98.6152 70.4063 98.8864 69.1417 99.4295 68.233C99.9814 67.315 100.927 66.856 102.266 66.856C103.604 66.856 104.544 67.315 105.087 68.233C105.639 69.1417 105.916 70.4063 105.916 72.0268C105.916 73.6662 105.639 74.9495 105.087 75.8769C104.544 76.7949 103.604 77.2539 102.266 77.2539C100.927 77.2539 99.9814 76.7949 99.4295 75.8769C98.8864 74.9495 98.6152 73.6662 98.6152 72.0268ZM104.343 72.0268C104.343 71.2681 104.292 70.6264 104.189 70.1018C104.095 69.5773 103.899 69.151 103.599 68.8231C103.3 68.4859 102.855 68.3173 102.266 68.3173C101.676 68.3173 101.231 68.4859 100.932 68.8231C100.633 69.151 100.431 69.5773 100.328 70.1018C100.234 70.6264 100.188 71.2681 100.188 72.0268C100.188 72.8137 100.234 73.4741 100.328 74.0081C100.422 74.542 100.619 74.973 100.918 75.3008C101.227 75.6286 101.676 75.7926 102.266 75.7926C102.855 75.7926 103.3 75.6286 103.599 75.3008C103.908 74.973 104.109 74.542 104.203 74.0081C104.297 73.4741 104.343 72.8137 104.343 72.0268ZM108.634 75.1041C109.533 74.3266 110.239 73.6895 110.754 73.1931C111.278 72.6872 111.713 72.1627 112.06 71.6194C112.407 71.076 112.579 70.5327 112.579 69.9894C112.579 69.4273 112.443 68.9871 112.172 68.6686C111.91 68.3501 111.494 68.1908 110.923 68.1908C110.371 68.1908 109.94 68.3688 109.631 68.7248C109.332 69.0714 109.172 69.5398 109.154 70.1299H107.609C107.637 69.062 107.956 68.247 108.564 67.685C109.182 67.1135 109.964 66.8279 110.909 66.8279C111.929 66.8279 112.724 67.1089 113.295 67.6709C113.875 68.233 114.166 68.9824 114.166 69.9191C114.166 70.5936 113.993 71.2446 113.646 71.8723C113.309 72.4905 112.902 73.0479 112.425 73.5444C111.957 74.0315 111.358 74.5982 110.628 75.2446L109.996 75.8066H114.447V77.1415H107.623V75.9752L108.634 75.1041ZM115.824 69.5679C115.88 68.6967 116.213 68.0176 116.821 67.5304C117.439 67.0433 118.225 66.7998 119.18 66.7998C119.835 66.7998 120.401 66.9168 120.879 67.151C121.356 67.3853 121.717 67.7037 121.96 68.1065C122.204 68.5094 122.325 68.9637 122.325 69.4695C122.325 70.0503 122.17 70.5468 121.861 70.9589C121.552 71.3711 121.183 71.6475 120.752 71.788V71.8442C121.305 72.0128 121.735 72.3219 122.044 72.7716C122.353 73.2118 122.507 73.7786 122.507 74.4718C122.507 75.0244 122.381 75.5162 122.128 75.9471C121.875 76.3781 121.502 76.72 121.005 76.9729C120.509 77.2164 119.915 77.3382 119.222 77.3382C118.211 77.3382 117.378 77.0806 116.723 76.5654C116.077 76.0408 115.731 75.2914 115.684 74.3172H117.228C117.266 74.8136 117.458 75.2211 117.804 75.5397C118.15 75.8488 118.618 76.0033 119.208 76.0033C119.779 76.0033 120.219 75.8488 120.528 75.5397C120.836 75.2211 120.991 74.8136 120.991 74.3172C120.991 73.6614 120.78 73.1977 120.359 72.9261C119.948 72.6451 119.311 72.5046 118.45 72.5046H118.085V71.1838H118.464C119.222 71.1744 119.798 71.0479 120.191 70.8044C120.593 70.5608 120.794 70.1767 120.794 69.6522C120.794 69.2025 120.65 68.8466 120.359 68.5843C120.07 68.3126 119.657 68.1768 119.124 68.1768C118.6 68.1768 118.193 68.3126 117.902 68.5843C117.613 68.8466 117.439 69.1744 117.383 69.5679H115.824Z" fill="#989898"/>
<path d="M212.498 56.1541C212.416 56.0866 212.298 56.0652 212.205 56.0964C212.092 56.1311 211.99 56.1613 211.891 56.1898L211.844 56.2037C211.604 56.2741 211.396 56.3345 211.19 56.4172C207.938 57.7101 205.379 59.9253 203.364 63.1888C202.866 63.9952 202.481 64.8333 202.174 65.6693C202.678 62.8576 202.794 61.7622 202.883 58.6161C202.887 58.4841 202.887 58.3498 202.887 58.2165C202.887 57.8525 202.887 57.5087 202.967 57.195C203.062 56.8233 203.254 56.4525 203.439 56.0938C203.491 55.9922 203.544 55.8907 203.587 55.8015C203.602 55.784 203.65 55.7545 203.668 55.7516C204.599 55.6095 205.421 55.2144 206.183 54.5439C206.951 53.8651 207.583 53.034 208.061 52.0732C209.777 48.6296 210.636 44.8235 210.614 40.7617C210.612 40.3699 210.565 39.9884 210.515 39.5735C210.492 39.3877 210.469 39.1975 210.45 39.0006C210.438 38.8926 210.371 38.7966 210.276 38.7499C210.181 38.7039 210.066 38.7071 209.97 38.7652C209.912 38.8015 209.863 38.8311 209.817 38.8573C209.73 38.9092 209.663 38.9497 209.601 38.9952C208.137 40.0452 206.847 41.3524 205.764 42.8795C203.997 45.3755 202.969 48.1979 202.692 51.3028C202.665 50.9567 202.637 50.6106 202.608 50.2645L202.599 50.1389C202.49 48.7821 202.379 47.3789 202.286 45.999C202.264 45.6496 202.197 45.3097 202.132 44.9808C202.007 44.3486 201.888 43.7514 202.078 43.1257C202.121 42.9843 202.157 42.8419 202.193 42.6998C202.283 42.3478 202.715 41.8058 203.378 41.2132L203.403 41.1908C203.648 40.9832 204.905 39.8324 205.618 37.5559C206.341 35.2432 206.287 32.8266 206.247 31.062L206.246 31.0149C206.193 28.5893 205.931 26.7614 205.397 25.0874C205.328 24.8733 205.246 24.6621 205.159 24.4403C205.114 24.3248 205.068 24.2054 205.021 24.0806C204.982 23.9748 204.888 23.8979 204.779 23.8797L204.726 23.8749C204.631 23.8749 204.542 23.9174 204.483 23.9907L203.963 24.6235C201.476 27.6603 200.253 31.2219 200.331 35.2097C200.344 35.912 200.396 36.6324 200.489 37.3762C199.857 35.1922 199.115 33.0663 198.272 31.0211C198.254 30.9763 198.243 30.9209 198.241 30.8738L198.236 30.5942C198.227 30.1908 198.218 29.7733 198.235 29.3626C198.238 29.2945 198.282 29.1722 198.374 29.0518C198.504 28.8796 198.648 28.7112 198.798 28.5361C199.053 28.2389 199.317 27.9321 199.526 27.5818C200.198 26.455 200.513 25.1237 200.518 23.3919C200.528 21.3532 200.214 19.2078 199.529 16.6398C199.155 15.2388 198.591 13.4187 197.539 11.7686C197.467 11.6577 197.388 11.5533 197.303 11.4427C197.265 11.3936 197.224 11.3415 197.184 11.2854C197.124 11.2052 197.042 11.1585 196.909 11.1585C196.803 11.1663 196.708 11.2266 196.656 11.3204C195.336 13.7042 194.679 16.2508 194.647 19.106C194.621 21.4865 194.992 23.5349 195.458 25.1539C194.272 22.9867 192.955 20.8929 191.528 18.9068L191.495 18.8617C191.463 18.8185 191.449 18.7974 191.451 18.8124C191.362 18.1698 191.3 17.6557 191.257 17.2081C191.257 17.2012 191.265 17.1636 191.333 17.052C191.427 16.8911 191.53 16.7335 191.64 16.5668C191.86 16.2313 192.088 15.8843 192.234 15.4957C192.674 14.3227 192.773 12.9925 192.535 11.4304C192.014 7.97285 190.491 4.85952 187.88 1.91195C187.612 1.60931 187.315 1.3417 187.001 1.05885L186.914 0.980032C186.791 0.868771 186.665 0.754916 186.537 0.634574C186.457 0.557373 186.341 0.528505 186.228 0.561591C186.122 0.595326 186.04 0.683554 186.014 0.793192L185.957 1.04361C185.919 1.20968 185.888 1.34073 185.866 1.47242C185.515 3.57112 185.541 5.81901 185.945 8.34522C186.346 10.8507 187.146 13.0117 188.372 14.8888C186.533 12.7194 184.743 10.8977 182.873 9.28332C182.865 9.27226 182.853 9.23888 182.852 9.23045C182.998 7.97026 182.687 6.78304 181.902 5.60103C180.87 4.04762 179.437 2.86366 177.641 2.08257C176.567 1.61612 175.453 1.2032 174.363 0.798707C173.841 0.604732 173.319 0.411406 172.781 0.204132C172.241 -0.0109264 172.01 -0.0492025 171.884 0.0669229C171.723 0.217432 171.762 0.345883 171.833 0.579431L171.856 0.655658C172.514 2.87696 173.388 4.63376 174.529 6.02629C176.623 8.58526 179.071 9.88533 182.011 10.0002C182.114 10.0063 182.196 10.0349 182.229 10.0608C182.643 10.3709 182.948 10.6191 183.217 10.865C184.068 11.6441 184.907 12.4742 185.728 13.3484C184.508 12.5893 183.015 12.2467 181.336 12.3317C180.416 12.3781 179.504 12.5131 178.621 12.6435L178.587 12.6487C178.326 12.687 178.066 12.7249 177.807 12.7615C177.241 12.8385 176.668 12.939 176.164 13.0272C175.959 13.0639 175.471 13.1751 175.358 13.4122C175.32 13.4933 175.322 13.5822 175.367 13.663C175.406 13.7334 175.449 13.7996 175.495 13.8599C176.953 15.7526 178.616 16.9991 180.578 17.6703C182.971 18.4929 185.169 18.4251 187.145 17.4575C187.447 17.2911 187.811 17.2068 188.227 17.2068C188.541 17.2068 188.777 17.2564 188.855 17.2742C188.972 17.2937 189.13 17.3592 189.163 17.4014C190.391 19.0177 191.557 20.744 192.646 22.5576C191.726 21.6623 190.526 21.0586 188.893 20.6656C187.46 20.3239 185.996 20.2507 184.58 20.1793L184.106 20.1553C183.662 20.1326 183.218 20.1044 182.761 20.0755L181.994 20.0282C181.895 20.0282 181.8 20.0761 181.743 20.1559C181.679 20.2419 181.663 20.3534 181.701 20.4537C181.731 20.5374 181.788 20.685 181.817 20.7343C183.31 23.2339 185.063 24.9628 187.176 26.0202C189.243 27.0531 191.109 27.3262 192.991 26.8756C193.209 26.8231 193.462 26.7952 193.723 26.7952C194.523 26.7952 195.082 27.0398 195.199 27.2662C196.235 29.4048 197.159 31.6271 197.957 33.8938C197.121 32.7399 195.951 31.8029 194.471 31.1019C193 30.4071 191.469 29.7719 189.961 29.1469C189.315 28.879 188.664 28.6101 188.017 28.335C187.92 28.2929 187.807 28.3016 187.717 28.3609C187.629 28.4197 187.576 28.5176 187.576 28.6231C187.576 28.8254 189.725 34.7942 192.846 37.1462C194.119 38.1058 195.687 39.0928 197.665 39.1391C198.256 39.1512 198.868 39.2349 199.33 39.7606C199.401 39.8443 199.494 39.9096 199.597 39.9443C199.755 39.9962 199.798 40.0929 199.876 40.4224C200.517 43.1134 200.982 45.8871 201.269 48.7036C201.183 48.4178 201.083 48.1291 200.967 47.8369C200.268 46.0642 199.092 44.513 197.267 42.9551C196.327 42.1487 195.341 41.3679 194.388 40.6125L194.343 40.5768C193.909 40.2327 193.476 39.8897 193.044 39.5427C192.955 39.471 192.868 39.3971 192.768 39.3107L192.498 39.0799C192.403 39 192.263 38.9835 192.153 39.0386C192.04 39.096 191.973 39.2147 191.981 39.3416C191.994 39.532 192.005 39.712 192.015 39.8849L192.02 39.9657C192.042 40.3215 192.062 40.6572 192.098 40.9887C192.435 44.2166 193.394 46.9114 195.03 49.2272C196.041 50.6586 197.494 52.4083 199.758 53.2357C200.309 53.4382 200.709 53.7446 201.137 54.2948C201.541 54.8099 201.616 55.2805 201.606 55.8729C201.568 58.354 201.391 60.8153 201.08 63.2258C201.007 62.555 200.853 61.8644 200.616 61.1469C200.125 59.6612 199.361 58.2168 198.279 56.7312C197.344 55.4447 196.373 54.1537 195.433 52.9046L195.37 52.8212C194.998 52.3265 194.625 51.8312 194.263 51.3466C194.194 51.247 194.096 51.2114 194.04 51.1915C193.959 51.1523 193.864 51.1484 193.778 51.1848C193.694 51.2204 193.63 51.2908 193.602 51.3771L193.592 51.4108C193.576 51.4562 193.563 51.4964 193.556 51.5367C192.909 55.4052 193.306 58.8711 194.773 62.1336C195.488 63.7289 196.449 65.535 198.141 66.8344C198.914 67.4277 199.525 68.26 199.86 69.1777C199.931 69.3752 199.929 69.4608 199.92 69.4939C199.204 72.4646 198.268 75.3297 197.129 78.0414C197.423 76.6122 197.402 75.1111 197.068 73.5557C196.593 71.3513 195.777 69.2149 195.049 67.3856L194.831 66.8376C194.49 65.9803 194.146 65.1162 193.792 64.2206C193.746 64.1061 193.638 64.0279 193.493 64.0208C193.379 64.0208 193.274 64.086 193.219 64.1918L193.105 64.4071C193.054 64.5015 193.008 64.5894 192.968 64.6802C191.503 67.9869 191.009 71.3766 191.499 74.7553C191.849 77.1711 192.441 78.901 193.421 80.3646C193.928 81.121 194.411 81.9638 194.498 83.0001C194.519 83.2454 194.509 83.4144 194.4 83.6067C193.164 85.7732 191.778 87.8177 190.261 89.7174C190.266 89.7069 190.272 89.6964 190.277 89.6858C191.37 87.6889 191.402 85.5296 191.291 83.6804C191.195 82.0951 191.013 80.5122 190.839 78.9818L190.828 78.8933C190.758 78.2802 190.688 77.6675 190.624 77.0534C190.587 76.7053 190.546 76.3573 190.504 76.0041L190.447 75.526C190.435 75.4202 190.371 75.3287 190.278 75.2827C190.105 75.1925 189.826 75.3316 189.525 75.6885C187.454 78.1404 186.169 80.9112 185.705 83.9243C185.223 87.0483 185.484 89.7218 186.503 92.0974C186.53 92.1606 186.53 92.2897 186.53 92.3327L186.474 93.7001C186.466 93.7984 186.415 93.9091 186.372 93.9504C184.303 95.9439 182.026 97.6766 179.583 99.1195C180.739 98.0727 181.571 96.7079 182.11 94.9779C182.707 93.0599 183.014 91.0637 183.311 89.129L183.336 88.9569C183.442 88.2763 183.552 87.5981 183.664 86.9046L183.791 86.1206C183.809 86.0064 183.764 85.8922 183.675 85.8238C183.587 85.7537 183.461 85.7369 183.359 85.7803L183.249 85.8261C183.131 85.8744 183.028 85.9175 182.931 85.9671C178.312 88.2763 175.271 93.6623 175.701 98.7735C175.767 99.5735 175.694 100.325 175.476 101.07C175.456 101.138 175.39 101.211 175.364 101.224C173.169 102.15 171.083 102.826 168.984 103.289C168.876 103.315 168.79 103.392 168.755 103.496C168.72 103.601 168.741 103.714 168.813 103.8C169.041 104.071 169.241 104.361 169.404 104.666C169.471 104.791 169.63 104.855 169.75 104.823C171.461 104.433 173.126 103.928 174.702 103.319C174.829 103.268 174.927 103.244 175.018 103.258C175.368 103.306 175.739 103.378 176.15 103.48C176.235 103.501 176.305 103.539 176.307 103.536C177.205 105.328 178.749 106.47 181.029 107.026C181.524 107.145 182.036 107.233 182.548 107.287C183.085 107.344 183.684 107.373 184.327 107.373C185.219 107.373 185.854 107.318 185.862 107.317C187.838 107.095 189.525 106.65 191.02 105.956C191.633 105.672 192.331 105.288 192.868 104.604C192.971 104.473 192.954 104.284 192.829 104.174C191.311 102.833 189.766 101.859 188.103 101.196C185.64 100.217 183.397 99.9511 181.198 100.374C180.869 100.439 180.548 100.519 180.236 100.612C182.293 99.3812 184.263 97.9348 186.123 96.2864C186.158 96.2539 186.217 96.2258 186.263 96.2179C186.567 96.167 186.972 96.1046 187.385 96.0748C187.424 96.0748 187.472 96.0932 187.477 96.0949C188.599 97.3508 190.042 97.9611 191.892 97.9611C191.987 97.9611 192.08 97.9585 192.175 97.9559C194.186 97.8909 196.208 97.3376 198.185 96.311C199.622 95.561 201.12 94.6872 202.335 93.3848C202.604 93.095 202.844 92.7674 203.057 92.4785L203.078 92.4504C203.172 92.3222 203.267 92.194 203.365 92.0675C203.417 91.999 203.44 91.9103 203.426 91.8216C203.411 91.7364 203.361 91.66 203.277 91.6047C203.255 91.5933 202.741 91.3166 202.272 91.1348C199.128 89.9194 195.953 89.7947 192.924 90.7713C191.933 91.0901 190.999 91.5687 190.091 92.2309C191.772 90.276 193.327 88.1331 194.739 85.8273C194.755 85.803 194.795 85.7372 194.808 85.7252C194.931 85.6463 195.058 85.5718 195.184 85.4981C195.41 85.3655 195.644 85.2282 195.863 85.0648C196.048 84.9263 196.101 84.9227 196.288 85.0434C196.553 85.2156 196.862 85.3051 197.13 85.3755C198.702 85.7784 200.287 85.5776 202.04 84.754C203.64 84.0028 204.871 82.8153 205.964 81.6443C207.552 79.9362 208.59 78.395 209.231 76.7939C209.366 76.4578 209.462 76.1104 209.562 75.7472C209.603 75.5947 209.645 75.4423 209.69 75.2924C209.738 75.1315 209.653 74.9612 209.494 74.9051L209.362 74.8951C208.715 74.8951 202.935 74.9901 199.555 78.2727C198.82 78.987 198.16 79.746 197.559 80.5771C198.895 77.7427 200.03 74.7555 200.943 71.6549L200.957 71.6095C200.968 71.5715 200.984 71.5141 200.996 71.4985L201.879 70.2834C201.913 70.2348 201.916 70.2348 201.968 70.2348C201.992 70.2348 202.016 70.2364 202.045 70.238L202.235 70.2494C202.892 70.2903 203.28 70.2844 203.598 70.2344C204.857 70.0356 205.993 69.4011 207.071 68.2944C209.593 65.7059 211.33 62.4765 212.378 58.4224C212.491 57.9881 212.522 57.5496 212.556 57.0844C212.57 56.8736 212.587 56.6563 212.611 56.4318C212.621 56.3241 212.579 56.2213 212.498 56.1541Z" fill="#989898"/>
<path d="M43.8912 103.287C41.794 102.823 39.7083 102.148 37.5137 101.221C37.4874 101.209 37.4216 101.136 37.4014 101.069C37.1829 100.323 37.1092 99.5709 37.1767 98.7709C37.6067 93.6597 34.5654 88.2737 29.9472 85.9649C29.8489 85.9149 29.7463 85.8718 29.6278 85.8234L29.519 85.778C29.4146 85.7336 29.2882 85.7521 29.204 85.8195C29.1136 85.8896 29.068 86.0038 29.0864 86.1183L29.2128 86.9019C29.3251 87.5954 29.4347 88.2737 29.54 88.9534L29.5672 89.1308C29.8638 91.0611 30.1701 93.0573 30.7676 94.9753C31.3064 96.7053 32.1383 98.0709 33.2948 99.1169C30.851 97.6749 28.574 95.9413 26.5057 93.9486C26.4627 93.9065 26.411 93.7958 26.4031 93.7045L26.3478 92.3363C26.3478 92.2879 26.3469 92.1589 26.3741 92.0947C27.3928 89.7192 27.6543 87.0459 27.1726 83.9219C26.7084 80.9089 25.4229 78.138 23.3521 75.6861C23.1099 75.399 22.8958 75.2538 22.7159 75.2538C22.672 75.2538 22.6326 75.2625 22.6018 75.2787C22.5062 75.326 22.4421 75.4179 22.429 75.5239L22.3737 76.0011C22.3307 76.3553 22.2894 76.703 22.2526 77.0513C22.1894 77.6651 22.1192 78.2779 22.049 78.8909L22.0385 78.9795C21.8639 80.5102 21.6822 82.0931 21.5866 83.678C21.4743 85.5269 21.5076 87.6863 22.6001 89.6841C22.6053 89.6937 22.6106 89.7043 22.6168 89.7148C21.0987 87.8151 19.7132 85.7709 18.4768 83.6047C18.368 83.412 18.3583 83.243 18.3785 82.9978C18.4663 81.9608 18.948 81.1181 19.4552 80.3623C20.4353 78.8987 21.0285 77.1688 21.3786 74.7529C21.8683 71.3742 21.3743 67.9848 19.9097 64.6781C19.8694 64.587 19.822 64.4992 19.772 64.4048L19.6579 64.1887C19.6026 64.0832 19.4859 64.0139 19.3622 64.0194C19.2393 64.0258 19.1305 64.1041 19.0858 64.2175C18.7304 65.1142 18.3873 65.978 18.046 66.8353L17.8275 67.3831C17.1 69.2129 16.2831 71.3493 15.8093 73.5534C15.475 75.1087 15.4539 76.6099 15.7479 78.0391C14.6089 75.3277 13.6735 72.4625 12.9566 69.4916C12.9487 69.4585 12.9461 69.3728 13.0171 69.1753C13.3523 68.2573 13.9622 67.425 14.7361 66.8317C16.4288 65.5323 17.3887 63.7262 18.1048 62.1309C19.571 58.8683 19.9685 55.4024 19.3201 51.5342C19.3139 51.4937 19.3016 51.4535 19.2867 51.4097L19.2753 51.3747C19.2464 51.2881 19.1823 51.218 19.0981 51.1814C19.0147 51.1466 18.9103 51.1531 18.8462 51.1849C18.7813 51.2086 18.683 51.2446 18.619 51.3383C18.2522 51.8288 17.8801 52.3238 17.5072 52.8184L17.444 52.9018C16.5042 54.1509 15.5329 55.442 14.5984 56.7281C13.5164 58.214 12.7522 59.6585 12.2616 61.1442C12.0247 61.8617 11.8703 62.5523 11.7974 63.223C11.4859 60.8126 11.3096 58.3516 11.271 55.8702C11.2622 55.2778 11.3368 54.8072 11.7413 54.2918C12.1686 53.7423 12.5688 53.4354 13.1198 53.233C15.3837 52.4052 16.8359 50.6558 17.8477 49.2244C19.4833 46.9087 20.4424 44.2141 20.7802 40.9866C20.8162 40.6545 20.8363 40.3184 20.8574 39.9629L20.8627 39.8821C20.8723 39.7092 20.8829 39.5292 20.8969 39.3385C20.9048 39.2119 20.8372 39.0932 20.724 39.0359C20.6152 38.9807 20.4748 38.9969 20.3792 39.0777L20.1107 39.3079C20.0098 39.3943 19.9229 39.4682 19.8334 39.5402C19.4017 39.8869 18.9691 40.2301 18.5347 40.5743L18.4891 40.6101C17.537 41.3651 16.5516 42.1459 15.611 42.9523C13.7849 44.5106 12.6091 46.0618 11.9106 47.8344C11.7957 48.1267 11.6948 48.4157 11.6079 48.7018C11.8948 45.885 12.3608 43.1109 13.0014 40.4196C13.0794 40.0903 13.1225 39.9937 13.283 39.9411C13.3831 39.9071 13.4769 39.8415 13.5454 39.7605C14.0096 39.2321 14.6212 39.1484 15.2135 39.1364C17.1904 39.09 18.7585 38.103 20.0317 37.1434C23.152 34.7911 25.301 28.8226 25.301 28.6202C25.301 28.5148 25.2483 28.4165 25.1597 28.3572C25.0719 28.2991 24.9526 28.2909 24.8631 28.3309C24.2138 28.6069 23.5636 28.8758 22.8897 29.1545C21.4085 29.7691 19.8773 30.4043 18.4066 31.0987C16.9263 31.7997 15.7566 32.7371 14.9204 33.8906C15.718 31.6243 16.642 29.4023 17.6766 27.267C17.795 27.0366 18.354 26.792 19.1551 26.792C19.4157 26.792 19.6684 26.8199 19.886 26.8725C21.7682 27.324 23.6355 27.0502 25.7011 26.0171C27.8149 24.9596 29.5681 23.2307 31.0616 20.7301C31.0897 20.6818 31.1458 20.5342 31.1757 20.4516C31.2143 20.3503 31.1985 20.2388 31.1362 20.1541C31.0774 20.0737 30.9844 20.0256 30.865 20.0256H30.8624L30.1166 20.0726C29.6594 20.1015 29.2154 20.1297 28.7714 20.1524L28.2967 20.1764C26.8813 20.2478 25.4168 20.3211 23.9847 20.6627C22.3509 21.0558 21.1514 21.6595 20.2318 22.5548C21.3198 20.7412 22.486 19.0155 23.7136 17.3992C23.7469 17.3563 23.9058 17.2908 24.0356 17.2691C24.1006 17.2538 24.3366 17.2042 24.6499 17.2042C25.0658 17.2042 25.4299 17.2889 25.7388 17.4588C27.7017 18.4193 29.906 18.4907 32.2988 17.6681C34.2609 16.997 35.9237 15.7503 37.3812 13.8583C37.4277 13.7973 37.4707 13.7308 37.5102 13.6607C37.554 13.58 37.5567 13.4911 37.5181 13.41C37.4058 13.1733 36.917 13.062 36.7117 13.025C36.2071 12.9368 35.6359 12.8362 35.0699 12.7594C34.8102 12.723 34.5505 12.6851 34.2898 12.6464L34.2565 12.6412C33.3729 12.5108 32.4603 12.3759 31.5407 12.3296C29.8612 12.2436 28.3686 12.5868 27.1481 13.3464C27.9694 12.4719 28.8082 11.6422 29.6594 10.8627C29.9288 10.6169 30.2333 10.3691 30.6492 10.0579C30.6808 10.0333 30.7624 10.0044 30.8624 9.99863C33.8055 9.88341 36.2536 8.58335 38.3473 6.0247C39.488 4.63184 40.3629 2.87503 41.0219 0.653724L41.0438 0.577496C41.1149 0.343947 41.1535 0.215495 40.992 0.0649858C40.8665 -0.0511397 40.6472 -0.0167552 40.0759 0.209657C39.5573 0.409147 39.0352 0.602797 38.5 0.801639C37.4233 1.20095 36.3107 1.61387 35.2357 2.08032C33.4404 2.8614 32.0066 4.04537 30.9747 5.59879C30.1894 6.78081 29.8788 7.96834 30.0253 9.223C30.0235 9.23696 30.0112 9.27033 30.0095 9.27429C28.1352 10.8939 26.3434 12.7172 24.5042 14.8872C25.7309 13.0101 26.5303 10.8487 26.9313 8.34332C27.3358 5.81742 27.3621 3.56919 27.0103 1.47049C26.9883 1.33912 26.9576 1.20775 26.919 1.0433L26.862 0.789961C26.8357 0.681295 26.754 0.59339 26.647 0.559656C26.5399 0.527867 26.4197 0.556087 26.3399 0.632315C26.2109 0.753306 26.0854 0.867486 25.9626 0.978417L25.8757 1.05659C25.5616 1.3401 25.265 1.6077 24.9965 1.91034C22.3851 4.85792 20.8627 7.97126 20.3414 11.4284C20.1036 12.9909 20.2019 14.3212 20.6424 15.4941C20.789 15.8827 21.0162 16.2298 21.2426 16.5743C21.3462 16.7316 21.4497 16.8896 21.5453 17.0518C21.6147 17.1682 21.6208 17.1984 21.6208 17.1929C21.5778 17.6551 21.5155 18.1702 21.4322 18.7885C21.4286 18.7962 21.4164 18.8144 21.3795 18.8637L21.3497 18.9056C19.9211 20.8917 18.604 22.9855 17.4195 25.1527C17.8854 23.5341 18.2566 21.4853 18.2303 19.1047C18.1987 16.2493 17.5414 13.7026 16.2208 11.3181C16.169 11.2254 16.0743 11.1651 15.9418 11.1559C15.8453 11.1559 15.7522 11.2036 15.6917 11.285C15.6522 11.3402 15.6119 11.3921 15.5741 11.4414C15.489 11.5516 15.4091 11.6562 15.3381 11.7677C14.286 13.4178 13.7226 15.2372 13.3479 16.6382C12.6635 19.2076 12.3494 21.3529 12.3582 23.3903C12.3634 25.1222 12.6793 26.4534 13.3515 27.5799C13.5603 27.9306 13.8236 28.2375 14.0877 28.5462C14.2281 28.71 14.3729 28.8784 14.5036 29.0509C14.5949 29.171 14.6387 29.2933 14.6413 29.3614C14.658 29.772 14.6493 30.1895 14.6405 30.5931L14.6343 30.872C14.6335 30.92 14.6221 30.9752 14.6063 31.0173C13.7621 33.0638 13.0198 35.1907 12.3871 37.375C12.4801 36.6313 12.5328 35.9111 12.5459 35.2086C12.6231 31.2207 11.4008 27.6594 8.9123 24.6223L8.39371 23.9901C8.33404 23.9158 8.24544 23.8737 8.15067 23.8737L8.09888 23.8782C7.98832 23.8967 7.89445 23.9736 7.85584 24.0784C7.80845 24.2045 7.76281 24.3236 7.71718 24.4387C7.63031 24.6612 7.54871 24.8721 7.47938 25.0865C6.945 26.76 6.68352 28.5881 6.63 31.0131L6.62911 31.0604C6.58963 32.8248 6.53434 35.2417 7.25913 37.5544C7.97164 39.8312 9.22819 40.9817 9.47213 41.1884L9.49846 41.2117C10.1618 41.8043 10.5936 42.3464 10.6831 42.6983C10.719 42.8404 10.7559 42.9828 10.798 43.1236C10.9876 43.75 10.8691 44.3468 10.7418 44.9913C10.6778 45.3167 10.612 45.6527 10.5892 45.9975C10.4979 47.3774 10.3856 48.7806 10.2768 50.1375L10.2671 50.263C10.2391 50.6091 10.211 50.9552 10.1838 51.3013C9.90737 48.1964 8.87983 45.3741 7.11172 42.878C6.02979 41.3509 4.73904 40.0443 3.2754 38.9936C3.21222 38.9482 3.14552 38.9077 3.05689 38.8549C3.01389 38.8298 2.96389 38.8 2.90334 38.762C2.81208 38.7072 2.6945 38.7024 2.59973 38.7484C2.50321 38.7955 2.4374 38.8911 2.42599 38.9995C2.40668 39.1957 2.383 39.3858 2.35931 39.5831C2.31017 39.9869 2.26367 40.3684 2.26192 40.7602C2.23998 44.822 3.09903 48.6282 4.8145 52.0718C5.29272 53.0325 5.92449 53.8636 6.69228 54.5428C7.45481 55.2127 8.27701 55.6077 9.20451 55.7498C9.22557 55.7534 9.27383 55.7829 9.28085 55.7887C9.33175 55.8896 9.38352 55.9908 9.43617 56.0924C9.62132 56.4508 9.8126 56.8215 9.90825 57.1933C9.98722 57.5076 9.98722 57.8511 9.98722 58.2151C9.98722 58.3484 9.98722 58.4827 9.99161 58.6143C10.0811 61.7607 10.1978 62.8565 10.7006 65.6678C10.3935 64.8319 10.0083 63.9938 9.51075 63.1874C7.49606 59.9238 4.93734 57.7087 1.68629 56.4161C1.48008 56.3327 1.27212 56.2727 1.03169 56.2027L0.983432 56.1884C0.886032 56.1598 0.782486 56.1293 0.672801 56.0956C0.572769 56.0629 0.458692 56.0852 0.377087 56.1527C0.296359 56.2198 0.254248 56.3226 0.264778 56.4297C0.28847 56.6528 0.305131 56.8698 0.320048 57.0817C0.353393 57.5462 0.384978 57.9847 0.497295 58.4187C1.54676 62.4731 3.28241 65.7022 5.80428 68.2911C6.8827 69.3978 8.01902 70.0323 9.2782 70.2311C9.59585 70.2807 9.9837 70.2869 10.6409 70.246L10.8305 70.2347C10.8594 70.2331 10.8849 70.2315 10.9077 70.2315C10.9595 70.2315 10.9638 70.2315 10.9998 70.2846L11.8799 71.4949C11.8914 71.5108 11.908 71.5682 11.9194 71.6077L11.9326 71.6512C12.846 74.7522 13.9806 77.7391 15.3179 80.5737C14.716 79.7423 14.0561 78.9833 13.3208 78.2694C9.94072 74.9868 4.16165 74.8918 3.5132 74.8918L3.43246 74.8924L3.38155 74.9018C3.22273 74.9582 3.13674 75.1282 3.18588 75.2881C3.23151 75.439 3.27363 75.5914 3.32189 75.7704C3.41403 76.1068 3.50968 76.4543 3.64481 76.7903C4.28449 78.392 5.32254 79.9328 6.91165 81.6409C8.00411 82.8119 9.23523 83.9994 10.8357 84.7504C12.5889 85.5743 14.1719 85.7754 15.7461 85.3719C16.0137 85.3015 16.3217 85.2122 16.5858 85.0404C16.7745 84.9194 16.8263 84.9233 17.0114 85.0615C17.2317 85.2249 17.4651 85.3622 17.6924 85.4951C17.8178 85.5688 17.9442 85.6431 18.0618 85.7177C18.0811 85.7336 18.1206 85.7994 18.1355 85.8237C19.5482 88.1296 21.104 90.2725 22.7843 92.2265C21.8753 91.5652 20.9425 91.0866 19.951 90.7678C16.9228 89.7912 13.7481 89.915 10.6041 91.1313C10.1346 91.314 9.62043 91.5898 9.58621 91.6091C9.51426 91.6565 9.46423 91.7329 9.44843 91.8207C9.43527 91.9068 9.45722 91.9955 9.50986 92.0631C9.60814 92.1905 9.7029 92.3187 9.79679 92.446L9.81787 92.4741C10.0302 92.7639 10.2706 93.0906 10.54 93.3813C11.7545 94.6837 13.2523 95.5575 14.6905 96.3075C16.6674 97.3341 18.6892 97.8874 20.6995 97.9524C20.7942 97.955 20.889 97.9576 20.9838 97.9576C22.8326 97.9576 24.2769 97.3473 25.3896 96.0994C25.4036 96.0897 25.4519 96.0713 25.4782 96.0704C25.9038 96.1011 26.3074 96.1635 26.6102 96.2135C26.6575 96.2214 26.7163 96.2504 26.7523 96.2838C28.6117 97.9313 30.5816 99.3768 32.6384 100.608C32.3269 100.515 32.0057 100.435 31.6767 100.37C29.4786 99.9477 27.2349 100.213 24.7718 101.192C23.1099 101.855 21.5638 102.829 20.0458 104.17C19.9212 104.28 19.9036 104.469 20.0063 104.6C20.5433 105.285 21.2426 105.667 21.8551 105.951C23.3503 106.647 25.0368 107.092 27.0156 107.313C27.0208 107.313 27.657 107.368 28.5476 107.368C29.1917 107.368 29.7901 107.34 30.3263 107.282C30.8387 107.229 31.3503 107.141 31.8469 107.022C34.1257 106.467 35.6701 105.324 36.5546 103.552C36.5704 103.537 36.6388 103.496 36.7248 103.475C37.1364 103.374 37.5067 103.302 37.8585 103.255C37.941 103.241 38.0446 103.264 38.1753 103.316C39.7486 103.923 41.4149 104.429 43.1225 104.819C43.1462 104.824 43.1708 104.828 43.1962 104.828C43.3112 104.828 43.4165 104.765 43.4726 104.661C43.635 104.357 43.8342 104.066 44.0623 103.795C44.1343 103.71 44.1553 103.597 44.1202 103.491C44.0869 103.389 44.0009 103.312 43.8912 103.287Z" fill="#989898"/>
</svg>
