<svg width="214" height="109" viewBox="0 0 214 109" fill="none" xmlns="http://www.w3.org/2000/svg">
<path d="M41.465 27.5052V28.35H38.0086V31.033H40.8148V31.8778H38.0086V35.4626H36.9706V27.5052H41.465ZM43.3691 28.1902C43.1717 28.1902 43.0041 28.1217 42.8672 27.9847C42.7303 27.8477 42.6619 27.68 42.6619 27.4824C42.6619 27.2839 42.7303 27.117 42.8672 26.98C43.0041 26.843 43.1717 26.7745 43.3691 26.7745C43.5596 26.7745 43.7192 26.843 43.8482 26.98C43.9851 27.117 44.0536 27.2839 44.0536 27.4824C44.0536 27.68 43.9851 27.8477 43.8482 27.9847C43.7192 28.1217 43.5596 28.1902 43.3691 28.1902ZM43.871 29.2063V35.4626H42.833V29.2063H43.871ZM48.7998 29.0921C49.5606 29.0921 50.1766 29.324 50.6478 29.7885C51.119 30.2452 51.3551 30.9074 51.3551 31.775V35.4626H50.3284V31.9234C50.3284 31.299 50.1722 30.8231 49.8607 30.4964C49.5492 30.1609 49.1227 29.994 48.5831 29.994C48.0356 29.994 47.5986 30.1653 47.2713 30.5078C46.9519 30.8503 46.7922 31.3482 46.7922 32.0034V35.4626H45.7541V29.2063H46.7922V30.0968C46.9975 29.7771 47.2748 29.5295 47.6249 29.3547C47.982 29.1791 48.3743 29.0921 48.7998 29.0921ZM52.7774 32.3116C52.7774 31.6723 52.9064 31.1129 53.1653 30.6334C53.4233 30.146 53.7769 29.7692 54.2262 29.5031C54.6824 29.2361 55.1879 29.1035 55.7433 29.1035C56.2909 29.1035 56.7656 29.2212 57.1692 29.4574C57.572 29.6928 57.8721 29.9896 58.0704 30.348V29.2063H59.1199V35.4626H58.0704V34.2981C57.8651 34.6635 57.5571 34.9673 57.1464 35.2114C56.7428 35.4468 56.2716 35.5654 55.7319 35.5654C55.1765 35.5654 54.6745 35.4284 54.2262 35.1544C53.7769 34.8804 53.4233 34.4957 53.1653 34.0013C52.9064 33.506 52.7774 32.943 52.7774 32.3116ZM58.0704 32.323C58.0704 31.8506 57.9747 31.4396 57.7852 31.09C57.5948 30.7396 57.336 30.4735 57.0095 30.2909C56.6901 30.1003 56.3365 30.0055 55.9487 30.0055C55.5608 30.0055 55.2072 30.0968 54.8878 30.2795C54.5684 30.4621 54.313 30.7282 54.1235 31.0786C53.9331 31.4281 53.8383 31.8391 53.8383 32.3116C53.8383 32.7911 53.9331 33.2091 54.1235 33.5675C54.313 33.917 54.5684 34.1875 54.8878 34.378C55.2072 34.5607 55.5608 34.652 55.9487 34.652C56.3365 34.652 56.6901 34.5607 57.0095 34.378C57.336 34.1875 57.5948 33.917 57.7852 33.5675C57.9747 33.2091 58.0704 32.7946 58.0704 32.323ZM64.0337 29.0921C64.7936 29.0921 65.4096 29.324 65.8817 29.7885C66.3529 30.2452 66.5889 30.9074 66.5889 31.775V35.4626H65.5623V31.9234C65.5623 31.299 65.4061 30.8231 65.0946 30.4964C64.7822 30.1609 64.3566 29.994 63.817 29.994C63.2695 29.994 62.8316 30.1653 62.5052 30.5078C62.1858 30.8503 62.0261 31.3482 62.0261 32.0034V35.4626H60.988V29.2063H62.0261V30.0968C62.2314 29.7771 62.5087 29.5295 62.8588 29.3547C63.2159 29.1791 63.6073 29.0921 64.0337 29.0921ZM68.0105 32.323C68.0105 31.6758 68.1394 31.1129 68.3983 30.6334C68.6571 30.146 69.0143 29.7692 69.4706 29.5031C69.9348 29.2361 70.463 29.1035 71.0562 29.1035C71.824 29.1035 72.4558 29.2897 72.9498 29.663C73.4517 30.0353 73.7825 30.5534 73.9422 31.2156H72.8243C72.7181 30.8345 72.5084 30.5341 72.1969 30.3137C71.8924 30.0924 71.5125 29.9826 71.0562 29.9826C70.463 29.9826 69.9839 30.1881 69.6189 30.5991C69.2538 31.0022 69.0713 31.5766 69.0713 32.323C69.0713 33.0765 69.2538 33.6588 69.6189 34.0698C69.9839 34.4808 70.463 34.6863 71.0562 34.6863C71.5125 34.6863 71.8924 34.5791 72.1969 34.3666C72.5014 34.1532 72.7102 33.8485 72.8243 33.4533H73.9422C73.7746 34.0926 73.4403 34.6064 72.9384 34.9945C72.4365 35.3748 71.8091 35.5654 71.0562 35.5654C70.463 35.5654 69.9348 35.4319 69.4706 35.1658C69.0143 34.8988 68.6571 34.5221 68.3983 34.0355C68.1394 33.5481 68.0105 32.9773 68.0105 32.323ZM75.9779 28.1902C75.7796 28.1902 75.6129 28.1217 75.476 27.9847C75.3391 27.8477 75.2707 27.68 75.2707 27.4824C75.2707 27.2839 75.3391 27.117 75.476 26.98C75.6129 26.843 75.7796 26.7745 75.9779 26.7745C76.1675 26.7745 76.3272 26.843 76.4571 26.98C76.5939 27.117 76.6624 27.2839 76.6624 27.4824C76.6624 27.68 76.5939 27.8477 76.4571 27.9847C76.3272 28.1217 76.1675 28.1902 75.9779 28.1902ZM76.4799 29.2063V35.4626H75.4418V29.2063H76.4799ZM77.9751 32.3116C77.9751 31.6723 78.1041 31.1129 78.3629 30.6334C78.6218 30.146 78.9754 29.7692 79.4238 29.5031C79.8801 29.2361 80.3855 29.1035 80.941 29.1035C81.4885 29.1035 81.9641 29.2212 82.3669 29.4574C82.7696 29.6928 83.0706 29.9896 83.268 30.348V29.2063H84.3175V35.4626H83.268V34.2981C83.0627 34.6635 82.7547 34.9673 82.344 35.2114C81.9413 35.4468 81.4692 35.5654 80.9296 35.5654C80.3741 35.5654 79.8722 35.4284 79.4238 35.1544C78.9754 34.8804 78.6218 34.4957 78.3629 34.0013C78.1041 33.506 77.9751 32.943 77.9751 32.3116ZM83.268 32.323C83.268 31.8506 83.1733 31.4396 82.9828 31.09C82.7924 30.7396 82.5345 30.4735 82.2072 30.2909C81.8877 30.1003 81.5341 30.0055 81.1463 30.0055C80.7584 30.0055 80.4048 30.0968 80.0854 30.2795C79.766 30.4621 79.5115 30.7282 79.3211 31.0786C79.1307 31.4281 79.036 31.8391 79.036 32.3116C79.036 32.7911 79.1307 33.2091 79.3211 33.5675C79.5115 33.917 79.766 34.1875 80.0854 34.378C80.4048 34.5607 80.7584 34.652 81.1463 34.652C81.5341 34.652 81.8877 34.5607 82.2072 34.378C82.5345 34.1875 82.7924 33.917 82.9828 33.5675C83.1733 33.2091 83.268 32.7946 83.268 32.323ZM87.2237 27.0143V35.4626H86.1857V27.0143H87.2237ZM94.7832 35.5425C94.2584 35.5425 93.7872 35.4512 93.3687 35.2685C92.958 35.078 92.6351 34.8189 92.3991 34.4922C92.163 34.1567 92.0419 33.7729 92.034 33.3391H93.1405C93.1783 33.7115 93.3309 34.0276 93.5968 34.2867C93.8706 34.5379 94.2663 34.6635 94.7832 34.6635C95.2772 34.6635 95.665 34.5414 95.9467 34.2981C96.2354 34.047 96.3802 33.7273 96.3802 33.3391C96.3802 33.0344 96.2968 32.7867 96.1292 32.597C95.9616 32.4065 95.7528 32.2616 95.5018 32.1632C95.2509 32.064 94.9122 31.9577 94.4866 31.8435C93.9619 31.7065 93.5398 31.5695 93.2204 31.4325C92.9089 31.2955 92.6386 31.0821 92.4105 30.7932C92.1902 30.4964 92.0797 30.1003 92.0797 29.6059C92.0797 29.172 92.1902 28.7874 92.4105 28.4528C92.6307 28.1173 92.9387 27.8591 93.3344 27.6764C93.7372 27.4938 94.1979 27.4024 94.7147 27.4024C95.4597 27.4024 96.0687 27.5886 96.5399 27.9619C97.019 28.3342 97.2892 28.8295 97.3498 29.446H96.2091C96.1713 29.1413 96.0116 28.8752 95.73 28.6469C95.4483 28.4106 95.0763 28.293 94.6121 28.293C94.1786 28.293 93.825 28.4071 93.5512 28.6355C93.2774 28.8559 93.1405 29.1676 93.1405 29.5716C93.1405 29.8605 93.2204 30.0968 93.3801 30.2795C93.5477 30.4621 93.7486 30.6026 93.9847 30.7019C94.2277 30.7932 94.5664 30.8995 94.9999 31.0215C95.5246 31.1656 95.9467 31.3105 96.2661 31.4554C96.5855 31.5924 96.8593 31.8093 97.0874 32.1061C97.3156 32.395 97.4296 32.7911 97.4296 33.2935C97.4296 33.6816 97.327 34.047 97.1216 34.3895C96.9163 34.732 96.6118 35.0095 96.2091 35.2229C95.8063 35.4354 95.3307 35.5425 94.7832 35.5425ZM104.775 32.0947C104.775 32.2923 104.764 32.5013 104.741 32.7226H99.7444C99.7822 33.3391 99.9919 33.8221 100.372 34.1725C100.76 34.515 101.227 34.6863 101.775 34.6863C102.223 34.6863 102.596 34.5835 102.893 34.378C103.197 34.1646 103.41 33.8827 103.532 33.5332H104.65C104.482 34.1339 104.148 34.6248 103.646 35.006C103.144 35.3783 102.52 35.5654 101.775 35.5654C101.182 35.5654 100.649 35.4319 100.178 35.1658C99.7137 34.8988 99.3487 34.5221 99.0828 34.0355C98.8169 33.5402 98.6836 32.9694 98.6836 32.323C98.6836 31.6758 98.8126 31.1085 99.0714 30.6219C99.3303 30.1345 99.6909 29.7613 100.155 29.5031C100.626 29.2361 101.167 29.1035 101.775 29.1035C102.368 29.1035 102.893 29.2326 103.349 29.4917C103.805 29.7499 104.156 30.1082 104.399 30.5649C104.65 31.0136 104.775 31.5239 104.775 32.0947ZM103.703 31.8778C103.703 31.4817 103.615 31.1427 103.44 30.8617C103.266 30.5719 103.026 30.355 102.722 30.2109C102.425 30.0581 102.094 29.9826 101.729 29.9826C101.205 29.9826 100.756 30.1495 100.383 30.4849C100.018 30.8195 99.8094 31.2841 99.7558 31.8778H103.703ZM107.297 30.2224C107.479 29.8641 107.738 29.5866 108.073 29.389C108.415 29.1905 108.83 29.0921 109.316 29.0921V30.1653H109.042C107.879 30.1653 107.297 30.7967 107.297 32.0605V35.4626H106.259V29.2063H107.297V30.2224ZM112.956 34.5036L114.895 29.2063H116.001L113.549 35.4626H112.34L109.887 29.2063H111.005L112.956 34.5036ZM117.673 28.1902C117.476 28.1902 117.308 28.1217 117.171 27.9847C117.034 27.8477 116.966 27.68 116.966 27.4824C116.966 27.2839 117.034 27.117 117.171 26.98C117.308 26.843 117.476 26.7745 117.673 26.7745C117.863 26.7745 118.023 26.843 118.152 26.98C118.289 27.117 118.357 27.2839 118.357 27.4824C118.357 27.68 118.289 27.8477 118.152 27.9847C118.023 28.1217 117.863 28.1902 117.673 28.1902ZM118.175 29.2063V35.4626H117.137V29.2063H118.175ZM119.67 32.323C119.67 31.6758 119.8 31.1129 120.058 30.6334C120.317 30.146 120.674 29.7692 121.13 29.5031C121.594 29.2361 122.123 29.1035 122.716 29.1035C123.485 29.1035 124.115 29.2897 124.61 29.663C125.111 30.0353 125.442 30.5534 125.602 31.2156H124.484C124.378 30.8345 124.169 30.5341 123.857 30.3137C123.553 30.0924 123.172 29.9826 122.716 29.9826C122.123 29.9826 121.644 30.1881 121.279 30.5991C120.914 31.0022 120.731 31.5766 120.731 32.323C120.731 33.0765 120.914 33.6588 121.279 34.0698C121.644 34.4808 122.123 34.6863 122.716 34.6863C123.172 34.6863 123.553 34.5791 123.857 34.3666C124.161 34.1532 124.37 33.8485 124.484 33.4533H125.602C125.435 34.0926 125.1 34.6064 124.598 34.9945C124.096 35.3748 123.469 35.5654 122.716 35.5654C122.123 35.5654 121.594 35.4319 121.13 35.1658C120.674 34.8988 120.317 34.5221 120.058 34.0355C119.8 33.5481 119.67 32.9773 119.67 32.323ZM132.805 32.0947C132.805 32.2923 132.794 32.5013 132.771 32.7226H127.775C127.812 33.3391 128.022 33.8221 128.402 34.1725C128.79 34.515 129.258 34.6863 129.805 34.6863C130.253 34.6863 130.626 34.5835 130.923 34.378C131.227 34.1646 131.44 33.8827 131.562 33.5332H132.68C132.512 34.1339 132.178 34.6248 131.676 35.006C131.174 35.3783 130.55 35.5654 129.805 35.5654C129.212 35.5654 128.679 35.4319 128.208 35.1658C127.744 34.8988 127.379 34.5221 127.113 34.0355C126.847 33.5402 126.714 32.9694 126.714 32.323C126.714 31.6758 126.843 31.1085 127.102 30.6219C127.36 30.1345 127.721 29.7613 128.185 29.5031C128.656 29.2361 129.197 29.1035 129.805 29.1035C130.398 29.1035 130.923 29.2326 131.379 29.4917C131.836 29.7499 132.186 30.1082 132.429 30.5649C132.68 31.0136 132.805 31.5239 132.805 32.0947ZM131.733 31.8778C131.733 31.4817 131.645 31.1427 131.471 30.8617C131.296 30.5719 131.056 30.355 130.752 30.2109C130.455 30.0581 130.124 29.9826 129.759 29.9826C129.235 29.9826 128.786 30.1495 128.413 30.4849C128.048 30.8195 127.84 31.2841 127.786 31.8778H131.733ZM141.631 35.4626L139.737 32.2089H138.482V35.4626H137.444V27.5052H140.011C140.612 27.5052 141.117 27.608 141.528 27.8135C141.947 28.019 142.258 28.2965 142.464 28.6469C142.669 28.9964 142.772 29.396 142.772 29.8456C142.772 30.3936 142.612 30.8766 142.292 31.2955C141.981 31.7136 141.51 31.992 140.878 32.129L142.874 35.4626H141.631ZM138.482 31.3755H140.011C140.574 31.3755 140.996 31.2384 141.277 30.9644C141.559 30.6825 141.699 30.3093 141.699 29.8456C141.699 29.3731 141.559 29.0078 141.277 28.7496C141.003 28.4905 140.581 28.3614 140.011 28.3614H138.482V31.3755ZM150.202 32.0947C150.202 32.2923 150.191 32.5013 150.168 32.7226H145.171C145.21 33.3391 145.419 33.8221 145.799 34.1725C146.187 34.515 146.654 34.6863 147.202 34.6863C147.651 34.6863 148.023 34.5835 148.32 34.378C148.624 34.1646 148.838 33.8827 148.959 33.5332H150.077C149.91 34.1339 149.575 34.6248 149.073 35.006C148.571 35.3783 147.948 35.5654 147.202 35.5654C146.609 35.5654 146.077 35.4319 145.605 35.1658C145.142 34.8988 144.777 34.5221 144.51 34.0355C144.244 33.5402 144.111 32.9694 144.111 32.323C144.111 31.6758 144.24 31.1085 144.498 30.6219C144.757 30.1345 145.119 29.7613 145.582 29.5031C146.054 29.2361 146.594 29.1035 147.202 29.1035C147.795 29.1035 148.32 29.2326 148.776 29.4917C149.232 29.7499 149.583 30.1082 149.826 30.5649C150.077 31.0136 150.202 31.5239 150.202 32.0947ZM149.13 31.8778C149.13 31.4817 149.043 31.1427 148.867 30.8617C148.693 30.5719 148.453 30.355 148.149 30.2109C147.852 30.0581 147.521 29.9826 147.156 29.9826C146.632 29.9826 146.183 30.1495 145.81 30.4849C145.445 30.8195 145.236 31.2841 145.183 31.8778H149.13ZM154.014 34.5036L155.953 29.2063H157.059L154.607 35.4626H153.398L150.945 29.2063H152.063L154.014 34.5036ZM158.731 28.1902C158.534 28.1902 158.366 28.1217 158.229 27.9847C158.092 27.8477 158.024 27.68 158.024 27.4824C158.024 27.2839 158.092 27.117 158.229 26.98C158.366 26.843 158.534 26.7745 158.731 26.7745C158.922 26.7745 159.081 26.843 159.21 26.98C159.347 27.117 159.416 27.2839 159.416 27.4824C159.416 27.68 159.347 27.8477 159.21 27.9847C159.081 28.1217 158.922 28.1902 158.731 28.1902ZM159.233 29.2063V35.4626H158.195V29.2063H159.233ZM166.82 32.0947C166.82 32.2923 166.808 32.5013 166.785 32.7226H161.789C161.828 33.3391 162.037 33.8221 162.417 34.1725C162.804 34.515 163.272 34.6863 163.82 34.6863C164.269 34.6863 164.641 34.5835 164.937 34.378C165.242 34.1646 165.455 33.8827 165.576 33.5332H166.694C166.527 34.1339 166.192 34.6248 165.69 35.006C165.188 35.3783 164.565 35.5654 163.82 35.5654C163.226 35.5654 162.695 35.4319 162.223 35.1658C161.759 34.8988 161.394 34.5221 161.127 34.0355C160.862 33.5402 160.728 32.9694 160.728 32.323C160.728 31.6758 160.858 31.1085 161.116 30.6219C161.375 30.1345 161.736 29.7613 162.2 29.5031C162.672 29.2361 163.211 29.1035 163.82 29.1035C164.413 29.1035 164.937 29.2326 165.394 29.4917C165.85 29.7499 166.2 30.1082 166.443 30.5649C166.694 31.0136 166.82 31.5239 166.82 32.0947ZM165.747 31.8778C165.747 31.4817 165.661 31.1427 165.485 30.8617C165.31 30.5719 165.071 30.355 164.766 30.2109C164.47 30.0581 164.139 29.9826 163.774 29.9826C163.249 29.9826 162.801 30.1495 162.428 30.4849C162.063 30.8195 161.854 31.2841 161.8 31.8778H165.747ZM176.632 29.2063L174.681 35.4626H173.609L172.103 30.4964L170.597 35.4626H169.525L167.563 29.2063H168.624L170.061 34.4579L171.612 29.2063H172.673L174.19 34.4694L175.605 29.2063H176.632Z" fill="#989898"/>
<path d="M45.8909 47.9946V49.1381H43.6183V56.5396H42.2178V49.1381H39.9329V47.9946H45.8909ZM50.245 56.6502C49.6062 56.6502 49.0288 56.5062 48.5128 56.2199C47.9969 55.9248 47.5915 55.5147 47.2967 54.9904C47.0018 54.4573 46.8544 53.8426 46.8544 53.1462C46.8544 52.4577 47.0062 51.8464 47.3089 51.3142C47.6125 50.7812 48.0258 50.3711 48.5497 50.0848C49.0744 49.7976 49.6597 49.6544 50.3064 49.6544C50.954 49.6544 51.5392 49.7976 52.0631 50.0848C52.5878 50.3711 53.0011 50.7812 53.3038 51.3142C53.6075 51.8464 53.7584 52.4577 53.7584 53.1462C53.7584 53.8347 53.6031 54.445 53.2916 54.9781C52.981 55.5103 52.5545 55.9248 52.0139 56.2199C51.4822 56.5062 50.8925 56.6502 50.245 56.6502ZM50.245 55.433C50.6056 55.433 50.9417 55.347 51.2523 55.1748C51.5717 55.0027 51.8297 54.7445 52.0262 54.4003C52.2228 54.056 52.3211 53.638 52.3211 53.1462C52.3211 52.6544 52.2272 52.2399 52.0385 51.9044C51.8508 51.5601 51.6007 51.302 51.2892 51.1298C50.9785 50.9577 50.6425 50.8716 50.2818 50.8716C49.922 50.8716 49.586 50.9577 49.2745 51.1298C48.9718 51.302 48.7304 51.5601 48.5497 51.9044C48.3698 52.2399 48.2794 52.6544 48.2794 53.1462C48.2794 53.8751 48.4637 54.4407 48.8322 54.8429C49.2096 55.2363 49.6799 55.433 50.245 55.433ZM56.5435 50.761C56.7813 50.4492 57.1042 50.1866 57.514 49.9741C57.9238 49.7607 58.3862 49.6544 58.9022 49.6544C59.4918 49.6544 60.028 49.802 60.5115 50.097C61.0028 50.3833 61.388 50.7891 61.6662 51.3142C61.9444 51.8385 62.0839 52.441 62.0839 53.1216C62.0839 53.8013 61.9444 54.4125 61.6662 54.9535C61.388 55.4857 61.0028 55.9038 60.5115 56.2076C60.028 56.5027 59.4918 56.6502 58.9022 56.6502C58.3862 56.6502 57.9273 56.5475 57.5263 56.3428C57.1253 56.1294 56.7971 55.8669 56.5435 55.556V59.7608H55.143V49.7651H56.5435V50.761ZM60.6589 53.1216C60.6589 52.6544 60.5606 52.2522 60.364 51.9167C60.1754 51.5724 59.9218 51.3142 59.6024 51.1421C59.2909 50.9612 58.9557 50.8716 58.595 50.8716C58.2432 50.8716 57.9071 50.9612 57.5877 51.1421C57.2762 51.3221 57.0226 51.5847 56.826 51.929C56.6374 52.2733 56.5435 52.679 56.5435 53.1462C56.5435 53.6134 56.6374 54.0226 56.826 54.3757C57.0226 54.7199 57.2762 54.9816 57.5877 55.1625C57.9071 55.3426 58.2432 55.433 58.595 55.433C58.9557 55.433 59.2909 55.3426 59.6024 55.1625C59.9218 54.9737 60.1754 54.7032 60.364 54.3511C60.5606 53.998 60.6589 53.5888 60.6589 53.1216ZM72.1758 47.9946V49.1381H69.9031V56.5396H68.5026V49.1381H66.2177V47.9946H72.1758ZM74.9951 50.7487C75.1995 50.4044 75.4698 50.1374 75.8059 49.9495C76.1499 49.7528 76.5552 49.6544 77.0221 49.6544V51.1052H76.6658C76.1165 51.1052 75.6988 51.244 75.4128 51.5233C75.1337 51.8017 74.9951 52.2855 74.9951 52.9741V56.5396H73.5947V49.7651H74.9951V50.7487ZM77.8425 53.1216C77.8425 52.441 77.9812 51.8385 78.2602 51.3142C78.5462 50.7891 78.9315 50.3833 79.415 50.097C79.9063 49.802 80.4469 49.6544 81.0365 49.6544C81.5683 49.6544 82.0316 49.7607 82.4247 49.9741C82.8257 50.1787 83.1451 50.4369 83.3829 50.7487V49.7651H84.7956V56.5396H83.3829V55.5314C83.1451 55.8511 82.8213 56.1172 82.4124 56.3306C82.0026 56.5431 81.5358 56.6502 81.0119 56.6502C80.4302 56.6502 79.8976 56.5027 79.415 56.2076C78.9315 55.9038 78.5462 55.4857 78.2602 54.9535C77.9812 54.4125 77.8425 53.8013 77.8425 53.1216ZM83.3829 53.1462C83.3829 52.679 83.2846 52.2733 83.0881 51.929C82.8994 51.5847 82.6493 51.3221 82.3387 51.1421C82.0272 50.9612 81.6911 50.8716 81.3314 50.8716C80.9707 50.8716 80.6346 50.9612 80.324 51.1421C80.0125 51.3142 79.7589 51.5724 79.5624 51.9167C79.3737 52.2522 79.2798 52.6544 79.2798 53.1216C79.2798 53.5888 79.3737 53.998 79.5624 54.3511C79.7589 54.7032 80.0125 54.9737 80.324 55.1625C80.6434 55.3426 80.9786 55.433 81.3314 55.433C81.6911 55.433 82.0272 55.3426 82.3387 55.1625C82.6493 54.9816 82.8994 54.7199 83.0881 54.3757C83.2846 54.0226 83.3829 53.6134 83.3829 53.1462ZM86.168 53.1216C86.168 52.441 86.3075 51.8385 86.5857 51.3142C86.8726 50.7891 87.257 50.3833 87.7404 50.097C88.2318 49.802 88.7767 49.6544 89.3743 49.6544C89.8166 49.6544 90.2509 49.7528 90.6765 49.9495C91.1108 50.1374 91.4548 50.3921 91.7084 50.7118V47.4414H93.1212V56.5396H91.7084V55.5191C91.4794 55.8467 91.16 56.1172 90.7502 56.3306C90.3492 56.5431 89.8859 56.6502 89.362 56.6502C88.7724 56.6502 88.2318 56.5027 87.7404 56.2076C87.257 55.9038 86.8726 55.4857 86.5857 54.9535C86.3075 54.4125 86.168 53.8013 86.168 53.1216ZM91.7084 53.1462C91.7084 52.679 91.6101 52.2733 91.4136 51.929C91.2249 51.5847 90.9757 51.3221 90.6642 51.1421C90.3527 50.9612 90.0175 50.8716 89.6569 50.8716C89.2962 50.8716 88.961 50.9612 88.6495 51.1421C88.338 51.3142 88.0844 51.5724 87.8879 51.9167C87.6992 52.2522 87.6053 52.6544 87.6053 53.1216C87.6053 53.5888 87.6992 53.998 87.8879 54.3511C88.0844 54.7032 88.338 54.9737 88.6495 55.1625C88.9689 55.3426 89.305 55.433 89.6569 55.433C90.0175 55.433 90.3527 55.3426 90.6642 55.1625C90.9757 54.9816 91.2249 54.7199 91.4136 54.3757C91.6101 54.0226 91.7084 53.6134 91.7084 53.1462ZM95.6728 48.8676C95.4193 48.8676 95.206 48.7815 95.034 48.6094C94.8621 48.4372 94.7761 48.2238 94.7761 47.97C94.7761 47.7154 94.8621 47.5028 95.034 47.3307C95.206 47.1586 95.4193 47.0725 95.6728 47.0725C95.9185 47.0725 96.1274 47.1586 96.2994 47.3307C96.4714 47.5028 96.5573 47.7154 96.5573 47.97C96.5573 48.2238 96.4714 48.4372 96.2994 48.6094C96.1274 48.7815 95.9185 48.8676 95.6728 48.8676ZM96.3608 49.7651V56.5396H94.9604V49.7651H96.3608ZM101.615 49.6544C102.147 49.6544 102.622 49.7651 103.04 49.9864C103.466 50.2077 103.797 50.5353 104.035 50.97C104.272 51.4038 104.391 51.929 104.391 52.5437V56.5396H103.003V52.7527C103.003 52.1459 102.851 51.6831 102.549 51.3634C102.245 51.035 101.832 50.8716 101.308 50.8716C100.783 50.8716 100.366 51.035 100.055 51.3634C99.7514 51.6831 99.6004 52.1459 99.6004 52.7527V56.5396H98.2V49.7651H99.6004V50.5397C99.8295 50.2604 100.12 50.0435 100.473 49.888C100.832 49.7317 101.213 49.6544 101.615 49.6544ZM108.904 49.6544C109.429 49.6544 109.892 49.7607 110.293 49.9741C110.702 50.1787 111.022 50.4369 111.251 50.7487V49.7651H112.663V56.6502C112.663 57.2729 112.533 57.8261 112.27 58.31C112.009 58.8018 111.628 59.1865 111.128 59.4657C110.636 59.7441 110.047 59.8838 109.359 59.8838C108.442 59.8838 107.68 59.666 107.074 59.2321C106.468 58.8053 106.124 58.224 106.042 57.4863H107.43C107.537 57.8384 107.762 58.1212 108.106 58.3346C108.459 58.5559 108.876 58.6666 109.359 58.6666C109.924 58.6666 110.378 58.4945 110.722 58.1502C111.075 57.8059 111.251 57.3054 111.251 56.6502V55.5191C111.014 55.8388 110.69 56.1092 110.28 56.3306C109.879 56.5431 109.42 56.6502 108.904 56.6502C108.315 56.6502 107.774 56.5027 107.283 56.2076C106.8 55.9038 106.415 55.4857 106.128 54.9535C105.85 54.4125 105.71 53.8013 105.71 53.1216C105.71 52.441 105.85 51.8385 106.128 51.3142C106.415 50.7891 106.8 50.3833 107.283 50.097C107.774 49.802 108.315 49.6544 108.904 49.6544ZM111.251 53.1462C111.251 52.679 111.152 52.2733 110.956 51.929C110.768 51.5847 110.518 51.3221 110.207 51.1421C109.896 50.9612 109.56 50.8716 109.199 50.8716C108.839 50.8716 108.503 50.9612 108.192 51.1421C107.881 51.3142 107.627 51.5724 107.43 51.9167C107.242 52.2522 107.148 52.6544 107.148 53.1216C107.148 53.5888 107.242 53.998 107.43 54.3511C107.627 54.7032 107.881 54.9737 108.192 55.1625C108.511 55.3426 108.847 55.433 109.199 55.433C109.56 55.433 109.896 55.3426 110.207 55.1625C110.518 54.9816 110.768 54.7199 110.956 54.3757C111.152 54.0226 111.251 53.6134 111.251 53.1462ZM120.507 56.6256C119.934 56.6256 119.418 56.5273 118.959 56.3306C118.501 56.1251 118.141 55.8388 117.878 55.4699C117.617 55.1011 117.485 54.6708 117.485 54.179H118.984C119.017 54.5478 119.16 54.8508 119.414 55.0888C119.676 55.3259 120.04 55.4453 120.507 55.4453C120.991 55.4453 121.367 55.3303 121.637 55.1011C121.908 54.8631 122.043 54.5601 122.043 54.1912C122.043 53.9041 121.957 53.6705 121.785 53.4904C121.622 53.3095 121.413 53.1708 121.158 53.0724C120.913 52.9741 120.569 52.8669 120.126 52.7527C119.57 52.6052 119.116 52.4577 118.763 52.3101C118.419 52.1538 118.124 51.9167 117.878 51.597C117.633 51.2774 117.51 50.8505 117.51 50.3184C117.51 49.8266 117.633 49.3963 117.878 49.0274C118.124 48.6586 118.468 48.3758 118.91 48.1791C119.352 47.9823 119.865 47.884 120.446 47.884C121.273 47.884 121.949 48.093 122.473 48.511C123.005 48.9203 123.3 49.4858 123.357 50.2077H121.809C121.785 49.8959 121.637 49.6298 121.367 49.4085C121.097 49.1872 120.741 49.0766 120.298 49.0766C119.897 49.0766 119.57 49.1784 119.316 49.3839C119.062 49.5886 118.935 49.8836 118.935 50.2692C118.935 50.5309 119.013 50.7487 119.168 50.9208C119.332 51.0842 119.537 51.2159 119.782 51.3142C120.028 51.4126 120.364 51.5189 120.79 51.6339C121.355 51.7894 121.814 51.9448 122.166 52.1011C122.526 52.2566 122.829 52.4981 123.075 52.8265C123.329 53.1462 123.456 53.5765 123.456 54.1175C123.456 54.5513 123.337 54.9614 123.099 55.347C122.87 55.7316 122.531 56.0434 122.08 56.2814C121.637 56.5106 121.114 56.6256 120.507 56.6256ZM128.045 56.6502C127.406 56.6502 126.829 56.5062 126.313 56.2199C125.797 55.9248 125.391 55.5147 125.096 54.9904C124.802 54.4573 124.654 53.8426 124.654 53.1462C124.654 52.4577 124.805 51.8464 125.109 51.3142C125.411 50.7812 125.825 50.3711 126.349 50.0848C126.873 49.7976 127.459 49.6544 128.106 49.6544C128.753 49.6544 129.338 49.7976 129.863 50.0848C130.387 50.3711 130.8 50.7812 131.104 51.3142C131.406 51.8464 131.558 52.4577 131.558 53.1462C131.558 53.8347 131.402 54.445 131.091 54.9781C130.78 55.5103 130.354 55.9248 129.814 56.2199C129.281 56.5062 128.691 56.6502 128.045 56.6502ZM128.045 55.433C128.405 55.433 128.741 55.347 129.052 55.1748C129.372 55.0027 129.629 54.7445 129.826 54.4003C130.023 54.056 130.121 53.638 130.121 53.1462C130.121 52.6544 130.026 52.2399 129.838 51.9044C129.65 51.5601 129.4 51.302 129.089 51.1298C128.777 50.9577 128.441 50.8716 128.082 50.8716C127.721 50.8716 127.385 50.9577 127.074 51.1298C126.771 51.302 126.529 51.5601 126.349 51.9044C126.169 52.2399 126.079 52.6544 126.079 53.1462C126.079 53.8751 126.263 54.4407 126.632 54.8429C127.008 55.2363 127.48 55.433 128.045 55.433ZM134.342 47.4414V56.5396H132.942V47.4414H134.342ZM142.312 49.7651V56.5396H140.911V55.7404C140.69 56.0188 140.399 56.2401 140.039 56.4043C139.686 56.5598 139.31 56.6379 138.909 56.6379C138.376 56.6379 137.897 56.5273 137.471 56.306C137.054 56.0847 136.722 55.7562 136.476 55.3224C136.239 54.8877 136.12 54.3634 136.12 53.7486V49.7651H137.508V53.5396C137.508 54.1456 137.659 54.6128 137.963 54.9412C138.266 55.2609 138.679 55.4207 139.204 55.4207C139.727 55.4207 140.141 55.2609 140.444 54.9412C140.755 54.6128 140.911 54.1456 140.911 53.5396V49.7651H142.312ZM145.793 50.9085V54.6584C145.793 54.9122 145.851 55.0967 145.965 55.2117C146.087 55.318 146.293 55.3716 146.579 55.3716H147.439V56.5396H146.333C145.703 56.5396 145.22 56.392 144.884 56.0969C144.548 55.8019 144.38 55.3224 144.38 54.6584V50.9085H143.581V49.7651H144.38V48.0807H145.793V49.7651H147.439V50.9085H145.793ZM149.442 48.8676C149.188 48.8676 148.975 48.7815 148.803 48.6094C148.631 48.4372 148.545 48.2238 148.545 47.97C148.545 47.7154 148.631 47.5028 148.803 47.3307C148.975 47.1586 149.188 47.0725 149.442 47.0725C149.688 47.0725 149.897 47.1586 150.069 47.3307C150.241 47.5028 150.327 47.7154 150.327 47.97C150.327 48.2238 150.241 48.4372 150.069 48.6094C149.897 48.7815 149.688 48.8676 149.442 48.8676ZM150.13 49.7651V56.5396H148.73V49.7651H150.13ZM154.905 56.6502C154.266 56.6502 153.689 56.5062 153.173 56.2199C152.657 55.9248 152.252 55.5147 151.957 54.9904C151.662 54.4573 151.515 53.8426 151.515 53.1462C151.515 52.4577 151.666 51.8464 151.969 51.3142C152.272 50.7812 152.686 50.3711 153.21 50.0848C153.734 49.7976 154.32 49.6544 154.967 49.6544C155.613 49.6544 156.2 49.7976 156.723 50.0848C157.247 50.3711 157.661 50.7812 157.964 51.3142C158.267 51.8464 158.419 52.4577 158.419 53.1462C158.419 53.8347 158.263 54.445 157.952 54.9781C157.64 55.5103 157.215 55.9248 156.674 56.2199C156.142 56.5062 155.552 56.6502 154.905 56.6502ZM154.905 55.433C155.266 55.433 155.601 55.347 155.913 55.1748C156.232 55.0027 156.49 54.7445 156.687 54.4003C156.883 54.056 156.981 53.638 156.981 53.1462C156.981 52.6544 156.887 52.2399 156.699 51.9044C156.51 51.5601 156.261 51.302 155.949 51.1298C155.638 50.9577 155.303 50.8716 154.942 50.8716C154.581 50.8716 154.246 50.9577 153.935 51.1298C153.632 51.302 153.39 51.5601 153.21 51.9044C153.03 52.2399 152.94 52.6544 152.94 53.1462C152.94 53.8751 153.124 54.4407 153.492 54.8429C153.869 55.2363 154.34 55.433 154.905 55.433ZM163.218 49.6544C163.75 49.6544 164.226 49.7651 164.643 49.9864C165.069 50.2077 165.401 50.5353 165.639 50.97C165.875 51.4038 165.995 51.929 165.995 52.5437V56.5396H164.607V52.7527C164.607 52.1459 164.455 51.6831 164.152 51.3634C163.848 51.035 163.435 50.8716 162.911 50.8716C162.387 50.8716 161.969 51.035 161.658 51.3634C161.355 51.6831 161.204 52.1459 161.204 52.7527V56.5396H159.803V49.7651H161.204V50.5397C161.433 50.2604 161.723 50.0435 162.076 49.888C162.436 49.7317 162.817 49.6544 163.218 49.6544ZM170.237 56.6502C169.706 56.6502 169.227 56.5554 168.8 56.3674C168.382 56.1707 168.051 55.9081 167.805 55.5806C167.559 55.2442 167.429 54.871 167.412 54.4617H168.862C168.886 54.748 169.021 54.9904 169.267 55.1871C169.521 55.3751 169.836 55.4699 170.213 55.4699C170.606 55.4699 170.91 55.3962 171.122 55.2486C171.343 55.0923 171.454 54.8956 171.454 54.6584C171.454 54.4038 171.331 54.2158 171.085 54.0929C170.848 53.9699 170.467 53.8347 169.943 53.6872C169.435 53.5475 169.021 53.4123 168.702 53.2814C168.382 53.1497 168.104 52.9495 167.866 52.679C167.637 52.4085 167.522 52.0519 167.522 51.6093C167.522 51.2484 167.63 50.9208 167.842 50.6257C168.055 50.3219 168.358 50.0848 168.751 49.9126C169.153 49.7405 169.611 49.6544 170.127 49.6544C170.897 49.6544 171.515 49.8512 171.982 50.2446C172.457 50.6292 172.711 51.1579 172.743 51.8306H171.343C171.318 51.5268 171.196 51.2853 170.974 51.1052C170.753 50.9243 170.455 50.8348 170.078 50.8348C169.709 50.8348 169.427 50.9041 169.23 51.0438C169.033 51.1825 168.935 51.3669 168.935 51.597C168.935 51.7771 169.001 51.929 169.132 52.0519C169.263 52.1749 169.423 52.2733 169.611 52.347C169.8 52.412 170.078 52.4981 170.446 52.6052C170.938 52.7361 171.339 52.8713 171.65 53.0109C171.97 53.1418 172.244 53.3385 172.473 53.6011C172.703 53.8628 172.822 54.2114 172.829 54.6462C172.829 55.0308 172.723 55.3751 172.51 55.6789C172.298 55.9819 171.994 56.2199 171.601 56.392C171.217 56.5642 170.762 56.6502 170.237 56.6502ZM87.9326 68.982C87.9326 69.4158 87.83 69.8259 87.6255 70.2115C87.4202 70.5961 87.0929 70.9123 86.6427 71.1582C86.1917 71.3953 85.6143 71.5147 84.9106 71.5147H83.3627V74.9819H81.9623V66.4369H84.9106C85.5652 66.4369 86.118 66.5511 86.569 66.7812C87.0271 67.0025 87.3675 67.3055 87.5887 67.691C87.8177 68.0757 87.9326 68.506 87.9326 68.982ZM84.9106 70.3713C85.4424 70.3713 85.8399 70.2519 86.1022 70.0148C86.3637 69.7689 86.4953 69.4246 86.4953 68.982C86.4953 68.0476 85.9671 67.5804 84.9106 67.5804H83.3627V70.3713H84.9106ZM90.6686 69.191C90.873 68.8468 91.1433 68.5798 91.4794 68.3918C91.8234 68.1951 92.2287 68.0968 92.6956 68.0968V69.5475H92.3393C91.79 69.5475 91.3723 69.6863 91.0863 69.9656C90.8072 70.244 90.6686 70.7279 90.6686 71.4164V74.9819H89.2682V68.2074H90.6686V69.191ZM96.9189 75.0925C96.2801 75.0925 95.7027 74.9485 95.1867 74.6622C94.6708 74.3671 94.2654 73.957 93.9705 73.4327C93.6757 72.8997 93.5283 72.2849 93.5283 71.5885C93.5283 70.9 93.6801 70.2887 93.9828 69.7566C94.2856 69.2235 94.6997 68.8134 95.2236 68.5271C95.7474 68.2399 96.3336 68.0968 96.9803 68.0968C97.627 68.0968 98.2132 68.2399 98.737 68.5271C99.2609 68.8134 99.675 69.2235 99.9778 69.7566C100.28 70.2887 100.432 70.9 100.432 71.5885C100.432 72.277 100.277 72.8874 99.9655 73.4204C99.654 73.9526 99.2284 74.3671 98.6879 74.6622C98.1552 74.9485 97.5656 75.0925 96.9189 75.0925ZM96.9189 73.8753C97.2795 73.8753 97.6147 73.7893 97.9262 73.6171C98.2456 73.445 98.5036 73.1868 98.7002 72.8426C98.8967 72.4983 98.995 72.0803 98.995 71.5885C98.995 71.0967 98.9011 70.6822 98.7124 70.3467C98.5238 70.0025 98.2746 69.7443 97.9631 69.5721C97.6516 69.4 97.3164 69.3139 96.9557 69.3139C96.5951 69.3139 96.2599 69.4 95.9484 69.5721C95.6456 69.7443 95.4035 70.0025 95.2236 70.3467C95.0437 70.6822 94.9533 71.0967 94.9533 71.5885C94.9533 72.3174 95.1376 72.883 95.5061 73.2852C95.8826 73.6786 96.3538 73.8753 96.9189 73.8753ZM104.434 73.7278L106.35 68.2074H107.836L105.257 74.9819H103.586L101.018 68.2074H102.517L104.434 73.7278ZM109.607 67.3099C109.354 67.3099 109.14 67.2238 108.968 67.0517C108.796 66.8796 108.71 66.6662 108.71 66.4124C108.71 66.1577 108.796 65.9452 108.968 65.773C109.14 65.6009 109.354 65.5148 109.607 65.5148C109.853 65.5148 110.062 65.6009 110.234 65.773C110.406 65.9452 110.492 66.1577 110.492 66.4124C110.492 66.6662 110.406 66.8796 110.234 67.0517C110.062 67.2238 109.853 67.3099 109.607 67.3099ZM110.295 68.2074V74.9819H108.895V68.2074H110.295ZM111.667 71.5639C111.667 70.8833 111.806 70.2808 112.084 69.7566C112.371 69.2314 112.756 68.8257 113.239 68.5394C113.73 68.2443 114.275 68.0968 114.873 68.0968C115.315 68.0968 115.75 68.1951 116.175 68.3918C116.609 68.5798 116.953 68.8344 117.207 69.1541V65.8837H118.62V74.9819H117.207V73.9614C116.978 74.289 116.659 74.5595 116.249 74.7729C115.848 74.9854 115.385 75.0925 114.861 75.0925C114.271 75.0925 113.73 74.945 113.239 74.6499C112.756 74.346 112.371 73.928 112.084 73.3958C111.806 72.8549 111.667 72.2436 111.667 71.5639ZM117.207 71.5885C117.207 71.1213 117.109 70.7156 116.912 70.3713C116.724 70.0271 116.474 69.7645 116.163 69.5844C115.852 69.4035 115.516 69.3139 115.155 69.3139C114.796 69.3139 114.46 69.4035 114.148 69.5844C113.838 69.7566 113.583 70.0148 113.386 70.359C113.199 70.6945 113.104 71.0967 113.104 71.5639C113.104 72.0311 113.199 72.4404 113.386 72.7934C113.583 73.1456 113.838 73.4161 114.148 73.6049C114.468 73.7849 114.804 73.8753 115.155 73.8753C115.516 73.8753 115.852 73.7849 116.163 73.6049C116.474 73.424 116.724 73.1622 116.912 72.818C117.109 72.4649 117.207 72.0557 117.207 71.5885ZM126.664 71.4287C126.664 71.6825 126.647 71.9117 126.614 72.1172H121.443C121.483 72.6582 121.684 73.092 122.045 73.4204C122.404 73.748 122.847 73.9122 123.371 73.9122C124.124 73.9122 124.657 73.5961 124.968 72.9655H126.479C126.274 73.5882 125.902 74.1002 125.361 74.5024C124.829 74.8958 124.165 75.0925 123.371 75.0925C122.724 75.0925 122.143 74.9485 121.627 74.6622C121.119 74.3671 120.718 73.957 120.423 73.4327C120.136 72.8997 119.993 72.2849 119.993 71.5885C119.993 70.8912 120.132 70.2808 120.411 69.7566C120.697 69.2235 121.094 68.8134 121.602 68.5271C122.118 68.2399 122.708 68.0968 123.371 68.0968C124.01 68.0968 124.579 68.2355 125.079 68.5148C125.578 68.7932 125.967 69.1866 126.246 69.6951C126.524 70.1948 126.664 70.7726 126.664 71.4287ZM125.202 70.986C125.193 70.4697 125.009 70.0551 124.649 69.7443C124.288 69.4325 123.842 69.2771 123.31 69.2771C122.826 69.2771 122.413 69.4325 122.069 69.7443C121.725 70.0472 121.52 70.4609 121.455 70.986H125.202ZM129.442 69.191C129.647 68.8468 129.917 68.5798 130.253 68.3918C130.596 68.1951 131.002 68.0968 131.469 68.0968V69.5475H131.112C130.564 69.5475 130.146 69.6863 129.859 69.9656C129.581 70.244 129.442 70.7279 129.442 71.4164V74.9819H128.041V68.2074H129.442V69.191ZM91.2565 93.8809C92.1551 93.1028 92.8614 92.4661 93.3765 91.9699C93.9003 91.464 94.3356 90.9389 94.6822 90.3961C95.0279 89.8525 95.2017 89.3089 95.2017 88.7662C95.2017 88.2041 95.0656 87.7633 94.7945 87.4454C94.5321 87.1266 94.1153 86.9676 93.545 86.9676C92.9922 86.9676 92.5622 87.145 92.2533 87.5016C91.9532 87.8476 91.7944 88.3165 91.776 88.9067H90.2316C90.2597 87.8388 90.5773 87.0238 91.1863 86.4618C91.804 85.8901 92.585 85.6046 93.5309 85.6046C94.5505 85.6046 95.3464 85.8857 95.9177 86.4477C96.4977 87.0098 96.7881 87.7589 96.7881 88.6959C96.7881 89.3704 96.6144 90.0212 96.2687 90.6491C95.9317 91.2673 95.5246 91.8241 95.0472 92.3212C94.5787 92.8077 93.9802 93.375 93.2501 94.0214L92.6184 94.5834H97.0689V95.9183H90.2457V94.752L91.2565 93.8809ZM98.615 90.8036C98.615 89.1825 98.8862 87.9178 99.4293 87.0098C99.9813 86.0912 100.927 85.6328 102.265 85.6328C103.603 85.6328 104.544 86.0912 105.087 87.0098C105.639 87.9178 105.916 89.1825 105.916 90.8036C105.916 92.4424 105.639 93.7263 105.087 94.6537C104.544 95.5714 103.603 96.0307 102.265 96.0307C100.927 96.0307 99.9813 95.5714 99.4293 94.6537C98.8862 93.7263 98.615 92.4424 98.615 90.8036ZM104.343 90.8036C104.343 90.0449 104.291 89.4029 104.189 88.8786C104.095 88.3534 103.898 87.9275 103.599 87.5999C103.3 87.2627 102.855 87.0941 102.265 87.0941C101.676 87.0941 101.231 87.2627 100.932 87.5999C100.632 87.9275 100.431 88.3534 100.328 88.8786C100.234 89.4029 100.187 90.0449 100.187 90.8036C100.187 91.5905 100.234 92.2509 100.328 92.7849C100.422 93.3188 100.618 93.7491 100.918 94.0776C101.226 94.4051 101.676 94.5694 102.265 94.5694C102.855 94.5694 103.3 94.4051 103.599 94.0776C103.908 93.7491 104.109 93.3188 104.203 92.7849C104.297 92.2509 104.343 91.5905 104.343 90.8036ZM108.634 93.8809C109.533 93.1028 110.239 92.4661 110.754 91.9699C111.278 91.464 111.713 90.9389 112.06 90.3961C112.406 89.8525 112.579 89.3089 112.579 88.7662C112.579 88.2041 112.443 87.7633 112.172 87.4454C111.91 87.1266 111.494 86.9676 110.923 86.9676C110.371 86.9676 109.94 87.145 109.631 87.5016C109.332 87.8476 109.172 88.3165 109.154 88.9067H107.609C107.637 87.8388 107.956 87.0238 108.564 86.4618C109.182 85.8901 109.963 85.6046 110.908 85.6046C111.929 85.6046 112.724 85.8857 113.295 86.4477C113.875 87.0098 114.166 87.7589 114.166 88.6959C114.166 89.3704 113.993 90.0212 113.646 90.6491C113.309 91.2673 112.902 91.8241 112.425 92.3212C111.957 92.8077 111.358 93.375 110.628 94.0214L109.996 94.5834H114.446V95.9183H107.623V94.752L108.634 93.8809ZM115.824 88.3447C115.88 87.4735 116.213 86.7937 116.821 86.3072C117.439 85.8198 118.225 85.5766 119.18 85.5766C119.835 85.5766 120.401 85.6933 120.878 85.9278C121.356 86.1614 121.716 86.4802 121.959 86.8833C122.203 87.2855 122.324 87.7405 122.324 88.2463C122.324 88.8268 122.17 89.323 121.861 89.7357C121.552 90.1476 121.183 90.4242 120.752 90.5648V90.621C121.305 90.7896 121.735 91.0987 122.044 91.5483C122.353 91.9883 122.507 92.5548 122.507 93.2486C122.507 93.8009 122.381 94.2927 122.128 94.7239C121.875 95.1542 121.501 95.4967 121.005 95.7497C120.509 95.9929 119.915 96.115 119.222 96.115C118.211 96.115 117.378 95.8568 116.723 95.3422C116.077 94.817 115.731 94.0679 115.684 93.094H117.228C117.266 93.5902 117.458 93.9977 117.804 94.3164C118.15 94.6256 118.618 94.7802 119.208 94.7802C119.779 94.7802 120.219 94.6256 120.527 94.3164C120.836 93.9977 120.991 93.5902 120.991 93.094C120.991 92.438 120.78 91.9743 120.359 91.7029C119.947 91.4219 119.311 91.2814 118.45 91.2814H118.085V89.9606H118.464C119.222 89.9509 119.797 89.8244 120.19 89.5812C120.593 89.337 120.794 88.9532 120.794 88.429C120.794 87.9793 120.649 87.6228 120.359 87.3611C120.069 87.0888 119.657 86.9536 119.123 86.9536C118.6 86.9536 118.192 87.0888 117.902 87.3611C117.612 87.6228 117.439 87.9512 117.383 88.3447H115.824Z" fill="#989898"/>
<path d="M213.111 56.8811C213.029 56.8135 212.909 56.7915 212.816 56.8231C212.703 56.8583 212.599 56.8881 212.5 56.9171L212.453 56.9311C212.211 57.0023 212.001 57.0629 211.794 57.1463C208.52 58.4478 205.942 60.6784 203.913 63.9656C203.412 64.777 203.024 65.621 202.716 66.4632C203.222 63.6318 203.339 62.5288 203.429 59.3603C203.433 59.2276 203.433 59.0924 203.433 58.958C203.433 58.5918 203.433 58.2449 203.513 57.9297C203.61 57.5555 203.803 57.1814 203.989 56.8205C204.041 56.7186 204.094 56.6159 204.138 56.5263C204.153 56.5087 204.201 56.4789 204.22 56.4762C205.157 56.3331 205.984 55.9353 206.752 55.2599C207.526 54.5758 208.162 53.7389 208.643 52.772C210.371 49.3039 211.236 45.4715 211.214 41.3808C211.211 40.9865 211.166 40.6027 211.115 40.1847C211.091 39.9976 211.067 39.8061 211.048 39.6077C211.037 39.4988 210.97 39.4022 210.873 39.3556C210.778 39.3091 210.662 39.3117 210.565 39.3706C210.507 39.4074 210.457 39.4373 210.412 39.4636C210.324 39.5155 210.257 39.5567 210.193 39.6024C208.72 40.6598 207.42 41.9762 206.33 43.5139C204.55 46.0274 203.515 48.8692 203.237 51.9956C203.209 51.6479 203.181 51.2992 203.153 50.9506L203.143 50.8241C203.033 49.4576 202.921 48.0446 202.829 46.6553C202.805 46.3031 202.737 45.9606 202.673 45.6295C202.546 44.9928 202.428 44.3921 202.618 43.7616C202.661 43.6193 202.698 43.4762 202.735 43.333C202.824 42.9782 203.26 42.4329 203.927 41.8357L203.953 41.8128C204.199 41.6038 205.465 40.4455 206.183 38.1525C206.912 35.8235 206.856 33.39 206.816 31.6134L206.815 31.5659C206.762 29.1237 206.498 27.2829 205.96 25.5968C205.891 25.3816 205.809 25.1691 205.721 24.9452C205.675 24.8292 205.629 24.7089 205.581 24.5833C205.542 24.4771 205.448 24.3989 205.338 24.3813L205.285 24.3761C205.189 24.3761 205.1 24.4191 205.04 24.4929L204.517 25.1296C202.012 28.1884 200.781 31.7741 200.858 35.7901C200.872 36.4971 200.925 37.2233 201.019 37.9716C200.381 35.7726 199.635 33.6315 198.785 31.5721C198.768 31.5273 198.756 31.4711 198.755 31.4237L198.749 31.1427C198.741 30.736 198.731 30.3154 198.748 29.9026C198.751 29.8332 198.796 29.7103 198.888 29.5891C199.019 29.4161 199.164 29.2466 199.315 29.0701C199.572 28.7706 199.837 28.4615 200.048 28.1093C200.725 26.9738 201.042 25.6337 201.047 23.8896C201.057 21.8363 200.74 19.6759 200.052 17.0905C199.675 15.6792 199.106 13.8464 198.047 12.1848C197.975 12.0733 197.896 11.9679 197.81 11.8564C197.771 11.8072 197.731 11.7545 197.689 11.6983C197.63 11.6175 197.547 11.571 197.413 11.571C197.306 11.5789 197.211 11.6395 197.158 11.7334C195.829 14.1345 195.167 16.6988 195.136 19.5741C195.109 21.9707 195.483 24.0336 195.952 25.6644C194.759 23.4821 193.432 21.3735 191.995 19.3729L191.961 19.3282C191.929 19.2843 191.915 19.2632 191.917 19.2781C191.827 18.6309 191.764 18.1136 191.721 17.6622C191.722 17.6561 191.73 17.6174 191.797 17.505C191.893 17.3434 191.996 17.1845 192.107 17.0167C192.329 16.6786 192.558 16.3291 192.705 15.9383C193.148 14.7571 193.248 13.4178 193.009 11.8441C192.483 8.36289 190.949 5.2277 188.321 2.25936C188.05 1.95463 187.752 1.68502 187.435 1.40048L187.348 1.32056C187.225 1.20903 187.097 1.09399 186.969 0.972798C186.888 0.895516 186.771 0.866542 186.658 0.899913C186.551 0.933285 186.468 1.02198 186.443 1.13264L186.385 1.38468C186.345 1.55242 186.316 1.68414 186.293 1.81675C185.939 3.93059 185.965 6.19372 186.373 8.73788C186.776 11.261 187.582 13.4372 188.816 15.3271C186.964 13.1421 185.162 11.3084 183.279 9.68196C183.271 9.67142 183.258 9.63718 183.258 9.62927C183.404 8.36027 183.092 7.16415 182.301 5.97418C181.262 4.4101 179.819 3.21749 178.01 2.43149C176.928 1.96165 175.807 1.54538 174.71 1.13877C174.183 0.942935 173.658 0.747981 173.117 0.539846C172.572 0.32293 172.34 0.284284 172.214 0.401086C172.051 0.553015 172.09 0.682109 172.161 0.917468L172.184 0.993877C172.847 3.23154 173.728 5.00024 174.877 6.40274C176.984 8.97939 179.45 10.2888 182.411 10.4038C182.514 10.4109 182.597 10.439 182.63 10.4653C183.047 10.778 183.354 11.0274 183.625 11.275C184.482 12.0593 185.327 12.8953 186.154 13.7762C184.925 13.0112 183.422 12.667 181.731 12.7522C180.805 12.7987 179.885 12.9348 178.996 13.0657L178.963 13.071C178.7 13.1096 178.438 13.1482 178.178 13.1851C177.607 13.2624 177.031 13.3634 176.523 13.4521C176.317 13.489 175.824 13.6014 175.711 13.8403C175.673 13.9219 175.675 14.0115 175.72 14.0923C175.759 14.1634 175.802 14.2302 175.849 14.2908C177.317 16.1965 178.991 17.4523 180.968 18.1277C183.378 18.9567 185.591 18.8882 187.58 17.9134C187.884 17.7465 188.251 17.6613 188.67 17.6613C188.987 17.6613 189.223 17.7114 189.302 17.729C189.42 17.7491 189.58 17.815 189.613 17.8572C190.849 19.4845 192.023 21.2233 193.119 23.0491C192.194 22.1481 190.985 21.5404 189.34 21.1443C187.898 20.8 186.423 20.7263 184.998 20.6542L184.52 20.6305C184.074 20.6077 183.626 20.5787 183.165 20.5497L182.393 20.5023C182.293 20.5023 182.198 20.5506 182.14 20.6314C182.076 20.7175 182.061 20.8299 182.098 20.9309C182.13 21.0152 182.186 21.1636 182.215 21.2137C183.719 23.7306 185.485 25.4712 187.612 26.5365C189.693 27.5763 191.572 27.8511 193.468 27.398C193.687 27.3453 193.942 27.3172 194.204 27.3172C195.011 27.3172 195.573 27.5631 195.691 27.7914C196.735 29.9448 197.666 32.1825 198.469 34.4649C197.626 33.303 196.449 32.3598 194.958 31.6538C193.477 30.9538 191.935 30.3145 190.417 29.6848C189.765 29.4152 189.11 29.1447 188.458 28.8672C188.362 28.8251 188.247 28.8338 188.156 28.8936C188.068 28.9524 188.015 29.0516 188.015 29.157C188.015 29.3617 190.179 35.3721 193.321 37.7406C194.603 38.7066 196.183 39.7008 198.174 39.7473C198.77 39.7596 199.386 39.8439 199.851 40.3735C199.923 40.4569 200.016 40.5228 200.12 40.5579C200.279 40.6106 200.323 40.7072 200.401 41.0391C201.046 43.7493 201.515 46.542 201.805 49.3786C201.717 49.0905 201.615 48.7998 201.498 48.5056C200.796 46.7211 199.612 45.1588 197.774 43.5895C196.826 42.778 195.834 41.992 194.874 41.2306L194.829 41.1946C194.392 40.8486 193.956 40.5034 193.521 40.1539C193.431 40.081 193.344 40.0073 193.242 39.9203L192.971 39.6876C192.876 39.6068 192.735 39.5901 192.624 39.6463C192.51 39.7034 192.442 39.8237 192.451 39.951C192.464 40.1425 192.475 40.3243 192.485 40.4982L192.49 40.5798C192.511 40.9382 192.532 41.2763 192.568 41.61C192.908 44.8602 193.874 47.5739 195.52 49.9055C196.54 51.3475 198.002 53.1092 200.281 53.9426C200.837 54.1464 201.239 54.4546 201.671 55.0087C202.077 55.5278 202.152 56.002 202.143 56.5983C202.105 59.0968 201.927 61.5751 201.613 64.0024C201.54 63.3271 201.384 62.6316 201.146 61.9088C200.652 60.4132 199.882 58.958 198.792 57.4625C197.852 56.1671 196.873 54.8665 195.927 53.6089L195.863 53.5246C195.489 53.0266 195.113 52.5278 194.748 52.0404C194.68 51.9394 194.58 51.9043 194.523 51.8841C194.443 51.8446 194.346 51.8402 194.26 51.8771C194.176 51.9131 194.111 51.9842 194.083 52.0712L194.072 52.1045C194.057 52.1502 194.043 52.1906 194.037 52.2319C193.384 56.1267 193.785 59.6176 195.261 62.9029C195.982 64.5092 196.949 66.3279 198.655 67.6365C199.433 68.2336 200.047 69.0723 200.385 69.9962C200.456 70.1947 200.453 70.2807 200.446 70.3141C199.723 73.3062 198.781 76.191 197.635 78.9214C197.931 77.4829 197.91 75.9706 197.574 74.4048C197.095 72.1847 196.273 70.034 195.54 68.1915L195.32 67.64C194.977 66.7758 194.631 65.9064 194.273 65.0045C194.229 64.8886 194.119 64.8104 193.973 64.8034C193.858 64.8034 193.752 64.8683 193.698 64.9755L193.583 65.1924C193.532 65.2873 193.485 65.376 193.444 65.4673C191.969 68.7966 191.472 72.2101 191.965 75.6123C192.317 78.0458 192.914 79.7873 193.901 81.2609C194.412 82.0232 194.897 82.8716 194.986 83.9149C195.006 84.1625 194.996 84.332 194.887 84.5261C193.642 86.7075 192.246 88.767 190.718 90.6797C190.724 90.6691 190.729 90.6586 190.735 90.6481C191.835 88.637 191.868 86.4625 191.756 84.5999C191.658 83.0042 191.476 81.4102 191.3 79.869L191.29 79.7794C191.219 79.162 191.149 78.5455 191.085 77.9273C191.047 77.576 191.006 77.2256 190.963 76.8699L190.906 76.3886C190.894 76.2824 190.829 76.1902 190.735 76.1436C190.562 76.0532 190.281 76.1928 189.977 76.552C187.891 79.0215 186.597 81.8116 186.13 84.8458C185.645 87.9915 185.908 90.6841 186.934 93.0763C186.961 93.1395 186.961 93.2695 186.96 93.3134L186.905 94.6895C186.897 94.7888 186.845 94.9003 186.802 94.9416C184.719 96.9492 182.426 98.6951 179.965 100.148C181.13 99.0938 181.968 97.7185 182.51 95.9761C183.112 94.045 183.421 92.0356 183.72 90.0869L183.746 89.913C183.852 89.2289 183.962 88.5456 184.075 87.8466L184.203 87.0571C184.221 86.9429 184.176 86.8279 184.087 86.7585C183.998 86.6882 183.871 86.6707 183.769 86.7146L183.658 86.7611C183.538 86.8094 183.435 86.8533 183.337 86.9034C178.686 89.228 175.623 94.6518 176.056 99.799C176.124 100.604 176.05 101.362 175.83 102.112C175.809 102.18 175.744 102.254 175.716 102.267C173.507 103.199 171.406 103.88 169.292 104.346C169.184 104.372 169.098 104.45 169.063 104.554C169.027 104.66 169.049 104.775 169.12 104.861C169.35 105.133 169.55 105.426 169.715 105.733C169.783 105.859 169.944 105.923 170.064 105.891C171.786 105.498 173.463 104.989 175.05 104.377C175.179 104.325 175.277 104.301 175.368 104.316C175.722 104.363 176.095 104.435 176.509 104.538C176.594 104.559 176.665 104.598 176.667 104.595C177.571 106.4 179.126 107.55 181.422 108.109C181.921 108.229 182.436 108.318 182.952 108.372C183.493 108.429 184.096 108.458 184.743 108.458C185.641 108.458 186.28 108.403 186.288 108.402C188.278 108.179 189.977 107.731 191.482 107.032C192.1 106.746 192.804 106.359 193.344 105.671C193.448 105.539 193.43 105.348 193.305 105.238C191.776 103.888 190.219 102.907 188.545 102.239C186.065 101.252 183.806 100.985 181.592 101.411C181.261 101.475 180.937 101.557 180.623 101.65C182.695 100.411 184.679 98.9541 186.552 97.2952C186.588 97.2618 186.646 97.2337 186.693 97.2249C186.999 97.174 187.406 97.1116 187.822 97.0818C187.861 97.0818 187.91 97.1002 187.915 97.102C189.044 98.3666 190.498 98.9805 192.36 98.9805C192.456 98.9805 192.551 98.9787 192.646 98.9752C194.671 98.9102 196.707 98.3534 198.698 97.3189C200.145 96.5637 201.654 95.6846 202.877 94.3725C203.148 94.081 203.39 93.7508 203.604 93.4601L203.625 93.4311C203.719 93.3029 203.815 93.1738 203.913 93.0456C203.967 92.9771 203.99 92.8884 203.976 92.7988C203.961 92.7127 203.911 92.6354 203.826 92.5801C203.804 92.5687 203.286 92.2903 202.813 92.1068C199.647 90.8825 196.449 90.7569 193.4 91.7405C192.402 92.062 191.462 92.5441 190.548 93.2098C192.239 91.2417 193.806 89.084 195.228 86.762C195.244 86.7374 195.284 86.6716 195.297 86.6593C195.421 86.5802 195.548 86.5047 195.676 86.4309C195.903 86.2974 196.139 86.1587 196.36 85.9944C196.547 85.8548 196.6 85.8513 196.788 85.9725C197.055 86.1464 197.366 86.236 197.636 86.3071C199.219 86.7128 200.814 86.5108 202.58 85.6809C204.191 84.9248 205.431 83.7287 206.531 82.5501C208.131 80.8297 209.176 79.2779 209.821 77.6656C209.956 77.3275 210.053 76.977 210.154 76.6117C210.195 76.458 210.238 76.3043 210.283 76.1533C210.332 75.9917 210.246 75.8204 210.086 75.7634L209.954 75.7537C209.301 75.7537 203.482 75.8494 200.077 79.155C199.336 79.8742 198.673 80.6383 198.067 81.4752C199.414 78.621 200.555 75.6132 201.476 72.4903L201.489 72.4446C201.5 72.4069 201.517 72.3489 201.527 72.3331L202.418 71.1098C202.451 71.0606 202.456 71.0606 202.508 71.0606C202.53 71.0606 202.556 71.0623 202.586 71.0641L202.775 71.0755C203.438 71.1168 203.828 71.1106 204.149 71.0606C205.416 70.8604 206.561 70.221 207.647 69.1066C210.186 66.5001 211.934 63.2481 212.991 59.1653C213.104 58.7279 213.136 58.2862 213.169 57.8181C213.184 57.6056 213.201 57.3869 213.225 57.1612C213.235 57.0523 213.193 56.9487 213.111 56.8811Z" fill="#989898"/>
<path d="M44.1965 104.344C42.0844 103.877 39.9838 103.196 37.7743 102.264C37.7471 102.251 37.6821 102.177 37.6611 102.11C37.4408 101.359 37.3671 100.602 37.4356 99.7956C37.8682 94.6484 34.8058 89.2255 30.1543 86.9009C30.056 86.8499 29.9525 86.8069 29.834 86.7577L29.7234 86.7121C29.6181 86.6673 29.4909 86.6866 29.4067 86.7542C29.3154 86.8245 29.2698 86.9395 29.2882 87.0545L29.4154 87.8441C29.5286 88.5422 29.6392 89.2255 29.7454 89.9096L29.7717 90.0888C30.0709 92.0331 30.3789 94.0424 30.9808 95.9736C31.524 97.716 32.3611 99.0912 33.5256 100.144C31.0651 98.6925 28.7722 96.9466 26.6891 94.9399C26.6452 94.8978 26.5935 94.7863 26.5864 94.694L26.5303 93.3161C26.5303 93.267 26.5294 93.137 26.5575 93.0729C27.5833 90.6815 27.8456 87.989 27.3613 84.8432C26.8936 81.809 25.5993 79.019 23.5135 76.5495C23.2696 76.2605 23.0537 76.1147 22.873 76.1147C22.8291 76.1147 22.7896 76.1235 22.758 76.1393C22.6624 76.1876 22.5966 76.2799 22.5843 76.3861L22.5281 76.8674C22.4851 77.2239 22.4439 77.5734 22.407 77.9247C22.3421 78.543 22.2719 79.1595 22.2008 79.7769L22.1912 79.8664C22.0148 81.4077 21.8323 83.0016 21.7358 84.5973C21.6234 86.4591 21.6568 88.6336 22.7563 90.6455C22.7615 90.6552 22.7668 90.6666 22.7729 90.6763C21.2444 88.7635 19.8492 86.705 18.6049 84.5236C18.4944 84.3295 18.4847 84.16 18.5058 83.9123C18.5944 82.8682 19.0788 82.0198 19.5894 81.2584C20.5766 79.7848 21.1733 78.0433 21.5269 75.6098C22.0201 72.2076 21.5216 68.7949 20.0466 65.4648C20.0062 65.3734 19.9589 65.2847 19.9089 65.1899L19.793 64.9721C19.7386 64.8658 19.6202 64.7956 19.4964 64.8017C19.3718 64.8079 19.263 64.8869 19.2174 65.0011C18.8603 65.9038 18.5137 66.7742 18.1706 67.6374L17.9503 68.1889C17.2176 70.0314 16.3954 72.183 15.9181 74.4023C15.5811 75.9681 15.5601 77.4804 15.8558 78.9189C14.7098 76.1885 13.7674 73.3036 13.0461 70.3116C13.0373 70.2782 13.0347 70.1921 13.1066 69.9937C13.4436 69.0689 14.0587 68.2311 14.837 67.633C16.542 66.3245 17.509 64.5058 18.2302 62.8995C19.7062 59.6142 20.1063 56.1242 19.4534 52.2293C19.4464 52.1881 19.4341 52.1477 19.4201 52.1037L19.4078 52.0686C19.3797 51.9808 19.3148 51.9105 19.2297 51.8737C19.1463 51.8385 19.041 51.8456 18.9761 51.8772C18.9103 51.9009 18.812 51.9369 18.7471 52.0317C18.3777 52.5253 18.003 53.0241 17.6274 53.522L17.5642 53.6064C16.6183 54.8639 15.639 56.1637 14.6984 57.459C13.6094 58.9555 12.839 60.4098 12.3459 61.9063C12.1072 62.629 11.9519 63.3237 11.8782 63.9999C11.5649 61.5726 11.3868 59.0943 11.3482 56.5949C11.3385 55.9986 11.4149 55.5252 11.8211 55.0053C12.252 54.4521 12.6547 54.1438 13.2093 53.9392C15.489 53.1058 16.9518 51.3441 17.9714 49.903C19.6175 47.5713 20.5836 44.8577 20.9232 41.6074C20.9592 41.2728 20.9803 40.9347 21.0013 40.5764L21.0066 40.4956C21.0171 40.3209 21.0276 40.14 21.0408 39.9476C21.0496 39.8203 20.9811 39.7009 20.8679 39.6429C20.7574 39.5876 20.6161 39.6043 20.5196 39.6851L20.2493 39.9169C20.1475 40.0038 20.0607 40.0785 19.9703 40.1514C19.5359 40.5 19.0998 40.846 18.6628 41.192L18.6172 41.2281C17.6572 41.9886 16.6657 42.7746 15.718 43.5869C13.8797 45.1563 12.696 46.7186 11.9923 48.5031C11.8764 48.7973 11.7746 49.0889 11.6869 49.3769C11.9765 46.5403 12.4459 43.7467 13.0908 41.0366C13.1689 40.7046 13.2128 40.608 13.3734 40.5545C13.4752 40.5202 13.5691 40.4544 13.6384 40.3727C14.1061 39.8405 14.7212 39.7562 15.3179 39.7448C17.3089 39.6973 18.8883 38.7041 20.1695 37.7372C23.3126 35.3687 25.4765 29.3582 25.4765 29.1545C25.4765 29.0482 25.4238 28.9499 25.3334 28.8893C25.2448 28.8313 25.1254 28.8234 25.0359 28.8629C24.3813 29.1413 23.7259 29.4118 23.0485 29.6928C21.5568 30.312 20.015 30.9513 18.5338 31.6504C17.043 32.3564 15.8654 33.3005 15.0231 34.4615C15.826 32.1799 16.7561 29.9422 17.7976 27.7915C17.9179 27.5597 18.4803 27.3138 19.2876 27.3138C19.55 27.3138 19.8035 27.3419 20.0238 27.3946C21.9191 27.8495 23.7987 27.5737 25.8792 26.533C28.0071 25.4687 29.7726 23.7272 31.2766 21.2094C31.3055 21.1611 31.3617 21.0118 31.3924 20.9283C31.431 20.8265 31.4152 20.7141 31.352 20.6289C31.2932 20.5481 31.1993 20.4998 31.0791 20.4998H31.0765L30.3254 20.5472C29.8647 20.5762 29.4181 20.6052 28.9706 20.628L28.4932 20.6517C27.0673 20.7237 25.5931 20.7975 24.1506 21.1417C22.5053 21.5369 21.297 22.1455 20.3713 23.0466C21.4672 21.2208 22.6413 19.4828 23.8777 17.8546C23.911 17.8116 24.0707 17.7457 24.2015 17.7238C24.2673 17.7088 24.5042 17.6588 24.821 17.6588C25.2395 17.6588 25.6063 17.744 25.9178 17.9152C27.8939 18.8821 30.113 18.9541 32.5226 18.126C34.4995 17.4498 36.1729 16.1948 37.64 14.2891C37.6883 14.2276 37.7313 14.1609 37.7708 14.0906C37.8146 14.009 37.8182 13.9194 37.7787 13.8377C37.6655 13.5997 37.1741 13.4873 36.967 13.4504C36.459 13.3617 35.8833 13.2599 35.313 13.1826C35.0515 13.1466 34.79 13.1079 34.5276 13.0693L34.4943 13.064C33.6045 12.9323 32.6858 12.797 31.76 12.7496C30.0683 12.6636 28.566 13.0087 27.3358 13.7736C28.1633 12.8936 29.0074 12.0576 29.8656 11.2725C30.1367 11.0257 30.443 10.7754 30.8615 10.4628C30.894 10.4373 30.9756 10.4083 31.0765 10.4031C34.0397 10.2871 36.5055 8.97773 38.614 6.40107C39.7626 4.99858 40.6428 3.229 41.307 0.992212L41.3298 0.915803C41.4 0.680444 41.4395 0.55135 41.2763 0.399421C41.1508 0.282619 40.9297 0.31687 40.3549 0.545203C39.832 0.746312 39.3073 0.941274 38.7676 1.1415C37.6839 1.54372 36.5625 1.95912 35.4806 2.42896C33.6721 3.21583 32.2286 4.40756 31.1897 5.97252C30.3982 7.16249 30.0858 8.3586 30.2332 9.62146C30.2324 9.63551 30.2201 9.66975 30.2174 9.67326C28.33 11.3041 26.5259 13.1404 24.6736 15.3254C25.909 13.4355 26.7146 11.2584 27.1182 8.73622C27.5254 6.19206 27.5517 3.92805 27.1972 1.81509C27.1752 1.68248 27.1445 1.55076 27.1059 1.38477L27.048 1.12922C27.0217 1.02032 26.9401 0.931614 26.8313 0.897364C26.7234 0.865749 26.6022 0.893851 26.5215 0.971133C26.3925 1.09233 26.2662 1.20737 26.1425 1.31978L26.0556 1.39795C25.7388 1.68336 25.4396 1.95296 25.1693 2.2577C22.5404 5.22603 21.0066 8.36123 20.4818 11.8424C20.2423 13.4162 20.3414 14.7554 20.7854 15.9366C20.932 16.3283 21.161 16.6778 21.3891 17.0247C21.4936 17.1828 21.598 17.3417 21.6936 17.5051C21.7647 17.6228 21.77 17.6526 21.77 17.6474C21.727 18.1128 21.6638 18.6318 21.5805 19.2545C21.5761 19.2615 21.5647 19.28 21.5269 19.33L21.4971 19.3722C20.0589 21.3718 18.733 23.4804 17.5388 25.6627C18.0082 24.0328 18.382 21.9699 18.3557 19.5724C18.3241 16.6971 17.6625 14.1328 16.3322 11.7318C16.2805 11.6378 16.1848 11.5772 16.0515 11.5684C15.9541 11.5684 15.861 11.6159 15.7996 11.6984C15.7601 11.7537 15.7198 11.8055 15.6812 11.8556C15.5952 11.9663 15.5153 12.0716 15.4434 12.1841C14.3842 13.8456 13.8165 15.6776 13.4392 17.0888C12.7504 19.676 12.4345 21.8364 12.4433 23.8879C12.4485 25.632 12.7662 26.973 13.4427 28.1068C13.6533 28.4598 13.9183 28.769 14.1851 29.0798C14.3263 29.2449 14.4711 29.4144 14.6028 29.5883C14.6949 29.7095 14.7396 29.8325 14.7423 29.901C14.7589 30.3146 14.7502 30.7353 14.7414 31.141L14.7353 31.422C14.7344 31.4703 14.723 31.5256 14.7063 31.5687C13.856 33.6289 13.1093 35.7709 12.4722 37.9708C12.5661 37.2217 12.6188 36.4963 12.6319 35.7893C12.7092 31.7733 11.478 28.1867 8.97285 25.1288L8.45074 24.4921C8.39108 24.4175 8.30158 24.3744 8.20594 24.3744L8.15329 24.3797C8.04185 24.3981 7.94795 24.4754 7.90934 24.5808C7.86195 24.7081 7.81457 24.8276 7.76982 24.9435C7.68207 25.1683 7.5996 25.38 7.5294 25.596C6.99239 27.2813 6.72827 29.122 6.67474 31.5643L6.67386 31.6117C6.63349 33.3883 6.57823 35.8227 7.30741 38.1517C8.02519 40.4438 9.29137 41.6031 9.53618 41.8103L9.56251 41.834C10.2311 42.4312 10.6655 42.9766 10.7559 43.3314C10.7919 43.4745 10.8287 43.6176 10.8717 43.759C11.063 44.3905 10.9437 44.9912 10.8147 45.6402C10.7506 45.9677 10.6848 46.3067 10.6611 46.6536C10.569 48.0429 10.4567 49.456 10.347 50.8224L10.3373 50.9489C10.3092 51.2976 10.2812 51.6462 10.2531 51.9949C9.97494 48.8676 8.94037 46.0257 7.15997 43.5123C6.07014 41.9745 4.77061 40.659 3.29645 39.6007C3.23239 39.5551 3.1657 39.5138 3.0762 39.4611C3.0332 39.4356 2.98231 39.4058 2.92176 39.3671C2.82963 39.3118 2.71118 39.3074 2.61641 39.354C2.51901 39.4014 2.45231 39.4971 2.4409 39.6069C2.4216 39.8045 2.39791 39.9959 2.37334 40.1944C2.3242 40.601 2.2777 40.9848 2.27595 41.3791C2.25401 45.4698 3.11831 49.3023 4.84607 52.7703C5.3278 53.7381 5.96398 54.575 6.73791 55.2583C7.50483 55.9327 8.33316 56.3305 9.26768 56.4737C9.28786 56.4772 9.337 56.5071 9.34402 56.5132C9.39492 56.6151 9.44757 56.717 9.50022 56.8188C9.68712 57.1798 9.87928 57.553 9.97581 57.928C10.0557 58.2442 10.0557 58.5902 10.0557 58.9564C10.0557 59.0907 10.0557 59.226 10.0601 59.3586C10.1496 62.5272 10.2671 63.6302 10.7734 66.4615C10.4646 65.6193 10.0767 64.7754 9.57568 63.9639C7.54695 60.6776 4.9698 58.447 1.69681 57.1446C1.48797 57.0612 1.27912 57.0006 1.03693 56.9304L0.988679 56.9154C0.890402 56.8873 0.786864 56.8566 0.675425 56.8223C0.574515 56.789 0.460452 56.8118 0.377969 56.8794C0.296364 56.947 0.254247 57.0507 0.264777 57.1587C0.288468 57.3835 0.305136 57.6022 0.320931 57.8156C0.354275 58.2828 0.385867 58.7245 0.499061 59.1619C1.55554 63.2447 3.30348 66.4958 5.8429 69.1032C6.92921 70.2176 8.07344 70.8561 9.3414 71.0563C9.6608 71.1064 10.0521 71.1125 10.7138 71.0721L10.9042 71.0607C10.9331 71.0589 10.9586 71.0572 10.9823 71.0572C11.034 71.0572 11.0384 71.0572 11.0744 71.1107L11.9615 72.3297C11.9729 72.3455 11.9896 72.4034 12.001 72.443L12.0142 72.4869C12.9347 75.6098 14.0763 78.6167 15.4232 81.4718C14.8169 80.6349 14.1526 79.8699 13.4129 79.1516C10.0083 75.8451 4.18885 75.7503 3.53601 75.7503H3.45527L3.40351 75.7599C3.24381 75.817 3.15694 75.9883 3.20696 76.149C3.25171 76.3009 3.2947 76.4546 3.34296 76.6346C3.43598 76.9736 3.53249 77.3232 3.66763 77.6613C4.31257 79.2745 5.35852 80.8263 6.95817 82.5467C8.05852 83.7253 9.29751 84.9214 10.9094 85.6775C12.6749 86.5074 14.2693 86.7094 15.854 86.3037C16.1234 86.2326 16.434 86.143 16.7008 85.97C16.8903 85.8479 16.9421 85.8514 17.129 85.991C17.3501 86.1553 17.5853 86.2931 17.8143 86.4275C17.9407 86.5013 18.0679 86.5768 18.1864 86.6515C18.2057 86.6673 18.246 86.734 18.2609 86.7586C19.6833 89.0806 21.2496 91.2383 22.9423 93.2064C22.0271 92.5398 21.0873 92.0577 20.0887 91.7371C17.0395 90.7535 13.842 90.8783 10.676 92.1034C10.204 92.2869 9.68537 92.5644 9.65114 92.5837C9.57831 92.632 9.52829 92.7084 9.51337 92.7971C9.49933 92.8841 9.52215 92.9728 9.5748 93.0413C9.67395 93.1695 9.76961 93.2995 9.8635 93.4277L9.88455 93.4558C10.0986 93.7465 10.3408 94.0767 10.612 94.3682C11.8352 95.6803 13.3436 96.5602 14.7914 97.3155C16.7824 98.3492 18.8181 98.9059 20.8425 98.9718C20.9381 98.9744 21.0338 98.9771 21.1285 98.9771C22.9905 98.9771 24.4445 98.3623 25.5659 97.1056C25.5791 97.0959 25.6283 97.0775 25.6546 97.0766C26.0828 97.1074 26.4899 97.1697 26.7944 97.2207C26.8418 97.2294 26.9015 97.2584 26.9383 97.2909C28.8109 98.9507 30.7931 100.407 32.8648 101.646C32.5507 101.553 32.2278 101.472 31.8969 101.407C29.6831 100.981 27.4236 101.248 24.9429 102.234C23.2696 102.902 21.7129 103.883 20.1844 105.233C20.0589 105.344 20.0405 105.534 20.1449 105.666C20.6854 106.355 21.3891 106.74 22.006 107.027C23.5118 107.727 25.2106 108.175 27.2024 108.398C27.2086 108.398 27.8483 108.454 28.7459 108.454C29.3935 108.454 29.9963 108.425 30.5369 108.368C31.0528 108.313 31.5679 108.225 32.0681 108.104C34.3627 107.546 35.9175 106.395 36.8091 104.611C36.8248 104.595 36.8933 104.555 36.9802 104.534C37.3943 104.431 37.7673 104.359 38.1218 104.311C38.2051 104.298 38.3095 104.32 38.4403 104.374C40.025 104.984 41.7028 105.493 43.4217 105.886C43.4463 105.892 43.4717 105.895 43.4963 105.895C43.6121 105.895 43.7183 105.831 43.7745 105.728C43.9386 105.421 44.1386 105.128 44.3685 104.856C44.4414 104.77 44.4624 104.656 44.4273 104.549C44.3931 104.447 44.3071 104.369 44.1965 104.344Z" fill="#989898"/>
</svg>
