<svg width="22" height="23" viewBox="0 0 22 23" fill="none" xmlns="http://www.w3.org/2000/svg">
<path fill-rule="evenodd" clip-rule="evenodd" d="M11 3.24999C6.44367 3.24999 2.75002 6.94364 2.75002 11.5C2.75002 16.0564 6.44367 19.75 11 19.75C15.5564 19.75 19.25 16.0564 19.25 11.5C19.25 6.94364 15.5564 3.24999 11 3.24999ZM0.916687 11.5C0.916687 5.93112 5.43115 1.41666 11 1.41666C16.5689 1.41666 21.0834 5.93112 21.0834 11.5C21.0834 17.0688 16.5689 21.5833 11 21.5833C5.43115 21.5833 0.916687 17.0688 0.916687 11.5ZM15.7732 8.10181C16.1312 8.45979 16.1312 9.04019 15.7732 9.39817L10.2732 14.8982C9.91522 15.2561 9.33482 15.2561 8.97684 14.8982L6.22684 12.1482C5.86886 11.7902 5.86886 11.2098 6.22684 10.8518C6.58482 10.4938 7.16522 10.4938 7.5232 10.8518L9.62502 12.9536L14.4768 8.10181C14.8348 7.74383 15.4152 7.74383 15.7732 8.10181Z" fill="#048AF5"/>
</svg>
